<svg width="323" height="307" viewBox="0 0 323 307" fill="none" xmlns="http://www.w3.org/2000/svg">
<path d="M233.845 257.79C262.282 257.79 285.334 234.627 285.334 206.054C285.334 177.481 262.282 154.318 233.845 154.318C205.408 154.318 182.355 177.481 182.355 206.054C182.355 234.627 205.408 257.79 233.845 257.79Z" fill="#2D3D00"/>
<path d="M234.446 260.386C234.446 296.837 194.744 283.486 145.77 283.486C96.795 283.486 57.0933 296.837 57.0933 260.386C57.0933 223.935 96.795 151.485 145.77 151.485C194.744 151.485 234.446 223.935 234.446 260.386Z" fill="#A6BD64"/>
<path d="M322.877 290.953C312.606 289.204 302.728 287.703 293.244 286.448L296.993 279.144C295.729 278.702 290.174 282.885 290.174 282.885L295.095 261.683C288.736 262.453 285.503 284.103 285.503 284.103L278.399 276.783L281.838 285.012C256.888 281.981 231.786 280.394 206.654 280.258L209.863 274.006C208.599 273.565 203.044 277.748 203.044 277.748L207.965 256.545C201.606 257.315 198.373 278.965 198.373 278.965L191.269 271.645L194.912 280.361C186.665 280.527 179.138 280.881 172.314 281.35L173.446 279.144C172.644 278.864 170.117 280.444 168.375 281.637C167.873 281.677 167.382 281.718 166.889 281.758L171.548 261.683C166.361 262.311 163.254 276.832 162.285 282.162C161.603 282.226 160.926 282.291 160.261 282.357L154.901 276.834C159.391 269.834 165.964 264.309 165.964 264.309C157.543 266.826 153.126 271.043 150.818 274.974C150.611 254.879 153.937 234.905 160.641 215.971C160.641 215.971 143.235 254.028 145.456 279.574L145.694 283.634C121.952 281.233 101.078 280.297 83.107 280.258L86.3161 274.006C85.0518 273.565 79.4971 277.748 79.4971 277.748L84.4176 256.545C78.0589 257.315 74.8259 278.965 74.8259 278.965L67.7216 271.645L71.3645 280.361C56.917 280.601 42.4913 281.586 28.1443 283.311C31.3902 273.572 42.4167 264.309 42.4167 264.309C33.9958 266.826 29.5786 271.043 27.2705 274.974C27.0642 254.879 30.3897 234.905 37.094 215.971C37.094 215.971 19.6882 254.028 21.9092 279.574L22.1748 284.11C7.41875 286.233 0 288.442 0 288.442L199.33 290.953C195.854 290.361 192.424 289.799 189.041 289.267L322.877 290.953ZM154.884 276.861L157.309 282.663C155.355 282.873 153.476 283.089 151.692 283.311C152.489 281.038 153.561 278.871 154.884 276.861Z" fill="#3F3D56"/>
<path d="M262.666 285.618C262.558 285.441 260.02 281.181 259.139 272.336C258.332 264.222 258.851 250.544 265.911 231.464C279.286 195.319 262.829 166.155 262.661 165.865L263.473 165.391C263.515 165.465 267.762 172.901 270.27 184.741C273.585 200.438 272.378 216.76 266.791 231.793C253.439 267.876 263.365 284.958 263.467 285.126L262.666 285.618Z" fill="#3F3D56"/>
<path d="M257.436 163.742C260.805 163.742 263.536 160.998 263.536 157.614C263.536 154.229 260.805 151.485 257.436 151.485C254.068 151.485 251.337 154.229 251.337 157.614C251.337 160.998 254.068 163.742 257.436 163.742Z" fill="#A6BD64"/>
<path d="M276.673 186.371C280.042 186.371 282.773 183.627 282.773 180.242C282.773 176.857 280.042 174.114 276.673 174.114C273.305 174.114 270.574 176.857 270.574 180.242C270.574 183.627 273.305 186.371 276.673 186.371Z" fill="#3F3D56"/>
<path d="M263.535 201.457C266.904 201.457 269.635 198.713 269.635 195.328C269.635 191.943 266.904 189.2 263.535 189.2C260.167 189.2 257.436 191.943 257.436 195.328C257.436 198.713 260.167 201.457 263.535 201.457Z" fill="#A6BD64"/>
<path d="M279.488 214.186C282.857 214.186 285.588 211.442 285.588 208.057C285.588 204.672 282.857 201.928 279.488 201.928C276.119 201.928 273.389 204.672 273.389 208.057C273.389 211.442 276.119 214.186 279.488 214.186Z" fill="#A6BD64"/>
<path d="M258.844 233.986C262.213 233.986 264.943 231.242 264.943 227.857C264.943 224.472 262.213 221.728 258.844 221.728C255.475 221.728 252.745 224.472 252.745 227.857C252.745 231.242 255.475 233.986 258.844 233.986Z" fill="#3F3D56"/>
<path d="M266.351 285.843C266.351 285.843 260.251 270.757 278.55 259.443L266.351 285.843Z" fill="#3F3D56"/>
<path d="M258.849 285.569C258.849 285.569 256.073 269.527 234.588 269.664L258.849 285.569Z" fill="#3F3D56"/>
<path d="M160.212 23.9786C153.522 12.6195 140.285 12.0902 140.285 12.0902C140.285 12.0902 127.386 10.4328 119.112 27.7328C111.4 43.8578 100.756 59.4267 117.399 63.2015L120.405 53.8003L122.266 63.9014C124.636 64.0726 127.013 64.1135 129.387 64.0237C147.21 63.4455 164.184 64.1928 163.637 57.7666C162.911 49.2239 166.65 34.9082 160.212 23.9786Z" fill="#2F2E41"/>
<path d="M111.988 115.656L110.581 141.113L151.87 145.356L153.277 118.956L139.201 109.999L111.988 115.656Z" fill="#A0616A"/>
<path d="M222.951 171.521C221.713 159.494 172.557 154.035 160.743 152.895L156.326 150.306L154.919 135.22C154.919 135.22 111.284 131.449 108 130.977C104.716 130.506 101.9 136.635 101.9 138.049C101.9 139.071 101.287 146.37 98.8215 150.697C93.4981 154.995 77.2681 168.518 77.2681 173.642C77.2681 179.771 90.1707 256.85 90.1707 256.85L91.5783 272.879L104.716 275.236L103.777 225.264C103.777 225.264 108.469 196.507 101.9 188.492V185.192C101.9 185.192 121.166 180.149 127.956 174.657C129.924 174.233 135.453 173.186 138.507 174.096C138.925 174.344 139.408 174.598 139.945 174.857C140.014 174.919 140.079 174.986 140.139 175.056C140.139 175.056 140.158 175.027 140.192 174.975C148.976 179.106 171.509 184.317 180.724 182.835C187.831 181.745 195.097 183.072 201.368 186.606C196.207 193.207 199.961 212.064 199.961 212.064L200.43 252.607L206.998 260.621H215.913V238.464C215.913 238.464 224.358 185.192 222.951 171.521Z" fill="#211B94"/>
<path d="M136.151 55.077C144.702 55.077 151.634 48.1117 151.634 39.5197C151.634 30.9276 144.702 23.9624 136.151 23.9624C127.6 23.9624 120.668 30.9276 120.668 39.5197C120.668 48.1117 127.6 55.077 136.151 55.077Z" fill="#A0616A"/>
<path d="M126.767 49.4199C126.767 49.4199 129.113 59.7914 125.829 60.7342C123.231 61.5994 120.718 62.7041 118.322 64.0343L114.568 76.2915V88.5488L160.08 93.7345L161.487 89.4916V83.363L156.326 73.9344L153.98 71.5772C153.98 71.5772 143.658 60.2628 146.004 49.4199H126.767Z" fill="#A0616A"/>
<path d="M167.352 86.8987C167.352 86.8987 168.76 103.399 167.352 110.942C165.945 118.485 166.414 129.799 166.414 129.799L156.092 127.913V102.456L158.438 88.7844L167.352 86.8987Z" fill="#A0616A"/>
<path d="M141.905 21.7641C147.191 21.7641 151.476 17.4586 151.476 12.1475C151.476 6.83634 147.191 2.53082 141.905 2.53082C136.619 2.53082 132.334 6.83634 132.334 12.1475C132.334 17.4586 136.619 21.7641 141.905 21.7641Z" fill="#2F2E41"/>
<path d="M131.327 9.61666C131.327 7.24157 132.202 4.95057 133.783 3.185C135.364 1.41942 137.539 0.304164 139.89 0.0540687C138.555 -0.0887562 137.205 0.0521487 135.928 0.467625C134.651 0.883102 133.475 1.56386 132.477 2.46569C131.479 3.36751 130.681 4.47022 130.134 5.70221C129.588 6.93419 129.306 8.26789 129.306 9.61667C129.306 10.9655 129.588 12.2991 130.134 13.5311C130.681 14.7631 131.479 15.8658 132.477 16.7677C133.475 17.6695 134.651 18.3502 135.928 18.7657C137.205 19.1812 138.555 19.3221 139.89 19.1793C137.539 18.9292 135.364 17.8139 133.783 16.0483C132.202 14.2828 131.327 11.9918 131.327 9.61666Z" fill="#2F2E41"/>
<path d="M157.254 22.8837L144.177 16.0005L126.118 18.8165L122.382 35.3977L131.682 35.0379L134.281 28.9463V34.9375L138.573 34.7718L141.064 25.0732L142.62 35.3977L157.877 35.0847L157.254 22.8837Z" fill="#2F2E41"/>
<path d="M166.883 145.356H109.642V202.871H166.883V145.356Z" fill="#F2F2F2"/>
<path d="M100.258 78.8843L91.8129 113.77C91.8129 113.77 88.5286 121.313 96.0356 126.028C103.543 130.742 120.433 136.87 120.433 136.87C120.433 136.87 135.447 157.613 137.324 149.128C139.201 140.642 126.064 129.799 126.064 129.799L103.073 115.185L111.988 90.6701L100.258 78.8843Z" fill="#A0616A"/>
<path d="M161.253 122.728C161.253 122.728 168.291 121.785 167.822 129.799C167.352 137.813 157.969 138.756 157.969 138.756C157.969 138.756 153.746 156.671 147.647 153.371C141.547 150.071 150.931 132.156 150.931 132.156L158.907 126.028L161.253 122.728Z" fill="#A0616A"/>
<path d="M115.976 75.8198L123.483 60.2625L108.469 65.4483C108.469 65.4483 100.024 69.6912 99.5548 79.5912C99.0856 89.4913 110.346 94.6771 110.346 94.6771C110.346 94.6771 112.223 108.82 111.284 110.706C110.346 112.592 111.284 120.134 111.284 120.134C111.284 120.134 129.348 115.184 138.263 121.313C147.177 127.442 154.45 123.906 154.45 123.906C154.45 123.906 153.981 112.12 157.734 110.234C161.488 108.349 164.772 99.3914 161.488 93.7342C161.488 93.7342 168.995 94.6771 168.525 87.6056C168.056 80.5341 164.303 74.4055 158.203 71.5769C152.104 68.7483 151.43 68.2964 151.43 68.2964L160.08 84.3056V88.5485C160.08 88.5485 144.766 78.727 129.615 77.9085C124.672 77.6813 119.819 79.2867 115.977 82.4196L115.976 82.4199V75.8198Z" fill="#FFB8B8"/>
<path d="M103.986 257.047C103.986 257.047 110.644 260.196 112.602 261.376C114.56 262.557 122.393 260.196 120.826 267.279C119.26 274.362 112.602 281.052 112.602 281.052C112.602 281.052 109.469 284.593 109.469 286.954C109.469 289.315 101.636 307.417 92.2368 306.63C82.8375 305.843 84.4041 296.398 84.4041 296.398L86.3622 286.167C86.3622 286.167 90.2786 268.853 91.0619 269.246C91.8452 269.64 93.8033 272.394 93.8033 272.394C93.8033 272.394 103.594 268.459 103.986 257.047Z" fill="#D0CDE1"/>
<path d="M201.629 245.261C201.629 245.261 194.971 248.41 193.013 249.59C191.055 250.771 183.222 248.41 184.789 255.493C186.355 262.576 193.013 269.266 193.013 269.266C193.013 269.266 196.146 272.807 196.146 275.168C196.146 277.529 203.979 295.631 213.378 294.844C222.777 294.057 221.211 284.612 221.211 284.612L219.253 274.381C219.253 274.381 215.336 257.067 214.553 257.46C213.77 257.854 211.812 260.608 211.812 260.608C211.812 260.608 202.021 256.673 201.629 245.261Z" fill="#D0CDE1"/>
</svg>
