<svg width="396" height="371" viewBox="0 0 396 371" fill="none" xmlns="http://www.w3.org/2000/svg">
<path opacity="0.71" d="M136.342 256.819C96.4574 233.438 55.9737 208.437 28.2775 171.399C-0.646856 132.718 -12.0308 75.6213 16.5498 36.6851C40.5574 3.97853 87.0701 -6.61613 126.226 3.93183C165.382 14.4798 197.703 42.6475 222.563 74.7095C215.101 35.8511 256.724 -0.508015 296.018 3.85184C335.312 8.21169 366.088 43.4087 375.697 81.7919C385.305 120.175 377.496 160.821 365.315 198.466C344.81 261.583 312.359 320.16 269.731 371C263.656 359.339 256.24 348.429 247.632 338.493C217.358 303.534 176.227 280.199 136.342 256.819Z" fill="#FBEED9"/>
<path d="M67.9619 297.126C67.9619 297.126 68.2758 290.548 74.7109 291.313L67.9619 297.126Z" fill="#E6E6E6"/>
<path d="M66.1445 290.867C67.9233 290.867 69.3652 289.425 69.3652 287.646C69.3652 285.867 67.9233 284.425 66.1445 284.425C64.3658 284.425 62.9238 285.867 62.9238 287.646C62.9238 289.425 64.3658 290.867 66.1445 290.867Z" fill="#E6E6E6"/>
<path d="M66.5292 293.069H65.6201V299.433H66.5292V293.069Z" fill="#E6E6E6"/>
<path d="M301.607 292.125C301.607 292.125 301.921 285.548 308.356 286.313L301.607 292.125Z" fill="#E6E6E6"/>
<path d="M299.789 285.866C301.568 285.866 303.01 284.424 303.01 282.645C303.01 280.867 301.568 279.425 299.789 279.425C298.01 279.425 296.568 280.867 296.568 282.645C296.568 284.424 298.01 285.866 299.789 285.866Z" fill="#E6E6E6"/>
<path d="M300.174 288.069H299.265V294.433H300.174V288.069Z" fill="#E6E6E6"/>
<path d="M395.495 317.14C283.567 281.708 182.074 283.595 116.642 291.418C45.7541 299.893 0.772179 316.959 0.326272 317.131L0 316.282C0.447234 316.11 45.535 299.004 116.534 290.515C158.297 285.528 200.434 284.45 242.397 287.296C294.492 290.822 345.979 300.55 395.769 316.273L395.495 317.14Z" fill="#3F3D56"/>
<path d="M261.151 308.49C261.151 308.49 261.465 301.912 267.9 302.677L261.151 308.49Z" fill="#3F3D56"/>
<path d="M259.333 302.23C261.112 302.23 262.554 300.789 262.554 299.01C262.554 297.231 261.112 295.789 259.333 295.789C257.554 295.789 256.112 297.231 256.112 299.01C256.112 300.789 257.554 302.23 259.333 302.23Z" fill="#F9A826"/>
<path d="M259.718 304.433H258.809V310.797H259.718V304.433Z" fill="#3F3D56"/>
<path d="M111.535 112.969C119.464 108.574 127.519 103.865 133.122 96.7377C138.973 89.2945 141.471 78.1618 136.048 70.4008C131.493 63.8814 122.422 61.5892 114.695 63.4732C106.969 65.3573 100.5 70.7251 95.4762 76.8905C97.1201 69.3125 89.1279 61.9956 81.4028 62.6667C73.6777 63.3378 67.4794 70.0899 65.4168 77.5647C63.3541 85.0396 64.6962 93.0389 66.9095 100.471C70.6362 112.931 76.7267 124.558 84.8486 134.717C86.094 132.461 87.599 130.358 89.333 128.451C95.432 121.743 103.605 117.364 111.535 112.969Z" fill="url(#paint0_linear)"/>
<path d="M84.1252 135.08C73.7485 123.639 66.1485 109.96 61.9153 95.1057C59.7396 87.3895 58.4651 78.6164 61.7256 71.0036C64.2475 65.1155 69.6223 59.7882 76.285 59.295C83.3163 58.7745 91.1219 65.2856 89.6157 72.731C89.5032 73.287 90.2356 73.8736 90.6692 73.3442C96.2973 66.4748 104.034 60.147 113.253 59.5267C121.464 58.9742 130.09 63.0776 132.482 71.4192C134.973 80.1076 130.675 89.2994 124.655 95.4431C117.978 102.258 109.285 106.51 101.081 111.151C93.0086 115.718 84.7982 120.992 79.8331 129.065C77.4742 132.799 76.0164 137.03 75.5751 141.425C75.1852 145.961 76.3199 150.249 78.5158 154.205C80.8482 158.406 83.7325 162.236 85.8387 166.574C87.9102 170.861 89.4858 175.371 90.5351 180.016C92.6544 189.273 92.6684 198.889 90.576 208.153C86.7056 225.037 75.4126 239.897 60.3832 248.445C58.5671 249.476 56.7003 250.415 54.7897 251.257C54.0493 251.585 54.69 252.671 55.426 252.346C63.3872 248.773 70.5441 243.627 76.4667 237.219C82.3893 230.81 86.9555 223.27 89.8908 215.053C96.2495 197.002 93.8118 176.204 83.6399 160.023C80.9777 155.788 77.9024 151.681 77.0258 146.636C76.2225 142.012 77.2118 137.189 79.1639 132.971C83.3447 123.939 91.6313 118.067 100.001 113.221C108.37 108.376 117.309 104.181 124.4 97.4608C130.714 91.4788 135.371 82.9434 134.278 74.0015C133.826 69.9152 131.924 66.1264 128.916 63.3236C125.884 60.6571 122.123 58.9605 118.117 58.4525C109.18 57.1926 100.803 61.4326 94.4335 67.4262C92.7747 68.9995 91.2196 70.6786 89.7778 72.4529L90.8313 73.0661C92.1909 66.3458 86.8487 60.1718 80.5934 58.4721C73.7909 56.6237 67.0475 60.6005 63.1276 65.9918C58.2314 72.726 57.8309 81.3621 59.2621 89.3023C60.7468 97.5391 63.8204 105.603 67.5538 113.071C71.7161 121.381 76.9913 129.085 83.2337 135.971C83.7795 136.574 84.6689 135.68 84.1251 135.08L84.1252 135.08Z" fill="#3F3D56"/>
<path d="M84.7021 312.426L80.2028 313.703L62.5254 257.409L75.4972 255.173L84.7021 312.426Z" fill="#9F616A"/>
<path d="M31.8965 312.75L27.4473 311.796L38.9568 254.109L51.4722 258.186L31.8965 312.75Z" fill="#9F616A"/>
<path d="M79.2803 323.361C80.5122 323.924 81.5441 320.439 82.5833 321.46C85.4899 324.317 92.4628 323.676 92.4628 323.676C92.6969 323.601 92.9133 323.479 93.0989 323.318C93.2845 323.156 93.4354 322.959 93.5425 322.738C93.6495 322.516 93.7106 322.276 93.7218 322.03C93.7331 321.784 93.6944 321.539 93.6081 321.309C93.5047 321.033 93.336 320.787 93.1164 320.591C92.8968 320.395 92.633 320.255 92.3475 320.184L89.2562 319.411L84.4025 310.875L79.1129 310.206L78.9793 310.424C77.9567 312.072 77.2974 313.92 77.0453 315.843C76.7933 317.766 76.9543 319.721 77.5177 321.577C77.9576 322.986 78.5564 323.031 79.2803 323.361Z" fill="#2F2E41"/>
<path d="M25.4338 320.878C26.5423 321.656 28.1936 318.419 29.0287 319.613C31.3644 322.952 38.3368 323.597 38.3368 323.597C38.5807 323.566 38.8158 323.485 39.0277 323.361C39.2397 323.236 39.4241 323.07 39.5698 322.871C39.7156 322.673 39.8196 322.448 39.8756 322.208C39.9315 321.969 39.9383 321.721 39.8955 321.478C39.8443 321.189 39.7234 320.916 39.5433 320.683C39.3633 320.45 39.1293 320.265 38.8617 320.142L35.9637 318.818L32.7518 309.538L27.6735 307.914L27.5022 308.104C26.1957 309.537 25.2099 311.233 24.6106 313.078C24.0114 314.922 23.8125 316.874 24.0272 318.801C24.2021 320.268 24.7826 320.421 25.4338 320.878Z" fill="#2F2E41"/>
<path d="M69.7096 214.529C72.0787 218.172 74.3751 221.852 75.3911 226.039C77.8477 236.289 79.6018 246.695 80.6413 257.184C72.4101 261.907 65.269 264.618 58.2931 265.085C57.9687 265.107 57.6448 265.122 57.3212 265.134L54.7781 250.777L52.7495 264.976C51.7451 264.869 50.739 264.717 49.7282 264.513C45.3551 263.636 40.9026 261.843 36.1451 259.091C34.4395 252.307 33.7234 245.312 34.0189 238.322C34.4098 228.976 36.5233 220.973 38.5699 214.547L69.7096 214.529Z" fill="#2F2E41"/>
<path d="M52.238 172.2L41.0557 168.398C45.101 164.437 46.7532 160.089 45.0813 155.203L57.6056 157.439C54.6338 163.167 50.7427 166.615 52.238 172.2Z" fill="#9F616A"/>
<path d="M69.7102 214.529C59.5381 222.62 49.182 223.553 38.5706 214.547C42.8483 201.117 34.1213 188.487 35.3925 178.953C36.1857 173.005 38.6596 165.637 44.4119 163.924L50.5901 165.811C52.7331 166.465 54.6724 167.659 56.2221 169.277C57.7719 170.895 58.8802 172.884 59.441 175.053L60.172 177.898C63.7092 181.661 64.8883 186.606 63.9698 192.609C64.7452 194.312 64.3893 196.461 64.0333 198.612C63.6965 200.659 63.3596 202.709 63.9952 204.377C65.363 207.965 67.5664 211.232 69.7102 214.529" fill="#E6E6E6"/>
<path d="M54.4743 162.583C60.0325 162.583 64.5384 158.077 64.5384 152.519C64.5384 146.96 60.0325 142.455 54.4743 142.455C48.916 142.455 44.4102 146.96 44.4102 152.519C44.4102 158.077 48.916 162.583 54.4743 162.583Z" fill="#9F616A"/>
<path d="M89.0325 209.822L81.9824 207.514L82.4967 201.857L90.2378 201.685C90.8484 201.671 91.4546 201.792 92.0135 202.038C92.5724 202.285 93.0704 202.651 93.4723 203.111C93.8743 203.57 94.1703 204.113 94.3396 204.7C94.5088 205.287 94.5472 205.904 94.4519 206.507C94.3577 207.104 94.1351 207.673 93.7994 208.175C93.4637 208.677 93.0229 209.101 92.5076 209.416C91.9923 209.731 91.4147 209.93 90.8147 210.001C90.2147 210.071 89.6066 210.01 89.0325 209.822Z" fill="#9F616A"/>
<path opacity="0.2" d="M75.3916 226.039C72.4774 224.673 65.8447 221.227 56.2628 214.245C43.0675 204.628 46.4235 181.146 46.4235 181.146L64.0332 198.612C63.6963 200.659 63.3595 202.709 63.9951 204.377C66.8744 211.928 73.4562 218.062 75.3916 226.039Z" fill="black"/>
<path d="M83.3252 209.325C73.7777 211.44 65.9669 212.709 59.6186 208.207C49.5506 196.498 43.8285 184.742 45.9702 172.905C46.169 171.838 46.6658 170.85 47.4031 170.055C48.1405 169.259 49.0881 168.689 50.1363 168.41C51.5119 168.038 52.9764 168.188 54.248 168.831C55.5196 169.474 56.5085 170.565 57.0244 171.893L64.6309 197.386L84.335 201.199L83.3252 209.325Z" fill="#2F2E41"/>
<path d="M68.3618 234.596C67.2414 234.595 66.155 234.212 65.2811 233.51C64.4072 232.809 63.798 231.832 63.5536 230.738L62.9678 228.101L72.5855 225.964L73.1711 228.601C73.4544 229.877 73.2195 231.212 72.5181 232.315C71.8166 233.417 70.7061 234.195 69.4307 234.479C69.0798 234.557 68.7213 234.596 68.3618 234.596ZM63.726 228.584L64.174 230.6C64.4208 231.711 65.0988 232.678 66.0587 233.289C67.0187 233.9 68.182 234.105 69.2928 233.858C70.4036 233.611 71.3708 232.933 71.9818 231.973C72.5927 231.013 72.7972 229.85 72.5504 228.739L72.1026 226.723L63.726 228.584Z" fill="#3F3D56"/>
<path d="M64.5015 148.312C64.5015 148.312 66.1171 135.739 52.9346 139.862C52.9346 139.862 43.5196 138.134 40.432 149.911L37.3057 162.256L38.8293 161.427L39.5396 162.979L42.0086 163.605L43.0651 161.508L43.5762 164.054L63.7986 166.07C63.7986 166.07 54.7414 160.714 54.5978 151.114L56.323 152.937L64.5015 148.312Z" fill="#2F2E41"/>
<path d="M132.118 132.943H154.629L151.958 156.6L132.118 156.107V132.943Z" fill="#2F2E41"/>
<path d="M125.6 186.292C118.841 188.706 123.186 212.846 123.186 212.846L128.98 240.849L134.291 278.99L142.981 277.541L140.084 247.608L138.636 210.915L151.189 242.78L160.362 278.024L169.052 276.093L167.121 263.54C166.638 254.85 160.362 236.986 160.362 236.986L153.12 186.775L125.6 186.292Z" fill="#2F2E41"/>
<path d="M167.081 273.427C167.081 273.427 170.343 285.993 170.259 287.439L170.257 287.482C170.208 288.138 169.95 288.762 169.521 289.261C169.092 289.76 168.515 290.108 167.873 290.255C166.488 290.583 164.656 291.027 163.675 291.305C162.746 291.569 158.204 293.06 154.886 291.901C151.568 290.742 161.909 284.763 161.909 284.763L160.943 273.012L167.081 273.427Z" fill="#2F2E41"/>
<path d="M141.9 276.849C141.9 276.849 142.736 289.385 142.378 290.789C142.02 292.192 141.203 291.485 141.203 291.485C141.203 291.485 136.788 291.634 135.014 291.784C134.052 291.865 129.309 292.461 126.274 290.689C123.238 288.917 135.014 284.542 135.014 284.542L135.829 273.305L141.9 276.849Z" fill="#2F2E41"/>
<path d="M142.981 146.22C148.047 146.22 152.154 142.113 152.154 137.046C152.154 131.98 148.047 127.873 142.981 127.873C137.915 127.873 133.808 131.98 133.808 137.046C133.808 142.113 137.915 146.22 142.981 146.22Z" fill="#FFB8B8"/>
<path d="M140.085 143.323L142.016 156.841L150.224 152.979L148.292 142.357L140.085 143.323Z" fill="#FFB8B8"/>
<path d="M142.498 151.53L140.883 148.913L139.119 151.047L131.394 153.461L129.463 165.049C128.98 167.945 130.428 173.256 130.428 173.256C130.428 173.256 125.118 183.878 125.6 187.74C126.083 191.603 150.706 190.154 150.706 190.154L157.948 151.53L151.672 149.599L149.74 147.185L143.947 150.082L142.981 153.944L142.498 151.53Z" fill="#E6E6E6"/>
<path d="M153.665 130.089C153.665 129.714 153.591 129.343 153.448 128.997C153.304 128.651 153.094 128.336 152.829 128.071C152.564 127.806 152.25 127.596 151.903 127.453C151.557 127.31 151.186 127.236 150.812 127.236H137.055C136.097 127.236 135.178 127.616 134.501 128.294C133.824 128.971 133.443 129.89 133.443 130.847V136.393C140.034 133.055 146.801 133.641 153.665 136.393V130.089Z" fill="#2F2E41"/>
<path d="M122.206 221.116C118.88 219.167 115.504 217.084 113.194 213.998C110.782 210.775 109.833 206.018 112.216 202.774C114.218 200.049 118.097 199.166 121.362 200.045C124.628 200.924 127.323 203.271 129.396 205.942C128.774 202.704 132.245 199.675 135.522 200.038C138.799 200.401 141.366 203.334 142.167 206.532C142.968 209.73 142.317 213.117 141.301 216.254C139.591 221.513 136.885 226.393 133.33 230.629C132.823 229.658 132.205 228.749 131.487 227.921C128.962 225.008 125.532 223.064 122.206 221.116Z" fill="#F9A826"/>
<path d="M143.464 189.189L135.256 197.396C135.256 197.396 128.014 207.052 131.394 208.984C134.773 210.915 139.118 199.81 139.118 199.81L149.257 192.568L143.464 189.189Z" fill="#FFB8B8"/>
<path d="M124.152 189.672L123.669 194.5C123.669 194.5 127.532 202.224 124.635 204.638C121.738 207.052 119.324 194.982 119.324 194.982L120.29 189.189L124.152 189.672Z" fill="#FFB8B8"/>
<path d="M153.12 164.566L150.706 178.567L141.05 189.672L150.223 194.017C150.223 194.017 156.982 183.878 159.396 180.498C161.81 177.119 162.776 159.738 161.81 155.875C160.845 152.013 157.948 151.53 157.948 151.53L156.499 152.496L153.12 164.566Z" fill="#E6E6E6"/>
<path d="M132.36 170.842L128.498 180.981L124.635 191.12L117.876 190.637C117.876 190.637 122.704 180.981 122.221 179.533C121.738 178.084 127.049 161.186 128.015 157.807C128.98 154.427 131.394 153.462 131.394 153.462L135.257 154.427L132.36 170.842Z" fill="#E6E6E6"/>
<path d="M155.152 151.442C152.988 152.492 150.475 152.55 148.085 152.287C147.36 152.278 146.645 152.126 145.979 151.841C147.883 150.737 148.913 148.579 149.52 146.463C149.835 145.362 150.067 144.239 150.212 143.103C150.335 142.124 150.543 141.158 150.833 140.215C151.196 139.043 151.302 137.806 151.144 136.589C150.985 135.373 150.566 134.205 149.915 133.165C149.263 132.125 148.395 131.238 147.369 130.565C146.343 129.892 145.184 129.448 143.971 129.264C142.758 129.08 141.52 129.16 140.34 129.498C139.161 129.837 138.069 130.426 137.138 131.226C136.207 132.025 135.46 133.016 134.948 134.131C134.436 135.246 134.17 136.459 134.17 137.686C134.238 139.357 134.764 140.977 135.69 142.369C136.355 143.382 137.243 144.228 138.286 144.843C139.329 145.458 140.5 145.825 141.708 145.915C142.043 145.926 142.362 146.063 142.6 146.299C143.403 147.105 142.001 148.727 142.188 149.85C142.424 151.269 142.623 152.861 141.781 154.028C141.313 154.603 140.718 155.061 140.043 155.367C137.428 156.745 134.522 157.476 131.567 157.502C133.261 156.07 134.402 154.09 134.791 151.905C135.163 149.762 134.757 147.557 133.646 145.688C133.79 147.849 133.514 150.018 132.835 152.075C132.479 153.363 131.778 154.531 130.809 155.451C129.797 156.314 128.481 156.737 127.287 156.153C128.525 155.502 129.494 154.435 130.023 153.141C130.543 151.852 130.799 150.472 130.775 149.083C130.863 147.843 130.812 146.596 130.621 145.368C130.035 147.638 128.687 149.638 126.803 151.034C126.302 151.44 125.711 151.721 125.08 151.854C124.778 151.915 124.465 151.893 124.174 151.791C123.883 151.688 123.625 151.509 123.428 151.273C124.397 150.902 125.243 150.267 125.87 149.441C126.497 148.615 126.881 147.629 126.978 146.596C127.065 145.504 126.829 144.35 127.259 143.342C127.706 142.294 128.757 141.664 129.667 140.979C130.577 140.293 131.677 139.216 131.448 138.099C130.743 134.666 131.303 130.78 133.738 128.258C134.198 127.796 134.691 127.368 135.215 126.979C136.095 126.255 137.08 125.668 138.136 125.239C139.202 124.811 140.385 124.773 141.476 125.133C141.568 124.548 141.723 124.572 142.2 124.381C142.818 124.136 143.479 124.015 144.145 124.023C148.751 124.066 153.124 126.777 155.64 130.632C155.969 131.098 156.219 131.616 156.379 132.164C156.477 132.605 156.516 133.057 156.494 133.509C156.452 135.715 155.917 137.899 155.981 140.105C156.045 142.311 156.945 144.695 158.88 145.758C159.034 148.157 157.315 150.393 155.152 151.442Z" fill="#2F2E41"/>
<path d="M151.529 139.826C152.088 139.826 152.541 139.102 152.541 138.208C152.541 137.314 152.088 136.589 151.529 136.589C150.971 136.589 150.518 137.314 150.518 138.208C150.518 139.102 150.971 139.826 151.529 139.826Z" fill="#FFB8B8"/>
<path d="M201.604 296.671C201.604 296.671 201.917 290.094 208.352 290.858L201.604 296.671Z" fill="#3F3D56"/>
<path d="M199.785 290.412C201.564 290.412 203.006 288.97 203.006 287.191C203.006 285.412 201.564 283.97 199.785 283.97C198.006 283.97 196.564 285.412 196.564 287.191C196.564 288.97 198.006 290.412 199.785 290.412Z" fill="#F9A826"/>
<path d="M200.171 292.615H199.262V298.979H200.171V292.615Z" fill="#3F3D56"/>
<path d="M143.874 307.126C143.874 307.126 144.188 300.549 150.623 301.313L143.874 307.126Z" fill="#3F3D56"/>
<path d="M142.056 300.867C143.834 300.867 145.276 299.425 145.276 297.646C145.276 295.868 143.834 294.426 142.056 294.426C140.277 294.426 138.835 295.868 138.835 297.646C138.835 299.425 140.277 300.867 142.056 300.867Z" fill="#F9A826"/>
<path d="M142.441 303.07H141.532V309.434H142.441V303.07Z" fill="#3F3D56"/>
<path d="M240.646 271.687C240.646 271.687 238.517 279.021 237.098 280.913C235.679 282.806 234.496 285.881 235.205 286.354C235.915 286.828 237.335 292.505 235.442 292.742C233.549 292.978 229.291 286.591 229.055 284.462C228.818 282.333 227.872 274.763 227.872 274.763C227.872 274.763 226.216 268.139 228.818 267.666C231.42 267.192 235.442 266.956 235.442 266.956L240.646 271.687Z" fill="#2F2E41"/>
<path d="M250.582 279.494C250.582 279.494 253.658 287.537 254.367 288.01C255.077 288.484 257.679 292.742 252.475 292.742C247.27 292.742 244.431 291.322 244.431 291.322L242.775 289.43C242.775 289.43 242.775 284.462 243.249 283.752C243.722 283.042 243.249 279.494 243.249 279.494H250.582Z" fill="#2F2E41"/>
<path d="M271.636 205.922C271.636 205.922 275.421 231.471 272.109 239.751C268.797 248.031 265.485 250.396 265.485 250.396L240.409 273.816C240.409 273.816 232.603 269.795 233.312 267.193C233.312 267.193 234.968 266.246 235.205 265.537C235.441 264.827 238.517 264.59 238.517 264.59C238.517 264.59 239.936 262.934 239.936 261.988C239.936 261.042 252.238 244.246 256.259 243.063C256.259 243.063 258.388 240.46 258.152 239.987C257.915 239.514 258.862 237.858 258.862 237.858L256.496 228.632L241.592 226.266C241.592 226.266 235.441 204.502 240.646 202.846C245.85 201.19 271.636 205.922 271.636 205.922Z" fill="#2F2E41"/>
<path d="M242.065 222.481L241.592 226.266C241.592 226.266 241.592 236.202 242.065 237.149C242.538 238.095 242.775 239.514 242.065 240.461C241.355 241.407 240.173 243.772 240.646 244.719C241.119 245.665 239.699 272.397 241.592 274.29C243.485 276.182 242.775 278.548 242.538 278.785C242.302 279.021 242.775 279.967 242.775 279.967C242.775 279.967 252.474 281.623 251.764 279.967C251.055 278.311 251.055 277.365 250.582 276.892C250.108 276.419 250.582 275.709 250.582 275.709C250.582 275.709 249.872 268.139 250.582 267.666C251.291 267.193 253.42 244.482 253.42 244.246C253.42 244.009 254.13 243.536 254.13 242.59C254.13 241.643 254.13 238.568 255.313 238.095C256.496 237.622 256.259 226.03 256.259 226.03L242.065 222.481Z" fill="#2F2E41"/>
<path d="M258.862 138.027C258.862 138.027 257.916 145.124 255.077 146.543C252.238 147.962 250.346 148.672 250.346 148.672L252.711 156.952L253.658 164.049H264.54L270.454 159.318L268.561 151.511L267.615 150.092C267.615 150.092 266.432 144.887 267.379 143.231C268.325 141.575 258.862 138.027 258.862 138.027Z" fill="#9F616A"/>
<path d="M263.593 155.296L261.937 158.372C261.937 158.372 260.754 154.113 259.098 153.404C257.442 152.694 253.421 151.511 253.421 150.565C253.421 149.619 253.657 147.253 252.711 147.253C251.765 147.253 242.539 150.092 241.119 151.038C239.7 151.984 239.463 152.931 239.463 152.931L242.066 180.136C242.066 180.136 238.281 192.91 239.463 197.878C240.646 202.846 241.592 203.556 244.431 204.266C247.27 204.975 245.614 202.61 253.894 204.975C262.174 207.341 267.378 206.631 269.271 206.631C270.543 206.676 271.775 207.087 272.819 207.814C273.293 208.051 273.056 206.631 271.4 204.502C269.744 202.373 270.454 198.825 270.454 198.825C270.454 198.825 272.346 192.674 271.163 190.308C269.981 187.943 268.325 184.867 269.744 183.921C271.163 182.975 273.056 175.878 273.056 175.878L278.26 157.425L267.615 150.092C267.615 150.092 268.088 153.404 266.432 154.113C264.776 154.823 263.593 155.296 263.593 155.296Z" fill="#E6E6E6"/>
<path d="M276.84 157.189H278.26C278.26 157.189 280.626 161.21 280.626 164.049C280.626 166.888 279.443 182.975 279.443 182.975L272.582 190.072L270.926 184.631L270.453 172.566L276.84 157.189Z" fill="#E6E6E6"/>
<path d="M273.056 182.265C273.056 182.265 280.863 180.136 280.626 183.448C280.39 186.76 279.207 190.781 275.422 191.728C271.637 192.674 270.454 187.469 270.454 187.469C270.454 187.469 269.981 182.738 273.056 182.265Z" fill="#E6E6E6"/>
<path d="M243.722 193.147C243.722 193.147 244.195 204.029 247.034 205.212L240.173 206.868C240.173 206.868 236.861 195.513 237.334 195.039C237.807 194.566 243.722 193.147 243.722 193.147Z" fill="#9F616A"/>
<path opacity="0.1" d="M241.947 156.124L240.41 153.877C240.41 153.877 234.732 162.63 235.205 168.544C235.678 174.458 236.151 174.694 236.151 175.641C236.151 176.587 237.334 176.587 236.151 177.77C234.969 178.953 233.313 180.609 234.259 181.555C235.205 182.501 235.915 182.501 235.678 183.684C235.527 184.543 235.448 185.414 235.442 186.286C235.442 186.286 237.453 190.19 238.162 190.19C238.872 190.19 245.614 196.459 245.614 195.749C245.614 195.039 244.904 190.071 244.904 189.362C244.904 188.652 244.668 186.286 244.195 185.577C243.722 184.867 243.722 185.103 244.195 184.394C244.668 183.684 244.668 184.394 244.668 183.684C244.668 182.974 244.431 182.028 245.141 181.791C245.851 181.555 246.56 181.791 246.087 180.609C245.614 179.426 246.087 178.48 246.324 178.48C246.56 178.48 247.743 178.243 247.034 177.533C246.324 176.824 248.453 163.103 248.453 163.103C248.453 163.103 248.098 159.672 241.947 156.124Z" fill="black"/>
<path d="M243.249 151.038L239.227 152.93C239.227 152.93 233.549 161.683 234.023 167.598C234.496 173.512 234.969 173.748 234.969 174.695C234.969 175.641 236.152 175.641 234.969 176.824C233.786 178.007 232.13 179.663 233.076 180.609C234.023 181.555 234.732 181.555 234.496 182.738C234.344 183.597 234.265 184.468 234.259 185.34C234.259 185.34 236.388 196.695 237.098 196.695C237.808 196.695 244.432 195.513 244.432 194.803C244.432 194.093 243.722 189.125 243.722 188.416C243.722 187.706 243.485 185.34 243.012 184.63C242.539 183.921 242.539 184.157 243.012 183.448C243.485 182.738 243.485 183.448 243.485 182.738C243.485 182.028 243.249 181.082 243.958 180.845C244.668 180.609 245.378 180.845 244.905 179.663C244.432 178.48 244.905 177.533 245.141 177.533C245.378 177.533 246.561 177.297 245.851 176.587C245.141 175.877 247.27 162.157 247.27 162.157C247.27 162.157 249.399 154.586 243.249 151.038Z" fill="#E6E6E6"/>
<path d="M265.485 144.65C270.32 144.65 274.238 140.732 274.238 135.897C274.238 131.063 270.32 127.144 265.485 127.144C260.651 127.144 256.732 131.063 256.732 135.897C256.732 140.732 260.651 144.65 265.485 144.65Z" fill="#9F616A"/>
<path d="M268.702 130.857C269.794 131.233 270.921 131.5 272.067 131.651C272.929 131.786 273.938 131.854 274.544 131.227C275.138 130.61 275.042 129.583 274.636 128.829C274.231 128.074 273.581 127.483 273.094 126.779C272.327 125.672 271.875 124.204 270.649 123.646C270.141 123.452 269.602 123.351 269.058 123.349C265.878 123.147 262.567 122.964 259.622 124.181C258.515 124.603 257.534 125.3 256.773 126.208C256.275 126.876 255.89 127.622 255.635 128.415C254.848 130.75 254.672 133.248 255.126 135.671C255.58 138.093 256.648 140.358 258.227 142.25C259.3 141.283 258.833 139.048 260.192 138.555C260.637 138.393 261.141 138.506 261.597 138.378C263.032 137.976 262.96 135.759 264.154 134.868C264.415 134.727 264.646 134.538 264.834 134.309C264.939 134.09 264.985 133.847 264.966 133.604C264.975 132.774 264.585 130.664 265.377 130.095C266.184 129.515 267.927 130.577 268.702 130.857Z" fill="#2F2E41"/>
<path d="M262.968 90.8109C255.145 86.2291 247.205 81.3298 241.773 74.0716C236.1 66.4915 233.867 55.3027 239.473 47.6726C244.181 41.2633 253.304 39.1871 260.984 41.2541C268.664 43.3212 275.003 48.841 279.879 55.124C278.416 47.5092 286.579 40.3841 294.286 41.2385C301.993 42.0928 308.029 48.9902 309.914 56.5119C311.799 64.0337 310.267 71.9989 307.878 79.3759C303.856 91.7446 297.491 103.224 289.13 113.186C287.939 110.901 286.484 108.763 284.796 106.816C278.858 99.9654 270.791 95.3927 262.968 90.8109Z" fill="url(#paint1_linear)"/>
<path d="M289.845 113.566C300.49 102.375 308.413 88.8806 312.998 74.131C315.356 66.4686 316.838 57.7283 313.76 50.0402C311.378 44.0939 306.132 38.6404 299.482 37.9891C292.465 37.3018 284.507 43.6257 285.836 51.1047C285.936 51.6633 285.19 52.2323 284.769 51.6928C279.305 44.6916 271.721 38.1819 262.519 37.3429C254.323 36.5955 245.603 40.4929 243.013 48.7753C240.316 57.4021 244.395 66.6934 250.267 72.9784C256.781 79.9503 265.37 84.4069 273.462 89.242C281.424 93.9994 289.506 99.4666 294.278 107.655C296.548 111.444 297.905 115.709 298.242 120.113C298.524 124.657 297.287 128.917 294.998 132.819C292.567 136.964 289.592 140.724 287.384 145.011C285.211 149.248 283.529 153.719 282.369 158.337C280.031 167.542 279.788 177.155 281.66 186.466C285.129 203.437 296.066 218.561 310.888 227.464C312.679 228.537 314.523 229.52 316.413 230.408C317.145 230.753 316.479 231.824 315.751 231.481C307.877 227.72 300.844 222.406 295.075 215.858C289.307 209.311 284.921 201.665 282.181 193.38C276.253 175.183 279.184 154.449 289.738 138.514C292.5 134.343 295.671 130.311 296.668 125.287C297.581 120.684 296.706 115.839 294.855 111.576C290.89 102.447 282.745 96.3802 274.492 91.3368C266.241 86.2947 257.404 81.8878 250.474 75.0015C244.305 68.8713 239.852 60.2276 241.157 51.3142C241.705 47.2398 243.697 43.4972 246.77 40.7667C249.865 38.173 253.666 36.5661 257.682 36.1534C266.647 35.1061 274.921 39.5439 281.146 45.687C282.767 47.2993 284.282 49.0148 285.681 50.8228L284.613 51.4109C283.414 44.6602 288.901 38.6148 295.195 37.0641C302.039 35.3778 308.686 39.5136 312.477 44.9964C317.212 51.845 317.407 60.4882 315.788 68.3922C314.108 76.5915 310.844 84.5803 306.934 91.9572C302.576 100.166 297.119 107.743 290.715 114.479C290.155 115.068 289.287 114.154 289.845 113.566L289.845 113.566Z" fill="#3F3D56"/>
<path d="M279.146 183.954C279.366 184.013 279.6 183.993 279.807 183.9C280.015 183.806 280.184 183.643 280.286 183.44C281.373 181.266 287.767 176.378 281.573 174.695C277.433 173.57 276.783 179.453 275.862 181.786C275.804 181.934 275.777 182.093 275.784 182.253C275.792 182.412 275.833 182.568 275.905 182.71C275.977 182.852 276.078 182.977 276.202 183.077C276.326 183.178 276.47 183.25 276.624 183.291L279.146 183.954Z" fill="#9F616A"/>
<path d="M297.791 228.214C298.238 228.599 298.765 228.88 299.334 229.035C299.903 229.19 300.499 229.216 301.079 229.11C301.659 229.005 302.209 228.771 302.687 228.426C303.165 228.081 303.559 227.633 303.842 227.115L308.01 219.479L304.858 216.866L297.986 222.072C297.517 222.428 297.133 222.884 296.862 223.407C296.592 223.93 296.442 224.508 296.423 225.096C296.404 225.685 296.517 226.271 296.754 226.81C296.991 227.35 297.345 227.829 297.791 228.214Z" fill="#FFB9B9"/>
<path d="M302.672 217.566L307.539 221.491L334.075 200.922L332.505 165.123C331.013 166.317 329.772 167.795 328.854 169.471C327.937 171.148 327.361 172.989 327.159 174.89L322.613 195.113L302.672 217.566Z" fill="#64743F"/>
<path d="M353.858 300.785H360.453L361.081 243.003H347.892L353.858 300.785Z" fill="#FFB9B9"/>
<path d="M337.529 303.925H344.124L344.752 242.375L331.562 241.747L337.529 303.925Z" fill="#FFB9B9"/>
<path d="M329.05 248.027L345.38 248.655L346.008 245.201L346.95 249.912L362.024 249.284C362.021 234.01 361.695 217.134 363.594 211.286L328.736 214.74C325.991 226.573 325.653 237.784 329.05 248.027Z" fill="#2F2E41"/>
<path d="M357.656 315.858C361.181 315.858 363.944 317.227 363.623 313.716L362.71 301.847C362.693 301.344 362.529 300.857 362.24 300.446C361.951 300.034 361.548 299.715 361.081 299.529C358.569 296.584 356.056 296.27 353.544 298.586C352.727 299.607 352.251 300.859 352.182 302.165L351.671 313.953C351.494 317.38 354.225 315.858 357.656 315.858Z" fill="#2F2E41"/>
<path d="M325.465 316.025L342.226 315.581C342.92 315.485 343.554 315.135 344.006 314.6C344.458 314.065 344.696 313.381 344.675 312.681L344.991 304.491C345.011 304.087 344.873 303.692 344.606 303.388C344.339 303.085 343.964 302.898 343.561 302.867L340.984 302.669C340.678 299.865 338.971 299.184 336.587 299.529L329.05 308.007L324.084 309.398C323.288 309.621 322.6 310.127 322.151 310.821C321.702 311.516 321.521 312.35 321.644 313.168C321.776 314.051 322.252 314.847 322.968 315.382C323.683 315.916 324.581 316.148 325.465 316.025Z" fill="#2F2E41"/>
<path d="M344.752 153.189C350.128 153.189 354.487 148.831 354.487 143.454C354.487 138.078 350.128 133.719 344.752 133.719C339.375 133.719 335.017 138.078 335.017 143.454C335.017 148.831 339.375 153.189 344.752 153.189Z" fill="#FFB9B9"/>
<path d="M339.727 160.726L356.37 156.016C352.648 154.568 351.211 152.042 351.974 148.479H340.983C342.396 153.846 342.401 158.227 339.727 160.726Z" fill="#FFB9B9"/>
<path d="M327.794 218.822C337.187 220.023 345.841 216.386 354.016 213.641C357.706 212.402 361.424 213.695 364.85 211.6C363.368 197.008 364.807 180.571 367.954 163.055C368.133 162.063 367.946 161.04 367.427 160.176C366.907 159.313 366.092 158.668 365.132 158.361L354.801 155.074L345.694 158.214L340.983 159.156L331.284 165.71C330.717 166.093 330.274 166.63 330.006 167.259C329.738 167.887 329.658 168.58 329.774 169.253C332.688 185.726 332.013 202.634 327.794 218.822Z" fill="#64743F"/>
<path d="M354.173 213.798L357.313 221.963L360.454 217.252L356.371 213.17L354.173 213.798Z" fill="#FFB9B9"/>
<path d="M335.41 139.983C339.195 137.554 342.97 136.754 346.735 137.437C347.88 137.651 348.969 138.098 349.934 138.75C350.9 139.402 351.721 140.245 352.347 141.228C352.973 142.211 353.391 143.311 353.574 144.462C353.757 145.612 353.701 146.788 353.411 147.917L353.387 148.008L353.95 146.95C355.442 144.146 355.952 140.922 355.396 137.794C354.97 135.392 353.687 133.226 351.785 131.698C349.883 130.171 347.491 129.385 345.054 129.486L342.936 129.575C340.499 129.676 338.18 130.651 336.403 132.322C334.626 133.993 333.51 136.248 333.259 138.674C333.233 138.936 333.281 139.2 333.398 139.436C333.515 139.672 333.697 139.87 333.922 140.007C334.147 140.144 334.406 140.214 334.669 140.21C334.932 140.206 335.189 140.127 335.41 139.983Z" fill="#2F2E41"/>
<path d="M355.743 213.17L360.14 218.822L375.527 195.898L374.196 172.608C374.027 169.642 373.11 166.767 371.531 164.25C369.951 161.733 367.761 159.657 365.164 158.214L365.478 194.014L355.743 213.17Z" fill="#64743F"/>
<defs>
<linearGradient id="paint0_linear" x1="101.722" y1="134.717" x2="101.722" y2="62.6238" gradientUnits="userSpaceOnUse">
<stop stop-color="#86007F"/>
<stop offset="0.2" stop-color="#0200F7"/>
<stop offset="0.4" stop-color="#02811A"/>
<stop offset="0.6" stop-color="#FEFF42"/>
<stop offset="0.8" stop-color="#FFA42B"/>
<stop offset="1" stop-color="#FA061C"/>
</linearGradient>
<linearGradient id="paint1_linear" x1="-70064.4" y1="18142.9" x2="-69790.6" y2="6615.58" gradientUnits="userSpaceOnUse">
<stop stop-color="#64743F"/>
<stop offset="0.2" stop-color="#0200F7"/>
<stop offset="0.4" stop-color="#02811A"/>
<stop offset="0.6" stop-color="#FEFF42"/>
<stop offset="0.8" stop-color="#FFA42B"/>
<stop offset="1" stop-color="#FA061C"/>
</linearGradient>
</defs>
</svg>
