<svg width="432" height="314" viewBox="0 0 432 314" fill="none" xmlns="http://www.w3.org/2000/svg">
<g clip-path="url(#clip0)">
<path opacity="0.1" d="M30.5294 253.521C42.409 253.521 52.0393 250.098 52.0393 245.876C52.0393 241.654 42.409 238.231 30.5294 238.231C18.6498 238.231 9.01953 241.654 9.01953 245.876C9.01953 250.098 18.6498 253.521 30.5294 253.521Z" fill="black"/>
<path opacity="0.1" d="M378.025 285.13C389.904 285.13 399.534 281.707 399.534 277.484C399.534 273.262 389.904 269.839 378.025 269.839C366.145 269.839 356.515 273.262 356.515 277.484C356.515 281.707 366.145 285.13 378.025 285.13Z" fill="black"/>
<path opacity="0.71" d="M254.72 8.80641C221.987 21.445 186.505 22.0327 153.547 10.1348C106.837 -6.72301 45.8352 -11.0378 23.2307 66.2127C-15.3485 198.194 63.5785 245.303 63.5785 245.303C63.5785 245.303 118.682 257.65 149.193 279.96C192.533 311.649 245.61 322.243 295.608 307.382C327.581 297.878 354.985 282.287 362.819 256.775C384.731 185.426 370.821 142.541 410.476 123.729C450.13 104.917 428.066 35.2255 399.864 33.6439C371.662 32.0623 305.221 48.2272 284.667 16.0742C277.339 4.65886 266.13 4.39606 254.72 8.80641Z" fill="#FBEED9"/>
<path d="M377.155 278.569C377.155 278.569 382.891 259.055 376.075 244.691C373.172 238.685 372.296 231.899 373.58 225.353C374.213 222.25 375.13 219.211 376.318 216.275" stroke="#535461" stroke-width="2" stroke-miterlimit="10"/>
<path d="M372.073 207.201C372.073 209.59 376.404 216.528 376.404 216.528C376.404 216.528 380.734 209.595 380.734 207.201C380.734 206.052 380.278 204.95 379.465 204.138C378.653 203.325 377.551 202.869 376.401 202.869C375.252 202.869 374.15 203.325 373.337 204.138C372.525 204.95 372.068 206.052 372.068 207.201H372.073Z" fill="#169E0F"/>
<path d="M364.913 220.451C366.213 222.458 373.622 225.927 373.622 225.927C373.622 225.927 373.488 217.751 372.188 215.744C371.879 215.267 371.478 214.855 371.01 214.533C370.542 214.21 370.015 213.983 369.458 213.864C368.902 213.745 368.328 213.737 367.769 213.84C367.209 213.943 366.676 214.155 366.198 214.464C365.721 214.773 365.309 215.173 364.986 215.641C364.664 216.109 364.436 216.636 364.317 217.192C364.199 217.748 364.19 218.322 364.293 218.881C364.396 219.44 364.608 219.974 364.917 220.451H364.913Z" fill="#169E0F"/>
<path d="M365.224 243.086C367.36 244.161 375.505 243.42 375.505 243.42C375.505 243.42 371.261 236.429 369.124 235.354C368.098 234.837 366.909 234.749 365.818 235.108C364.727 235.467 363.824 236.245 363.307 237.27C362.789 238.296 362.701 239.484 363.06 240.575C363.42 241.665 364.198 242.568 365.224 243.086Z" fill="#169E0F"/>
<path d="M369.32 260.163C371.232 261.597 379.396 262.227 379.396 262.227C379.396 262.227 376.394 254.62 374.473 253.201C373.549 252.518 372.392 252.23 371.256 252.4C370.119 252.569 369.097 253.183 368.414 254.107C367.731 255.03 367.442 256.187 367.612 257.322C367.782 258.458 368.396 259.48 369.32 260.163Z" fill="#169E0F"/>
<path d="M382.714 226.39C380.998 228.058 373.001 229.783 373.001 229.783C373.001 229.783 374.961 221.846 376.677 220.178C377.501 219.378 378.609 218.938 379.758 218.954C380.907 218.971 382.002 219.443 382.802 220.267C383.603 221.091 384.043 222.198 384.027 223.347C384.01 224.495 383.538 225.59 382.714 226.39Z" fill="#169E0F"/>
<path d="M387.25 246.416C385.113 247.491 376.968 246.75 376.968 246.75C376.968 246.75 381.212 239.76 383.349 238.709C384.375 238.192 385.564 238.103 386.655 238.462C387.746 238.822 388.649 239.6 389.166 240.625C389.684 241.65 389.772 242.839 389.413 243.929C389.053 245.02 388.275 245.923 387.25 246.44V246.416Z" fill="#169E0F"/>
<path d="M388.985 266.489C387.073 267.923 378.909 268.554 378.909 268.554C378.909 268.554 381.911 260.947 383.833 259.528C384.756 258.845 385.913 258.556 387.049 258.726C388.186 258.896 389.208 259.51 389.891 260.433C390.574 261.356 390.863 262.513 390.693 263.649C390.523 264.785 389.909 265.806 388.985 266.489Z" fill="#169E0F"/>
<path d="M30.5389 245.933C30.5389 245.933 42.8186 204.305 28.2445 173.628C22.1261 160.761 20.1185 146.321 22.9244 132.358C24.277 125.736 26.2338 119.252 28.7703 112.987" stroke="#535461" stroke-width="2" stroke-miterlimit="10"/>
<path d="M19.703 93.6113C19.703 98.7145 28.9475 113.518 28.9475 113.518C28.9475 113.518 38.1872 98.705 38.1872 93.6113C38.1872 91.1604 37.2132 88.8099 35.4795 87.0768C33.7459 85.3437 31.3945 84.3701 28.9427 84.3701C26.4909 84.3701 24.1396 85.3437 22.4059 87.0768C20.6722 88.8099 19.6982 91.1604 19.6982 93.6113H19.703Z" fill="#169E0F"/>
<path d="M4.42179 121.884C7.19896 126.185 23.0063 133.572 23.0063 133.572C23.0063 133.572 22.7195 116.122 19.9424 111.84C18.5838 109.846 16.4987 108.462 14.1328 107.984C11.7668 107.506 9.30762 107.972 7.28076 109.282C5.25391 110.592 3.82016 112.643 3.28593 114.996C2.75169 117.35 3.15936 119.818 4.42179 121.875V121.884Z" fill="#169E0F"/>
<path d="M5.08603 170.202C9.64612 172.501 27.0309 170.914 27.0309 170.914C27.0309 170.914 17.9489 155.997 13.4127 153.713C12.3287 153.166 11.1475 152.838 9.93677 152.748C8.72599 152.658 7.5093 152.807 6.35614 153.187C5.20299 153.566 4.13596 154.17 3.21599 154.962C2.29601 155.754 1.54111 156.719 0.994367 157.803C0.447627 158.886 0.119764 160.067 0.0294951 161.278C-0.0607734 162.488 0.0883217 163.704 0.468267 164.857C1.2356 167.185 2.89666 169.113 5.08603 170.217V170.202Z" fill="#169E0F"/>
<path d="M13.8093 206.646C17.9153 209.681 35.3192 211.052 35.3192 211.052C35.3192 211.052 28.914 194.806 24.8032 191.786C22.8319 190.329 20.3622 189.714 17.9374 190.077C15.5126 190.44 13.3313 191.751 11.8734 193.721C10.4155 195.692 9.80042 198.161 10.1635 200.585C10.5265 203.009 11.838 205.189 13.8093 206.646Z" fill="#169E0F"/>
<path d="M42.4174 134.542C38.7559 138.097 21.6914 141.781 21.6914 141.781C21.6914 141.781 25.8691 124.837 29.5306 121.282C31.2895 119.572 33.6563 118.629 36.1103 118.663C38.5642 118.696 40.9043 119.703 42.6158 121.462C44.3272 123.22 45.2698 125.586 45.2362 128.039C45.2025 130.492 44.1955 132.831 42.4365 134.542H42.4174Z" fill="#169E0F"/>
<path d="M52.0972 177.312C47.5371 179.611 30.1523 178.024 30.1523 178.024C30.1523 178.024 39.2343 163.107 43.7705 160.823C44.8546 160.276 46.0357 159.948 47.2465 159.858C48.4572 159.768 49.6739 159.917 50.8271 160.297C51.9803 160.677 53.0473 161.28 53.9673 162.072C54.8872 162.864 55.6421 163.829 56.1889 164.913C56.7356 165.997 57.0635 167.177 57.1537 168.388C57.244 169.598 57.0949 170.814 56.715 171.967C56.335 173.12 55.7317 174.186 54.9394 175.106C54.147 176.026 53.1813 176.78 52.0972 177.327V177.312Z" fill="#169E0F"/>
<path d="M55.8019 220.155C51.6959 223.189 34.292 224.56 34.292 224.56C34.292 224.56 40.6972 208.314 44.8079 205.294C46.7793 203.837 49.249 203.222 51.6738 203.585C54.0986 203.948 56.2799 205.259 57.7378 207.229C59.1957 209.2 59.8107 211.669 59.4477 214.093C59.0846 216.517 57.7732 218.697 55.8019 220.155Z" fill="#169E0F"/>
<path d="M181.233 143.248L154.594 139.798C153.514 139.66 152.682 139.249 152.711 138.89C152.758 138.532 153.667 138.365 154.771 138.522L181.352 142.369C182.084 142.474 182.638 142.751 182.605 142.995C182.571 143.224 181.959 143.344 181.233 143.248Z" fill="#169E0F"/>
<path d="M181.4 143.702L154.68 140.94C153.595 140.83 152.672 141.031 152.639 141.389C152.605 141.748 153.47 142.125 154.551 142.221L181.319 144.61C182.055 144.677 182.657 144.534 182.681 144.29C182.7 144.032 182.131 143.779 181.4 143.702Z" fill="#169E0F"/>
<path d="M221.485 163.795L248.12 160.345C249.2 160.206 250.032 159.795 250.003 159.437C249.955 159.079 249.047 158.911 247.943 159.069L221.361 162.915C220.63 163.021 220.075 163.298 220.109 163.541C220.142 163.771 220.754 163.89 221.485 163.795Z" fill="#169E0F"/>
<path d="M221.313 164.249L248.033 161.487C249.118 161.377 250.04 161.578 250.074 161.936C250.107 162.294 249.242 162.672 248.162 162.767L221.394 165.157C220.658 165.223 220.056 165.08 220.032 164.836C220.013 164.578 220.581 164.325 221.313 164.249Z" fill="#169E0F"/>
<path d="M133.376 192.393H126.88V285.502H133.376V192.393Z" fill="#40414D"/>
<path d="M275.255 192.393H268.759V285.502H275.255V192.393Z" fill="#40414D"/>
<path d="M124.399 184.814H274.49C277.279 184.814 279.954 185.922 281.926 187.893C283.898 189.865 285.006 192.539 285.006 195.327V196.722H113.883V195.327C113.883 192.539 114.991 189.865 116.963 187.893C118.935 185.922 121.61 184.814 124.399 184.814Z" fill="#DFE6F5"/>
<path opacity="0.1" d="M123.921 184.814H274.012C276.801 184.814 279.476 185.922 281.448 187.893C283.421 189.865 284.528 192.539 284.528 195.327V196.722H113.405V195.327C113.405 192.539 114.513 189.865 116.485 187.893C118.457 185.922 121.132 184.814 123.921 184.814Z" fill="black"/>
<path d="M124.399 182.645H274.49C277.279 182.645 279.954 183.753 281.926 185.724C283.898 187.695 285.006 190.369 285.006 193.157V194.553H113.883V193.157C113.883 190.369 114.991 187.695 116.963 185.724C118.935 183.753 121.61 182.645 124.399 182.645Z" fill="#DFE6F5"/>
<path d="M199.445 175.067C206.623 175.067 212.442 169.25 212.442 162.074C212.442 154.899 206.623 149.082 199.445 149.082C192.267 149.082 186.448 154.899 186.448 162.074C186.448 169.25 192.267 175.067 199.445 175.067Z" fill="#FFD77C" stroke="#FFAB50" stroke-miterlimit="10"/>
<path d="M199.444 172.372C205.133 172.372 209.745 167.761 209.745 162.074C209.745 156.387 205.133 151.777 199.444 151.777C193.755 151.777 189.144 156.387 189.144 162.074C189.144 167.761 193.755 172.372 199.444 172.372Z" fill="#FFD77C" stroke="#FFAB50" stroke-miterlimit="10"/>
<path d="M199.444 169.921C203.779 169.921 207.293 166.408 207.293 162.075C207.293 157.741 203.779 154.229 199.444 154.229C195.11 154.229 191.596 157.741 191.596 162.075C191.596 166.408 195.11 169.921 199.444 169.921Z" fill="#FFD77C" stroke="#FFAB50" stroke-miterlimit="10"/>
<path d="M199.444 166.485C201.881 166.485 203.856 164.51 203.856 162.075C203.856 159.639 201.881 157.664 199.444 157.664C197.008 157.664 195.032 159.639 195.032 162.075C195.032 164.51 197.008 166.485 199.444 166.485Z" fill="#FFD77C" stroke="#FFAB50" stroke-miterlimit="10"/>
<path d="M191.864 182.105C199.042 182.105 204.861 176.288 204.861 169.113C204.861 161.938 199.042 156.121 191.864 156.121C184.686 156.121 178.867 161.938 178.867 169.113C178.867 176.288 184.686 182.105 191.864 182.105Z" fill="#FFD77C" stroke="#FFAB50" stroke-miterlimit="10"/>
<path d="M191.863 179.41C197.552 179.41 202.164 174.8 202.164 169.113C202.164 163.426 197.552 158.816 191.863 158.816C186.174 158.816 181.562 163.426 181.562 169.113C181.562 174.8 186.174 179.41 191.863 179.41Z" fill="#FFD77C" stroke="#FFAB50" stroke-miterlimit="10"/>
<path d="M191.863 176.959C196.198 176.959 199.712 173.446 199.712 169.113C199.712 164.78 196.198 161.267 191.863 161.267C187.529 161.267 184.015 164.78 184.015 169.113C184.015 173.446 187.529 176.959 191.863 176.959Z" fill="#FFD77C" stroke="#FFAB50" stroke-miterlimit="10"/>
<path d="M191.863 173.523C194.3 173.523 196.275 171.549 196.275 169.113C196.275 166.677 194.3 164.703 191.863 164.703C189.426 164.703 187.451 166.677 187.451 169.113C187.451 171.549 189.426 173.523 191.863 173.523Z" fill="#FFD77C" stroke="#FFAB50" stroke-miterlimit="10"/>
<path d="M207.026 182.105C214.204 182.105 220.023 176.288 220.023 169.113C220.023 161.938 214.204 156.121 207.026 156.121C199.848 156.121 194.029 161.938 194.029 169.113C194.029 176.288 199.848 182.105 207.026 182.105Z" fill="#FFD77C" stroke="#FFAB50" stroke-miterlimit="10"/>
<path d="M207.025 179.41C212.714 179.41 217.326 174.8 217.326 169.113C217.326 163.426 212.714 158.816 207.025 158.816C201.336 158.816 196.725 163.426 196.725 169.113C196.725 174.8 201.336 179.41 207.025 179.41Z" fill="#FFD77C" stroke="#FFAB50" stroke-miterlimit="10"/>
<path d="M207.025 176.959C211.36 176.959 214.874 173.446 214.874 169.113C214.874 164.78 211.36 161.267 207.025 161.267C202.691 161.267 199.177 164.78 199.177 169.113C199.177 173.446 202.691 176.959 207.025 176.959Z" fill="#FFD77C" stroke="#FFAB50" stroke-miterlimit="10"/>
<path d="M207.025 173.523C209.462 173.523 211.437 171.549 211.437 169.113C211.437 166.677 209.462 164.703 207.025 164.703C204.589 164.703 202.613 166.677 202.613 169.113C202.613 171.549 204.589 173.523 207.025 173.523Z" fill="#FFD77C" stroke="#FFAB50" stroke-miterlimit="10"/>
<path d="M172.366 165.329H226.519V167.871C226.519 170.381 226.024 172.866 225.063 175.185C224.102 177.504 222.694 179.611 220.918 181.386C219.143 183.161 217.035 184.568 214.716 185.529C212.396 186.489 209.91 186.984 207.399 186.984H191.486C188.975 186.984 186.489 186.489 184.169 185.529C181.85 184.568 179.742 183.161 177.966 181.386C176.191 179.611 174.782 177.504 173.822 175.185C172.861 172.866 172.366 170.381 172.366 167.871V165.329Z" fill="#169E0F"/>
<path opacity="0.1" d="M221.633 165.324C221.492 170.97 219.15 176.338 215.105 180.282C211.061 184.226 205.635 186.434 199.985 186.434H189.234C190.803 186.792 192.406 186.975 194.014 186.979H204.846C207.691 186.98 210.509 186.421 213.139 185.333C215.768 184.246 218.157 182.651 220.17 180.64C222.182 178.629 223.779 176.241 224.868 173.613C225.958 170.985 226.518 168.168 226.518 165.324H221.633Z" fill="black"/>
<path d="M272.01 269.801V263.307H131.211V269.801H272.01Z" fill="#40414D"/>
<path d="M78.4207 240.629H72.7373V292.321H78.4207V240.629Z" fill="#40414D"/>
<path d="M123.309 240.629H117.626V292.321H123.309V240.629Z" fill="#40414D"/>
<path d="M127.859 232.11C127.859 235.56 116.158 238.36 101.722 238.36C87.2869 238.36 76.1543 235.565 76.1543 232.11C76.1543 228.655 87.2869 225.86 101.722 225.86C116.158 225.86 127.859 228.674 127.859 232.11Z" fill="#F6C6CD"/>
<path d="M68.1914 232.105H127.855V237.313C127.855 238.644 127.326 239.92 126.385 240.861C125.444 241.802 124.167 242.331 122.836 242.331H76.7954C74.5135 242.331 72.325 241.424 70.7114 239.811C69.0979 238.198 68.1914 236.011 68.1914 233.73V232.105Z" fill="#40414D"/>
<path d="M58.0593 172.339L59.2903 172.061C60.1559 171.865 61.0637 172.022 61.814 172.496C62.5642 172.969 63.0955 173.722 63.2909 174.587L78.192 240.578L76.3269 240.998C74.7614 241.352 73.1196 241.069 71.7627 240.212C70.4058 239.355 69.4449 237.995 69.0915 236.43L55.5229 176.34C55.4259 175.911 55.4147 175.466 55.4898 175.033C55.5649 174.599 55.7248 174.185 55.9604 173.813C56.1961 173.441 56.5028 173.12 56.8629 172.867C57.2231 172.614 57.6297 172.434 58.0593 172.339Z" fill="#40414D"/>
<path d="M321.42 293.238H327.104V241.547H321.42V293.238Z" fill="#40414D"/>
<path d="M276.531 293.238H282.215V241.547H276.531V293.238Z" fill="#40414D"/>
<path d="M271.99 233.027C271.99 236.477 283.692 239.277 298.127 239.277C312.563 239.277 323.695 236.482 323.695 233.027C323.695 229.572 312.558 226.763 298.127 226.763C283.696 226.763 271.99 229.577 271.99 233.027Z" fill="#F6C6CD"/>
<path d="M323.045 243.253H277.005C275.674 243.253 274.397 242.724 273.456 241.783C272.514 240.842 271.986 239.566 271.986 238.235V233.027H331.649V234.652C331.649 236.933 330.743 239.121 329.129 240.734C327.516 242.347 325.327 243.253 323.045 243.253Z" fill="#40414D"/>
<path d="M323.522 241.915L321.657 241.495L336.561 175.495C336.756 174.629 337.287 173.877 338.037 173.403C338.788 172.93 339.696 172.773 340.561 172.968L341.792 173.246C342.658 173.442 343.41 173.973 343.884 174.723C344.358 175.473 344.515 176.38 344.319 177.245L330.748 237.345C330.395 238.908 329.436 240.267 328.081 241.124C326.727 241.981 325.087 242.266 323.522 241.915Z" fill="#40414D"/>
<path d="M325.545 212.906L327.223 212.376C327.223 212.376 324.355 193.224 324.383 176.061C324.383 175.583 324.383 175.071 324.383 174.579C324.417 173.509 324.455 172.448 324.508 171.411C324.575 170.083 324.589 168.817 324.579 167.589C324.737 151.061 318.222 144.08 318.222 144.08C318.222 144.08 310.574 133.175 305.99 131.054C305.593 129.812 305.139 128.216 304.738 126.362C304.886 126.261 305.029 126.161 305.168 126.056C307.061 124.652 308.872 123.141 310.593 121.531C312.945 119.328 315.201 116.643 315.077 113.613C315.09 113.318 315.08 113.023 315.048 112.729C314.613 109.074 310.813 106.322 309.279 102.857C307.988 99.9473 308.375 96.7077 307.247 93.7547C306.119 90.8017 302.18 88.0542 299.207 89.6071C298.113 90.1805 297.453 91.1935 296.54 91.9628C294.274 93.8741 290.622 94.0509 287.525 93.1813C284.428 92.3116 283.51 88.7661 279.179 88.7566C279.564 88.8855 279.931 89.0604 280.274 89.2774C279.912 89.2165 279.546 89.1846 279.179 89.1819C280.06 89.4605 280.841 89.9883 281.428 90.7015C282.015 91.4147 282.383 92.2827 282.487 93.2004C282.48 93.3157 282.467 93.4305 282.449 93.5444C280.718 94.4762 278.443 93.9458 276.369 93.9124C274.294 93.8789 271.933 94.9254 272.138 96.6217C272.103 96.8144 272.103 97.0118 272.138 97.2046C272.411 98.4899 274.131 99.4599 274.342 100.65C274.342 100.683 274.342 100.712 274.342 100.745C270.503 102.663 266.35 103.874 262.081 104.319C261.943 104.319 262.005 104.487 262.205 104.73H262.081C261.302 104.812 266.751 109.117 267.373 109.399C269.648 110.431 272.368 111.191 274.777 111.984L274.987 112.051C274.175 113.936 273.757 115.967 273.759 118.019C273.759 125.377 279.05 131.56 286.215 133.309C287.554 134.872 288.959 136.587 290.24 138.293H290.149C290.149 138.293 281.913 149.245 282.176 165.601C282.153 167.651 282.261 169.7 282.501 171.736C277.205 171.435 265.824 170.04 257.167 163.704C245.49 155.165 232.464 157.726 235.179 162.849C237.894 167.971 251.799 172.238 254.041 172.668C254.252 172.706 254.739 172.821 255.437 172.993C252.674 173.514 250.781 174.426 250.896 175.654C251.121 178.001 263.023 185.474 270.207 185.899C274.954 186.181 280.666 187.643 285.173 188.928C285.608 198.748 283.233 201.691 283.233 201.691C283.233 201.691 283.94 202.126 285.111 202.742L284.609 204.176C281.693 205.858 278.099 207.612 274.829 208.319C270.663 209.174 266.613 210.522 262.765 212.332L246.594 220.145C245.15 220.815 243.901 221.841 242.964 223.128C242.027 224.415 241.434 225.919 241.24 227.499C240.887 230.81 241.886 234.948 247.297 238.231C247.631 240.921 249.276 244.06 253.592 246.937C261.957 252.499 283.94 269.161 286.932 271.435C286.99 275.501 286.454 283.658 281.435 284.929C275.145 286.525 280.207 292.574 285.293 292.335C286.5 292.792 287.813 292.888 289.074 292.612C294.466 291.332 314.226 284.489 315.574 274.254C315.63 273.811 315.655 273.364 315.65 272.916C315.729 271.171 315.293 269.442 314.398 267.942C314.609 268.405 314.78 268.884 314.909 269.376C313.275 265.649 309.293 263.307 306.196 261.988C306.196 261.955 306.196 261.917 306.196 261.883C305.718 261.697 305.24 261.544 304.848 261.405C304.856 261.128 304.835 260.851 304.785 260.579L273.797 239.234C273.797 239.234 287.272 228.134 301.196 229.845C315.12 231.556 317.338 229.028 317.338 229.028C317.338 229.028 324.479 222.238 325.196 214.421L325.645 214.301C325.645 214.301 325.612 213.809 325.545 212.906Z" fill="url(#paint0_linear)"/>
<path d="M287.702 268.501C287.702 268.501 288.969 282.439 282.631 284.131C276.292 285.822 282.21 292.579 287.277 291.298C292.343 290.018 310.942 283.271 312.209 273.141C313.476 263.011 299.533 259.623 299.533 259.623L287.702 268.501Z" fill="#B8616E"/>
<path opacity="0.05" d="M287.702 268.501C287.702 268.501 288.969 282.439 282.631 284.131C276.292 285.822 282.21 292.579 287.277 291.298C292.343 290.018 310.942 283.271 312.209 273.141C313.476 263.011 299.533 259.623 299.533 259.623L287.702 268.501Z" fill="black"/>
<path d="M290.25 268.922C290.25 268.922 291.517 282.86 285.178 284.551C278.84 286.243 284.758 292.999 289.825 291.719C294.891 290.438 313.49 283.691 314.757 273.561C316.024 263.431 302.08 260.044 302.08 260.044L290.25 268.922Z" fill="#B8616E"/>
<path opacity="0.1" d="M303.347 260.474L291.526 269.347C291.526 269.347 291.579 269.949 291.612 270.91C296.077 269.686 305.804 266.437 305.952 261.353C305.102 261.008 304.232 260.714 303.347 260.474Z" fill="black"/>
<path d="M295.952 139.024H290.881V142.828H295.952V139.024Z" fill="#F8BDC5"/>
<path d="M291.096 200.482C291.096 200.482 283.042 206.809 276.426 208.309C272.493 209.16 268.68 210.494 265.074 212.28L249.859 220.011C248.477 220.706 247.292 221.736 246.412 223.008C245.532 224.279 244.985 225.751 244.821 227.289C244.386 231.589 246.116 237.247 256.441 240.61L288.978 267.646L299.121 259.198L264.471 232.592L291.096 216.117V200.482Z" fill="#758AC8"/>
<path opacity="0.1" d="M291.096 200.482C291.096 200.482 283.042 206.809 276.426 208.309C272.493 209.16 268.68 210.494 265.074 212.28L249.859 220.011C248.477 220.706 247.292 221.736 246.412 223.008C245.532 224.279 244.985 225.751 244.821 227.289C244.386 231.589 246.116 237.247 256.441 240.61L288.978 267.646L299.121 259.198L264.471 232.592L291.096 216.117V200.482Z" fill="black"/>
<path d="M286.445 172.185C286.445 172.185 270.81 172.606 259.821 164.158C248.831 155.71 236.58 158.242 239.114 163.312C241.647 168.382 254.749 172.606 256.862 173.026C258.975 173.447 289.399 181.9 289.399 181.9L286.445 172.185Z" fill="#F8BDC5"/>
<path opacity="0.05" d="M286.445 172.185C286.445 172.185 270.81 172.606 259.821 164.158C248.831 155.71 236.58 158.242 239.114 163.312C241.647 168.382 254.749 172.606 256.862 173.026C258.975 173.447 289.399 181.9 289.399 181.9L286.445 172.185Z" fill="black"/>
<path d="M288.137 196.688L283.065 211.898C283.065 211.898 254.543 229.429 252.215 231.751C250.408 233.558 247.99 240.625 256.441 246.535C264.892 252.446 288.132 271.038 288.132 271.038C288.132 271.038 305.88 267.216 304.613 260.048L275.455 238.928C275.455 238.928 288.132 227.938 301.234 229.635C314.336 231.331 316.448 228.789 316.448 228.789C316.448 228.789 326.591 218.64 323.207 208.94C319.823 199.24 288.137 196.688 288.137 196.688Z" fill="#758AC8"/>
<path d="M281.799 127.852C281.799 127.852 296.167 143.482 295.321 148.127C294.475 152.771 306.731 134.609 306.731 134.609C306.731 134.609 302.907 125.315 303.772 115.176L281.799 127.852Z" fill="#F8BDC5"/>
<path opacity="0.1" d="M294.337 142.187C295.317 141.153 296.349 140.169 297.43 139.239C299.592 137.467 301.575 135.487 303.352 133.328C306.311 129.506 317.295 146 317.295 146C317.295 146 324.054 153.603 323.213 171.77C322.371 189.937 324.269 214.225 324.269 214.225L321.712 214.937C319.558 215.655 317.266 215.863 315.018 215.544C312.77 215.224 310.627 214.387 308.758 213.097C305.383 210.765 301.11 208.319 297.86 208.099C291.521 207.678 285.814 204.085 285.814 204.085C285.814 204.085 288.563 197.539 284.337 176.414C280.112 155.289 290.881 140.276 290.881 140.276C290.881 140.276 291.732 144.873 294.337 142.187Z" fill="black"/>
<path d="M325.746 212.318L323.213 213.164L321.707 213.666C319.553 214.385 317.261 214.593 315.013 214.273C312.765 213.954 310.622 213.116 308.753 211.826C305.383 209.499 301.105 207.048 297.855 206.828C291.526 206.403 284.356 201.758 284.356 201.758C284.356 201.758 288.582 196.268 284.356 175.143C280.131 154.018 290.905 139.024 290.905 139.024C290.905 139.024 291.756 143.597 294.361 140.907C295.339 139.873 296.37 138.891 297.449 137.963C299.611 136.191 301.595 134.211 303.371 132.053C306.33 128.23 317.314 144.725 317.314 144.725C317.314 144.725 324.073 152.327 323.232 170.494C323.141 172.405 323.103 174.374 323.098 176.366C323.036 193.368 325.746 212.318 325.746 212.318Z" fill="#5E52AD"/>
<path opacity="0.1" d="M301.659 170.919L302.08 180.213C302.08 180.213 279.681 181.479 275.035 176.835C270.389 172.19 287.702 190.496 291.526 191.619C295.115 192.675 304.384 193.606 309.245 193.702C310.634 193.747 312.006 193.387 313.194 192.667C314.382 191.947 315.335 190.897 315.937 189.645C316.504 188.414 316.687 187.04 316.463 185.703C315.617 180.213 316.463 168.382 316.463 168.382L301.659 170.919Z" fill="black"/>
<path d="M301.659 170.073L302.08 179.367C302.08 179.367 279.681 180.633 275.035 175.989C270.388 171.344 253.577 172.372 253.907 175.989C254.117 178.311 265.317 185.703 272.071 186.128C278.825 186.554 287.702 189.65 291.526 190.773C295.115 191.829 304.384 192.761 309.245 192.856C310.634 192.901 312.005 192.541 313.193 191.821C314.382 191.101 315.335 190.051 315.937 188.799C316.504 187.568 316.687 186.194 316.463 184.857C315.617 179.367 316.463 167.536 316.463 167.536L301.659 170.073Z" fill="#F8BDC5"/>
<path opacity="0.1" d="M306.731 143.038C306.731 143.038 297.013 144.304 298.28 158.668C299.547 173.031 301.239 174.297 301.239 174.297C301.239 174.297 315.607 173.031 317.295 172.606C318.982 172.181 318.141 156.556 318.141 156.556C318.141 156.556 317.715 142.617 306.731 143.038Z" fill="black"/>
<path d="M306.731 142.617C306.731 142.617 297.013 143.884 298.28 158.247C299.547 172.611 301.239 173.877 301.239 173.877C301.239 173.877 315.607 172.611 317.295 172.185C318.982 171.76 318.141 156.135 318.141 156.135C318.141 156.135 317.715 142.187 306.731 142.617Z" fill="#5E52AD"/>
<path opacity="0.1" d="M303.137 124.24C302.472 120.895 303.834 119.863 304.193 115.582L282.205 128.254C282.205 128.254 284.724 130.997 287.587 134.518C288.867 134.842 290.182 135.002 291.502 134.996C297.262 135.02 300.412 128.837 303.137 124.24Z" fill="black"/>
<path d="M291.091 134.59C299.727 134.59 306.727 127.592 306.727 118.96C306.727 110.328 299.727 103.33 291.091 103.33C282.456 103.33 275.456 110.328 275.456 118.96C275.456 127.592 282.456 134.59 291.091 134.59Z" fill="#F8BDC5"/>
<path opacity="0.1" d="M295.034 114.215C292.644 115.735 292.611 119.17 294.15 121.55C295.689 123.93 298.342 125.502 300.895 126.983C301.635 127.413 302.453 127.857 303.285 127.762C303.924 127.637 304.516 127.338 304.996 126.897C306.782 125.504 308.487 124.009 310.101 122.42C312.424 120.136 314.656 117.321 314.293 114.134C313.882 110.517 310.306 107.793 308.863 104.367C307.649 101.5 308.012 98.2845 306.951 95.3554C305.89 92.4263 302.171 89.7171 299.389 91.2509C298.361 91.8147 297.74 92.8229 296.879 93.5827C294.748 95.4653 291.311 95.6517 288.395 94.7916C285.479 93.9315 284.614 90.4195 280.546 90.4099C282.568 91.1219 283.935 93.2291 283.625 95.15C281.995 96.0722 279.853 95.5466 277.889 95.5131C275.924 95.4797 273.587 96.5787 273.926 98.3466C274.222 99.7801 276.292 100.846 275.986 102.279C272.395 104.17 268.481 105.37 264.447 105.815C263.716 105.896 268.84 110.154 269.423 110.436C271.56 111.458 274.127 112.208 276.388 112.992C282.53 115.109 288.82 115.864 295.034 114.215Z" fill="black"/>
<path d="M295.034 113.79C292.644 115.309 292.611 118.745 294.15 121.125C295.689 123.504 298.342 125.076 300.895 126.558C301.635 126.988 302.453 127.432 303.285 127.336C303.924 127.212 304.516 126.912 304.996 126.472C306.782 125.078 308.487 123.583 310.101 121.994C312.424 119.71 314.656 116.896 314.293 113.709C313.882 110.092 310.306 107.368 308.863 103.942C307.649 101.075 308.012 97.8592 306.951 94.9301C305.89 92.001 302.171 89.2917 299.389 90.8255C298.361 91.3894 297.74 92.3976 296.879 93.1573C294.748 95.04 291.311 95.2263 288.395 94.3662C285.479 93.5062 284.614 89.9941 280.546 89.9846C282.568 90.6965 283.935 92.8038 283.625 94.7246C281.995 95.6468 279.853 95.1212 277.889 95.0878C275.924 95.0543 273.587 96.1533 273.926 97.9213C274.222 99.3548 276.292 100.42 275.986 101.854C272.395 103.745 268.481 104.944 264.447 105.39C263.716 105.471 268.84 109.728 269.423 110.01C271.56 111.033 274.127 111.783 276.388 112.567C282.53 114.688 288.82 115.429 295.034 113.79Z" fill="#916168"/>
<path opacity="0.1" d="M313.652 267.326C314.331 268.89 314.567 270.611 314.336 272.3C313.069 282.439 294.475 289.196 289.403 290.457C286.731 291.126 283.82 289.564 282.602 287.686C283.385 289.894 286.76 292.068 289.829 291.303C294.9 290.037 313.495 283.276 314.761 273.146C315.038 271.137 314.649 269.092 313.652 267.326Z" fill="white"/>
<path d="M179.359 278.846C178.982 277.996 177.022 276.338 167.572 275.979C161.1 275.736 158.896 272.319 158.299 268.984C160.426 268.707 162.089 268.324 162.634 267.794C162.634 267.794 162.606 267.641 162.558 267.369L162.634 267.311C162.221 264.906 162.005 262.47 161.989 260.029C161.977 257.941 162.198 255.857 162.649 253.818C162.912 252.469 163.022 251.096 162.978 249.723C163.031 241.599 160.177 227.322 160.177 227.322L159.785 215.457C159.746 213.977 159.308 212.535 158.519 211.282C157.729 210.029 156.616 209.012 155.297 208.338C154.358 207.852 153.319 207.594 152.262 207.583C152.262 207.583 137.281 205.222 123.797 203.937C122.841 203.168 119.471 201.094 111.747 202.284L107.301 189.277C107.265 189.12 107.24 188.96 107.225 188.799C107.383 187.146 108.487 184.657 113.635 184.499L114.71 185.455C114.71 185.455 114.901 185.077 115.222 184.499C121.608 184.427 156.396 184.074 158.189 184.499C160.163 184.977 177.457 181.126 177.954 180.648C184.675 174.097 158.189 177.274 158.189 177.274C155.584 177.699 147.166 177.193 138.543 176.491C142.812 170.092 146.827 148.375 146.827 148.375C146.827 148.375 162.123 140.668 157.697 136.334C153.27 132 139.91 145.967 139.91 145.967C139.91 145.967 134.475 161.864 132.004 166.681C131.048 168.592 129.81 168.984 128.706 168.764C129.208 168.363 129.533 168.124 129.533 168.124C129.533 168.124 118.663 159.451 117.674 156.083C117.49 155.531 117.246 155 116.947 154.501C116.426 151.448 115.513 148.442 113.286 146.44C112.912 146.038 112.499 145.675 112.053 145.355C111.45 144.925 110.767 144.553 110.198 144.084C110.518 142.613 110.891 141.084 111.278 139.602C119.347 138.647 125.618 131.957 125.618 123.834C125.617 122.609 125.471 121.388 125.183 120.198C126.389 120.277 127.595 120.043 128.684 119.519C129.773 118.995 130.707 118.198 131.397 117.206C133.027 114.779 132.975 111.473 131.607 108.911C131.042 107.872 130.302 106.937 129.418 106.149C128.01 104.731 126.292 103.659 124.399 103.015C122.76 102.446 120.948 102.107 119.648 100.994C119.067 100.234 118.538 99.436 118.066 98.6046C117.52 97.7883 116.878 97.0407 116.154 96.3779C113.764 93.9171 110.389 92.4024 106.952 91.7334C102.765 90.9163 98.4392 91.2078 94.1802 91.4993C92.5885 91.6092 90.7195 91.8911 90.0025 93.2768C89.4624 94.3185 89.8161 95.5656 89.7444 96.7267C89.5198 100.42 85.2943 102.461 81.6185 103.354C77.9426 104.248 73.5594 105.022 71.7861 108.262C70.1752 111.186 71.3081 114.731 71.8243 118.014C72.6841 123.778 71.4038 129.657 68.225 134.542C66.6093 137.012 64.5253 139.21 63.249 141.862C61.8351 144.819 61.5069 148.178 62.3217 151.352C62.5607 152.279 62.9049 153.225 62.7328 154.171C62.5372 154.951 62.1531 155.672 61.6143 156.269C59.4163 158.982 56.6808 161.212 53.5797 162.818C50.4785 164.424 47.0787 165.371 43.5938 165.601C43.8864 166.571 44.4583 167.433 45.2381 168.081C46.2287 169.06 47.3839 169.857 48.651 170.437C51.9889 172.11 55.4989 173.416 59.1191 174.331C61.5569 174.947 64.1046 175.387 66.5854 174.966C69.0662 174.546 71.4849 173.127 72.503 170.881C73.0958 169.581 73.1818 168.109 73.7076 166.786C74.7544 164.139 77.3499 162.423 79.1042 160.154C78.5135 166.002 78.2342 171.878 78.2677 177.757C78.2677 179.596 78.2677 181.255 78.2677 182.793C78.2677 189.43 77.7897 194.008 73.6741 202.298C73.1837 203.17 72.9687 204.169 73.0575 205.165C72.9681 205.703 73.0201 206.255 73.2087 206.767C73.3973 207.279 73.7158 207.733 74.133 208.085C73.8462 209.738 73.707 211.414 73.7172 213.092C73.6598 219.132 75.7008 227.241 86.5227 229.295L105.791 228.34C105.791 228.34 132.965 223.041 140.374 226.906C140.985 227.036 141.534 227.372 141.928 227.857C142.322 228.342 142.538 228.948 142.539 229.573C142.516 229.974 142.454 230.373 142.353 230.762C142.146 232.014 142.068 233.284 142.119 234.551C142.085 242.675 143.835 261.109 143.835 261.109V268.926C142.601 270.78 141.081 273.523 141.277 275.544C141.277 275.587 141.277 275.635 141.277 275.678C141.277 275.721 141.277 275.798 141.306 275.855C141.335 275.912 141.306 275.96 141.339 276.013C141.373 276.065 141.368 276.113 141.383 276.166C141.397 276.218 141.421 276.28 141.445 276.333C141.469 276.385 141.478 276.419 141.497 276.462C141.516 276.505 141.559 276.586 141.593 276.643L141.65 276.744C141.708 276.836 141.772 276.924 141.841 277.007C144.313 279.874 156.659 285.421 160.617 285.196C164.819 284.958 178.896 285.674 179.393 279.415C179.456 279.228 179.444 279.024 179.359 278.846Z" fill="url(#paint1_linear)"/>
<path d="M144.236 266.748C144.236 266.748 138.5 273.915 140.89 276.782C143.28 279.649 155.23 285.13 159.054 284.905C163.117 284.666 176.74 285.383 177.218 279.171C177.218 279.171 178.174 276.304 165.746 275.826C153.318 275.348 157.142 262.447 157.142 262.447L144.236 266.748Z" fill="#594C76"/>
<path opacity="0.1" d="M75.8826 206.541C75.8826 206.541 70.1466 226.132 87.3545 229.477L105.996 228.521C105.996 228.521 132.286 223.265 139.456 227.088C139.456 227.088 142.324 227.566 141.368 231.388C140.412 235.211 142.802 261.014 142.802 261.014V269.615C142.802 269.615 159.054 269.615 160.966 267.703C160.966 267.703 159.532 260.058 160.966 253.846C162.4 247.634 158.576 228.043 158.576 228.043L158.199 216.251C158.171 214.794 157.755 213.37 156.993 212.127C156.232 210.884 155.153 209.866 153.868 209.179C152.963 208.699 151.957 208.444 150.933 208.433C150.933 208.433 118.429 203.177 106.957 204.133C95.4853 205.089 75.8826 206.541 75.8826 206.541Z" fill="black"/>
<path d="M75.8826 206.063C75.8826 206.063 70.1466 225.654 87.3545 228.999L105.996 228.044C105.996 228.044 132.286 222.787 139.456 226.61C139.456 226.61 142.324 227.088 141.368 230.911C140.412 234.733 142.802 260.536 142.802 260.536V269.137C142.802 269.137 159.054 269.137 160.966 267.225C160.966 267.225 159.532 259.58 160.966 253.368C162.4 247.157 158.576 227.566 158.576 227.566L158.199 215.773C158.171 214.316 157.755 212.892 156.993 211.649C156.232 210.406 155.153 209.389 153.868 208.701C152.963 208.222 151.957 207.966 150.933 207.956C150.933 207.956 118.429 202.7 106.957 203.655C95.4853 204.611 75.8826 206.063 75.8826 206.063Z" fill="#8B9CD1"/>
<path d="M125.116 167.359C125.116 167.359 128.94 172.138 131.33 167.359C133.72 162.581 138.978 146.813 138.978 146.813C138.978 146.813 151.884 132.956 156.186 137.256C160.488 141.557 145.67 149.202 145.67 149.202C145.67 149.202 140.412 178.349 135.632 178.827C130.852 179.305 123.682 178.827 123.682 178.827L121.292 173.571L125.116 167.359Z" fill="#F8BDC5"/>
<path opacity="0.05" d="M125.116 167.359C125.116 167.359 128.94 172.138 131.33 167.359C133.72 162.581 138.978 146.813 138.978 146.813C138.978 146.813 151.884 132.956 156.186 137.256C160.488 141.557 145.67 149.202 145.67 149.202C145.67 149.202 140.412 178.349 135.632 178.827C130.852 179.305 123.682 178.827 123.682 178.827L121.292 173.571L125.116 167.359Z" fill="black"/>
<path d="M107.908 143.468C107.908 143.468 116.512 153.502 117.468 156.847C118.424 160.192 128.94 168.793 128.94 168.793C128.94 168.793 121.292 174.527 122.726 177.394C124.16 180.261 112.688 167.837 112.688 167.837L99.3037 148.246L107.908 143.468Z" fill="#EB6475"/>
<path opacity="0.1" d="M107.908 143.468C107.908 143.468 116.512 153.502 117.468 156.847C118.424 160.192 128.94 168.793 128.94 168.793C128.94 168.793 121.292 174.527 122.726 177.394C124.16 180.261 112.688 167.837 112.688 167.837L99.3037 148.246L107.908 143.468Z" fill="black"/>
<path d="M113.644 132C113.644 132 109.342 145.857 109.342 151.113C109.342 156.369 91.1778 149.68 91.6558 146.813C92.1338 143.946 102.172 133.434 102.65 129.133C103.128 124.833 113.644 132 113.644 132Z" fill="#F8BDC5"/>
<path opacity="0.1" d="M99.3038 141.557C99.3038 141.557 82.5739 137.256 80.1839 161.625C77.7939 185.995 82.0959 188.862 74.9259 203.674C67.7559 218.487 123.682 205.586 123.682 205.586C123.682 205.586 120.814 202.241 111.732 203.674L107.43 190.773C107.43 190.773 105.996 185.039 114.122 185.039C122.248 185.039 118.424 168.315 118.424 168.315C118.424 168.315 114.122 153.98 111.732 152.547C109.342 151.113 105.04 142.512 99.3038 141.557Z" fill="black"/>
<path d="M99.3038 140.601C99.3038 140.601 82.5739 136.301 80.1839 160.67C77.7939 185.039 82.0959 187.906 74.9259 202.719C67.7559 217.531 123.682 204.63 123.682 204.63C123.682 204.63 120.814 201.285 111.732 202.719L107.43 189.817C107.43 189.817 105.996 184.083 114.122 184.083C122.248 184.083 118.424 167.359 118.424 167.359C118.424 167.359 114.122 153.025 111.732 151.591C109.342 150.158 105.04 141.557 99.3038 140.601Z" fill="#EB6475"/>
<path d="M116.034 175.005C116.034 175.005 150.927 178.827 156.663 177.871C156.663 177.871 182.284 174.718 175.783 181.216C175.305 181.694 158.575 185.517 156.663 185.039C154.751 184.561 114.122 185.039 114.122 185.039L113.644 180.261L116.034 175.005Z" fill="#F8BDC5"/>
<path opacity="0.1" d="M89.2664 163.059L114.6 185.995C114.6 185.995 119.38 176.438 120.814 176.438C122.248 176.438 103.606 148.246 103.606 148.246C103.606 148.246 98.8263 142.512 95.9584 145.379C93.0904 148.246 84.4864 146.335 89.2664 163.059Z" fill="black"/>
<path d="M88.7879 162.103L114.122 185.039C114.122 185.039 118.902 175.482 120.336 175.482C121.77 175.482 103.128 147.291 103.128 147.291C103.128 147.291 98.3478 141.557 95.4798 144.424C92.6119 147.291 84.0079 145.379 88.7879 162.103Z" fill="#EB6475"/>
<path d="M109.342 140.601C118.054 140.601 125.116 133.541 125.116 124.833C125.116 116.124 118.054 109.064 109.342 109.064C100.631 109.064 93.5684 116.124 93.5684 124.833C93.5684 133.541 100.631 140.601 109.342 140.601Z" fill="#F8BDC5"/>
<path opacity="0.1" d="M123.156 120.871C125.833 121.927 129.112 120.661 130.689 118.258C132.267 115.854 132.219 112.581 130.89 110.03C129.561 107.478 127.104 105.624 124.394 104.659C122.75 104.076 120.919 103.741 119.657 102.537C118.859 101.777 118.385 100.75 117.788 99.8231C115.556 96.3445 111.574 94.2899 107.525 93.4824C103.477 92.6748 99.2895 92.9615 95.1691 93.2482C93.63 93.3581 91.8231 93.6353 91.1253 95.0114C90.6042 96.0435 90.9436 97.2811 90.8767 98.4326C90.6616 102.098 86.5747 104.128 83.0041 105.008C79.4334 105.887 75.294 106.713 73.5541 109.944C71.9958 112.844 73.1095 116.361 73.5923 119.62C74.4179 125.312 73.1839 131.112 70.1125 135.976C68.5494 138.427 66.5371 140.606 65.299 143.239C63.9296 146.181 63.6123 149.504 64.4004 152.652C64.6346 153.574 64.9644 154.511 64.8019 155.447C64.6146 156.217 64.244 156.93 63.7217 157.526C61.6268 160.205 58.9928 162.416 55.99 164.014C52.9873 165.612 49.6824 166.563 46.2891 166.805C46.834 168.855 48.8177 170.15 50.7058 171.106C53.9276 172.762 57.3229 174.057 60.8298 174.966C63.1863 175.578 65.6528 176.013 68.0523 175.597C70.4519 175.181 72.7893 173.772 73.7883 171.545C74.3619 170.255 74.4479 168.798 74.9546 167.479C76.097 164.521 79.1419 162.734 80.7766 160.015C82.3397 157.416 82.9467 157.11 83.3435 154.109C83.7402 151.108 84.6149 147.869 87.0814 146.106C89.6626 144.256 93.2954 144.61 96.1634 146.029C99.0313 147.448 100.805 146.894 103.199 148.977C107.401 152.625 112.102 155.654 117.162 157.97C116.684 153.803 115.914 149.154 112.53 146.674C111.574 145.962 110.365 145.417 109.858 144.328C109.05 142.594 110.432 140.477 109.805 138.666C109.179 136.855 106.799 136.186 105.742 134.542C104.844 133.147 105.088 131.25 105.929 129.816C106.77 128.383 108.099 127.322 109.423 126.319C110.599 125.43 111.791 124.562 112.998 123.715C114.09 123.022 115.07 122.168 115.905 121.182C116.383 120.527 116.698 119.094 117.363 118.63C119.036 117.474 121.607 120.265 123.156 120.871Z" fill="black"/>
<path d="M122.678 120.394C125.355 121.45 128.634 120.183 130.212 117.78C131.789 115.376 131.741 112.103 130.412 109.552C129.083 107 126.627 105.146 123.916 104.181C122.272 103.598 120.441 103.263 119.179 102.059C118.381 101.3 117.908 100.272 117.31 99.3453C115.078 95.8667 111.096 93.812 107.048 93.0045C102.999 92.197 98.8119 92.4837 94.6916 92.7704C93.1524 92.8803 91.3456 93.1574 90.6477 94.5336C90.1267 95.5657 90.4661 96.8032 90.3992 97.9548C90.1841 101.62 86.0972 103.651 82.5265 104.53C78.9559 105.409 74.8164 106.236 73.0765 109.466C71.5182 112.366 72.632 115.883 73.1148 119.142C73.9403 124.834 72.7064 130.634 69.6349 135.498C68.0719 137.949 66.0595 140.128 64.8215 142.761C63.452 145.703 63.1348 149.026 63.9229 152.174C64.1571 153.096 64.4869 154.033 64.3244 154.969C64.137 155.739 63.7664 156.452 63.2441 157.048C61.1492 159.727 58.5153 161.938 55.5125 163.536C52.5097 165.134 49.2049 166.085 45.8115 166.327C46.3564 168.377 48.3401 169.672 50.2282 170.628C53.45 172.284 56.8454 173.579 60.3522 174.489C62.7087 175.1 65.1752 175.535 67.5748 175.119C69.9743 174.704 72.3117 173.294 73.3107 171.067C73.8843 169.777 73.9704 168.32 74.4771 167.001C75.6195 164.043 78.6643 162.256 80.2991 159.537C81.8621 156.938 82.4692 156.632 82.8659 153.631C83.2626 150.631 84.1374 147.391 86.6038 145.628C89.185 143.779 92.8178 144.132 95.6858 145.551C98.5538 146.97 100.327 146.416 102.722 148.499C106.923 152.148 111.625 155.176 116.684 157.492C116.206 153.326 115.437 148.676 112.052 146.196C111.096 145.484 109.887 144.94 109.38 143.85C108.573 142.116 109.954 139.999 109.328 138.188C108.702 136.377 106.321 135.708 105.265 134.064C104.366 132.669 104.61 130.772 105.451 129.339C106.293 127.905 107.621 126.844 108.945 125.841C110.121 124.952 111.313 124.084 112.521 123.237C113.612 122.544 114.592 121.691 115.427 120.704C115.905 120.05 116.221 118.616 116.885 118.153C118.558 116.996 121.13 119.787 122.678 120.394Z" fill="#916168"/>
<g opacity="0.1">
<path opacity="0.1" d="M156.597 266.212C156.633 264.941 156.815 263.677 157.142 262.447L156.903 262.528C156.664 263.741 156.561 264.977 156.597 266.212Z" fill="white"/>
<path opacity="0.1" d="M159.054 283.949C155.23 284.174 143.28 278.693 140.89 275.826C140.576 275.438 140.383 274.966 140.335 274.469C140.265 274.872 140.278 275.285 140.374 275.683C140.469 276.081 140.645 276.455 140.89 276.782C143.28 279.649 155.23 285.13 159.054 284.905C163.117 284.666 176.74 285.383 177.218 279.171C177.253 279 177.23 278.821 177.151 278.665C176.056 284.389 163.016 283.715 159.054 283.949Z" fill="white"/>
</g>
<path d="M178.413 141.318H177.935V160.909H178.413V141.318Z" fill="#FFD77C" stroke="#FFAB50" stroke-width="0.25" stroke-miterlimit="10"/>
<path d="M178.891 141.318H178.413V160.909H178.891V141.318Z" fill="#FFD77C" stroke="#FFAB50" stroke-width="0.25" stroke-miterlimit="10"/>
<path d="M179.369 141.318H178.891V160.909H179.369V141.318Z" fill="#FFD77C" stroke="#FFAB50" stroke-width="0.25" stroke-miterlimit="10"/>
<path d="M179.846 141.318H179.368V160.909H179.846V141.318Z" fill="#FFD77C" stroke="#FFAB50" stroke-width="0.25" stroke-miterlimit="10"/>
<path d="M180.325 141.318H179.847V160.909H180.325V141.318Z" fill="#FFD77C" stroke="#FFAB50" stroke-width="0.25" stroke-miterlimit="10"/>
<path d="M180.802 141.318H180.324V160.909H180.802V141.318Z" fill="#FFD77C" stroke="#FFAB50" stroke-width="0.25" stroke-miterlimit="10"/>
<path d="M181.281 141.318H180.803V160.909H181.281V141.318Z" fill="#FFD77C" stroke="#FFAB50" stroke-width="0.25" stroke-miterlimit="10"/>
</g>
<defs>
<linearGradient id="paint0_linear" x1="281.01" y1="292.789" x2="281.01" y2="88.7566" gradientUnits="userSpaceOnUse">
<stop stop-color="#808080" stop-opacity="0.25"/>
<stop offset="0.54" stop-color="#808080" stop-opacity="0.12"/>
<stop offset="1" stop-color="#808080" stop-opacity="0.1"/>
</linearGradient>
<linearGradient id="paint1_linear" x1="51855.3" y1="139420" x2="51855.3" y2="60655" gradientUnits="userSpaceOnUse">
<stop stop-color="#808080" stop-opacity="0.25"/>
<stop offset="0.54" stop-color="#808080" stop-opacity="0.12"/>
<stop offset="1" stop-color="#808080" stop-opacity="0.1"/>
</linearGradient>
<clipPath id="clip0">
<rect width="432" height="314" fill="white"/>
</clipPath>
</defs>
</svg>
