<svg width="436" height="312" viewBox="0 0 436 312" fill="none" xmlns="http://www.w3.org/2000/svg">
<path opacity="0.71" d="M393.632 81.6986C389.343 72.6255 383.546 64.2082 376.447 56.7423L138.013 54.6015L334.324 29.4723C321.643 24.8694 308.141 22.428 294.492 22.2694C275.713 8.5892 252.59 0.799217 228.563 0.0582286C204.536 -0.68276 180.888 5.66484 161.137 18.1568C145.353 10.7617 127.855 6.91859 110.108 6.949C57.1299 6.949 12.9833 40.388 3.08105 84.735L393.632 81.6986Z" fill="#FBEED9"/>
<path opacity="0.71" d="M436 164.571C436.011 152.525 433.49 140.59 428.575 129.413L15.6926 169.01C11.435 176.045 8.17814 183.549 6.00114 191.339L133.857 208.756L3.08105 221.46C7.01664 271.744 54.1973 311.451 111.832 311.451C140.843 311.451 167.208 301.388 186.739 284.98C206.337 301.7 232.95 311.979 262.274 311.979C305.784 311.979 343.336 289.345 360.823 256.617C395.911 246.446 423.165 220.898 432.494 188.94L270.823 166.01H436C435.991 165.529 436 165.052 436 164.571Z" fill="#FBEED9"/>
<path d="M95.9046 300.424C148.871 300.424 191.809 294.044 191.809 286.173C191.809 278.303 148.871 271.922 95.9046 271.922C42.938 271.922 0 278.303 0 286.173C0 294.044 42.938 300.424 95.9046 300.424Z" fill="#1F2413"/>
<path d="M194.75 194.216C190.448 195.2 186.032 193.286 186.032 193.286C186.032 193.286 182.265 189.306 179.088 188.768C175.911 188.229 174.681 192.939 172.793 194.151C171.487 195 162.065 194.393 156.36 193.939L155.379 193.858C155.282 193.793 155.185 193.724 155.079 193.662C155.079 193.662 149.602 192.124 148.46 190.763C147.318 189.402 139.688 186.884 137.32 187.03C134.952 187.176 127.953 187.522 127.953 187.522C127.953 187.522 125.21 184.673 123.971 184.969C122.732 185.265 118.426 184.946 118.426 184.946C118.426 184.946 117.242 182.17 116.058 178.19C115.506 176.333 113.669 175.03 111.87 174.172C113.488 169.174 110.606 154.917 101.656 152.129C99.7056 151.521 98.707 149.503 97.0469 148.395C95.5595 147.407 93.1241 145.077 94.3166 140.867C96.002 134.973 100.182 125.691 100.182 125.691L103.296 120.016C103.005 120.418 102.675 120.795 102.31 121.142C102.731 120.65 103.152 120.166 103.515 119.758C106.622 121.19 110.011 122.043 113.484 122.265C116.998 123.561 120.508 124.703 121.873 124.66C124.995 124.56 132.959 128.198 132.959 128.198C132.959 128.198 152.117 133.196 156.099 133.6C160.081 134.004 162.019 129.278 162.019 129.278C162.019 129.278 164.088 119.962 160.414 117.493C156.74 115.025 154.603 126.337 154.603 126.337L129.537 118.093L127.991 117.351C129.192 116.192 130.145 114.838 130.801 113.36C131.189 112.48 131.543 111.472 132.466 111.034C132.714 110.921 132.982 110.85 133.258 110.822C133.486 110.809 133.716 110.809 133.945 110.822C138.293 111.065 142.03 114.187 146.387 114.202C146.547 114.202 146.707 114.202 146.867 114.202C147.698 114.2 148.509 113.972 149.197 113.548C149.586 113.26 149.906 112.901 150.136 112.495C150.367 112.089 150.503 111.644 150.537 111.188C150.474 111.311 150.404 111.432 150.327 111.549C150.44 110.983 150.44 110.404 150.327 109.838C150.057 108.488 149.286 107.277 148.595 106.058C148.4 105.774 148.289 105.448 148.275 105.113C148.294 104.938 148.353 104.768 148.446 104.614C148.539 104.46 148.666 104.325 148.818 104.217C148.825 104.253 148.833 104.289 148.844 104.324C149.172 104.042 149.537 103.798 149.931 103.598C150.996 102.96 151.906 102.13 152.604 101.159C153.303 100.187 153.776 99.0946 153.992 97.9494C153.887 98.2339 153.761 98.5146 153.626 98.7915C154.274 96.8396 154.117 94.7388 153.183 92.8856C152.942 92.3582 152.556 91.8961 152.063 91.5437C150.491 90.5363 148.38 91.6091 146.463 91.7244C144.777 91.8244 143.143 91.1361 141.622 90.4402C139.026 89.2521 136.443 87.9679 134.282 86.2107C131.825 84.1998 130.001 81.6352 127.784 79.409C125.568 77.1827 122.724 75.1987 119.425 74.9757C113.429 74.5528 107.774 79.9742 102.074 78.2055C99.2927 77.3481 97.464 75.0026 95.53 72.9879C93.596 70.9731 90.9373 69.0391 88.0384 69.4736C86.0244 69.7812 84.28 71.2076 82.2406 71.1538C81.1746 71.123 80.1845 70.6886 79.1732 70.3848C76.7252 69.635 73.3712 70.0003 72.499 72.2227C72.3277 72.6754 72.2672 73.1568 72.3218 73.6331C72.3764 74.1094 72.5447 74.569 72.815 74.9795C72.6861 75.1446 72.5706 75.3181 72.4695 75.4986C72.2601 75.8509 72.1873 76.2574 72.2631 76.6521C70.5302 78.0715 69.2462 79.889 68.5449 81.9152C67.8435 83.9414 67.7505 86.1021 68.2755 88.1723C68.8004 90.2425 69.9242 92.1463 71.5297 93.6853C73.1352 95.2244 75.1636 96.3424 77.4035 96.9228C77.4836 97.2035 77.5637 97.4842 77.6395 97.7687C78.4569 100.91 78.8825 104.447 77.6732 106.831C77.5974 106.977 77.5173 107.12 77.4288 107.258L77.3235 107.3L77.3698 107.343L77.3235 107.3L77.1718 107.158L76.2533 106.281C76.2027 105.366 75.6381 102.913 71.7111 98.3608C66.5411 92.3665 65.572 82.4465 65.572 82.4465C65.572 82.4465 64.2827 77.3404 65.572 75.8677C66.8614 74.3951 69.0187 58.1809 69.0187 58.1809L72.5833 49.0529C72.5833 49.0529 89.9134 32.9425 82.6957 30.9815C77.7954 29.6473 71.9513 36.5221 68.7069 41.0669C67.1133 43.2985 66.0828 45.8253 65.69 48.4646L55.8936 72.9225C55.8936 72.9225 54.9245 75.8716 55.8936 80.9777C56.8627 86.0838 59.0158 95.1234 59.0158 95.1234L64.4934 107.793C64.4934 107.793 66.5116 113.264 66.3347 115.64C66.0945 115.782 65.2518 117.305 64.5229 118.689L63.9877 119.458L63.9498 119.77C63.5917 120.466 63.3431 120.965 63.3431 120.965C63.3431 120.965 60.2925 129.182 62.8417 134.223C65.3908 139.264 65.492 141.601 65.492 141.601L67.3923 149.068L68.1844 155.605L75.0187 171.027L81.3137 179.228C81.3137 179.228 80.7238 185.269 79.4302 186.103C78.1367 186.937 78.7308 191.259 78.7308 191.259L77.9218 202.602C77.9218 202.602 75.3937 205.993 75.2336 211.491C75.0735 216.99 74.1549 218.566 74.1549 218.566C74.1549 218.566 73.7336 223.18 74.9092 225.295C76.0847 227.41 73.0257 229.617 73.0257 229.617L75.6507 237.841L74.6268 248.253C74.6268 248.253 75.103 248.372 75.8909 248.553L75.7308 249.299L71.4499 269.024C71.4499 269.024 69.1366 274.43 69.0313 275.702L61.5481 288.033C61.5481 288.033 55.3037 293.682 58.2658 294.22C61.2279 294.758 69.8403 289.898 69.8403 289.898C69.8403 289.898 76.9443 282.923 79.742 282.289C82.5398 281.654 85.6409 279.828 84.7477 277.179C83.8544 274.53 81.7982 270.5 83.7786 266.225C85.0426 263.533 87.7308 256.228 89.5764 251.129C89.6775 250.849 89.7744 250.579 89.8713 250.318C90.3594 250.278 90.8421 250.194 91.3123 250.068C95.8334 248.792 98.2014 249.684 98.2014 249.684L106.274 219.874L108.048 204.917L119.353 213.522C121.59 215.224 124.367 216.225 127.275 216.378C131.728 216.617 138.676 217.205 143.707 218.624L145.814 210.619C145.814 210.619 151.839 210.819 153.133 208.95C153.66 208.181 154.178 207.527 154.603 207.027L155.581 206.889L182.248 203.125C187.199 203.125 193.983 200.076 193.983 200.076L198.129 199.341C198.129 199.341 204.314 198.211 204.87 197.277C205.427 196.342 199.06 193.239 194.75 194.216Z" fill="url(#paint0_linear)"/>
<path d="M74.1502 74.3651C74.9946 72.2033 78.296 71.8392 80.6982 72.5713C81.6861 72.8703 82.6613 73.2957 83.7041 73.3379C85.7052 73.3916 87.415 71.9963 89.3908 71.7012C92.2321 71.2719 94.8369 73.1577 96.7325 75.1241C98.628 77.0904 100.427 79.3787 103.154 80.2181C108.739 81.9276 114.287 76.6534 120.163 77.0636C123.389 77.2897 126.175 79.2177 128.349 81.391C130.523 83.5643 132.314 86.0634 134.72 88.0259C136.831 89.7508 139.364 91.0042 141.918 92.1656C143.408 92.844 145 93.5148 146.663 93.4151C148.546 93.304 150.615 92.2652 152.152 93.2388C152.635 93.5831 153.013 94.0345 153.249 94.5497C155.141 98.1221 153.617 102.879 149.914 104.979C149.268 105.343 148.483 105.746 148.445 106.447C148.457 106.775 148.565 107.094 148.757 107.371C149.433 108.559 150.193 109.744 150.446 111.058C150.699 112.373 150.357 113.887 149.179 114.684C148.41 115.149 147.497 115.376 146.575 115.332C142.302 115.313 138.638 112.266 134.374 112.032C133.828 111.975 133.276 112.052 132.774 112.254C131.87 112.68 131.507 113.665 131.14 114.523C129.164 119.004 124.258 122.12 119.023 122.975C113.788 123.83 108.321 122.626 103.635 120.342C103.292 120.193 102.978 119.997 102.702 119.759C102.311 119.328 102.035 118.82 101.896 118.276C100.46 114.155 98.5183 109.843 94.5414 107.463C91.9619 105.93 88.462 105.067 87.2926 102.48C86.558 100.843 87.0182 98.9845 86.8324 97.2213C86.6495 95.7096 86.0007 94.2754 84.9604 93.0834C83.9201 91.8915 82.5306 90.9901 80.9515 90.4829C80.2591 90.2721 79.4992 90.1226 78.9926 89.6435C78.5813 89.1731 78.3186 88.61 78.2327 88.0144C77.6036 85.4195 77.1857 82.6789 76.3076 80.1453C75.6363 78.1598 73.251 76.6381 74.1502 74.3651Z" fill="#FECC73"/>
<g opacity="0.1">
<path opacity="0.1" d="M149.341 113.316C148.571 113.775 147.659 113.997 146.739 113.95C142.475 113.95 138.814 110.877 134.555 110.646C134.01 110.588 133.458 110.664 132.956 110.865C132.05 111.292 131.691 112.279 131.324 113.139C129.35 117.634 124.445 120.757 119.216 121.613C113.986 122.47 108.524 121.264 103.847 118.974C103.505 118.825 103.191 118.628 102.915 118.39C102.525 117.958 102.249 117.449 102.109 116.904C100.675 112.771 98.7353 108.453 94.7624 106.064C92.1813 104.508 88.685 103.667 87.5209 101.07C86.7829 99.4261 87.2426 97.5631 87.0612 95.7999C86.8791 94.2842 86.2307 92.8462 85.1905 91.6515C84.1504 90.4567 82.7608 89.5539 81.182 89.047C80.4903 88.8357 79.7311 88.6821 79.225 88.2058C78.8136 87.7335 78.5525 87.1675 78.4701 86.5694C77.8375 83.9727 77.4242 81.2223 76.5469 78.6871C75.9565 76.9893 74.0965 75.6141 74.1893 73.801C74.1347 73.8968 74.0868 73.9955 74.0459 74.0968C73.1434 76.3747 75.5305 77.8996 76.2095 79.8587C77.0868 82.3939 77.5001 85.1443 78.1327 87.741C78.2151 88.3391 78.4762 88.9051 78.8876 89.3773C79.3938 89.8537 80.1529 90.0073 80.8446 90.2186C82.424 90.7258 83.814 91.6292 84.8542 92.8247C85.8944 94.0201 86.5425 95.459 86.7238 96.9754C86.9052 98.7385 86.4454 100.602 87.1835 102.246C88.3476 104.854 91.8439 105.703 94.425 107.239C98.3895 109.632 100.33 113.946 101.772 118.079C101.912 118.624 102.187 119.133 102.577 119.566C102.853 119.803 103.168 120 103.51 120.15C108.187 122.454 113.632 123.641 118.878 122.789C124.125 121.936 129 118.809 130.987 114.315C131.366 113.454 131.716 112.467 132.619 112.041C133.121 111.839 133.673 111.764 134.217 111.822C138.477 112.056 142.138 115.11 146.402 115.125C147.323 115.169 148.235 114.943 149.004 114.48C149.385 114.199 149.699 113.849 149.925 113.452C150.152 113.056 150.286 112.621 150.32 112.175C150.107 112.626 149.77 113.019 149.341 113.316Z" fill="black"/>
<path opacity="0.1" d="M150.075 103.579C149.43 103.963 148.641 104.347 148.603 105.05C148.599 105.191 148.623 105.331 148.675 105.465C148.995 105.188 149.352 104.95 149.737 104.754C150.781 104.132 151.672 103.32 152.356 102.371C153.041 101.421 153.503 100.353 153.715 99.2341C153.091 101.023 151.804 102.559 150.075 103.579Z" fill="black"/>
</g>
<path d="M84.9429 263.972C83.0009 268.121 84.9974 272.025 85.8866 274.603C86.7758 277.181 83.7391 278.938 81.0128 279.56C78.2864 280.181 71.3658 286.946 71.3658 286.946C71.3658 286.946 62.9771 291.662 60.0914 291.14C57.2057 290.617 63.2875 285.134 63.2875 285.134L70.5772 273.169C70.6821 271.934 72.9345 266.687 72.9345 266.687L77.1036 247.546L77.6573 245.003L92.4381 244.191C92.4381 244.191 91.6622 246.372 90.5926 249.319C88.7933 254.276 86.1592 261.383 84.9429 263.972Z" fill="#CC818C"/>
<path d="M203.333 196.409C202.808 197.336 196.769 198.454 196.769 198.454L192.723 199.183C192.723 199.183 186.105 202.206 181.272 202.206L155.245 205.943L151.753 206.445V192.754C151.753 192.754 153.509 192.925 155.997 193.143C161.556 193.595 170.755 194.195 172.028 193.354C173.868 192.138 175.074 187.463 178.171 188C181.268 188.538 184.949 192.481 184.949 192.481C184.949 192.481 189.256 194.379 193.458 193.405C197.66 192.43 203.858 195.481 203.333 196.409Z" fill="#CC818C"/>
<path opacity="0.1" d="M156.178 204.866C156.178 204.866 155.803 205.261 155.255 205.936L151.753 206.445V192.579C151.753 192.579 153.514 192.753 156.009 192.974C160.198 196.073 156.178 204.866 156.178 204.866Z" fill="black"/>
<path d="M105.533 201.613L119.638 212.251C121.841 213.911 124.575 214.888 127.438 215.038C131.822 215.271 138.664 215.842 143.633 217.23L145.701 209.419C145.701 209.419 151.637 209.611 152.908 207.79C153.655 206.716 154.487 205.691 155.397 204.725C155.397 204.725 159.691 195.672 154.816 192.894C154.816 192.894 149.411 191.407 148.296 190.065C147.181 188.724 139.66 186.283 137.329 186.425C134.997 186.566 128.108 186.904 128.108 186.904C128.108 186.904 125.403 184.125 124.187 184.413C122.97 184.7 118.726 184.413 118.726 184.413C118.726 184.413 117.56 181.703 116.395 177.821C115.229 173.939 108.289 172.551 108.289 172.551L105.533 201.613Z" fill="#64743F"/>
<path d="M99.3713 106.191L97.8157 106.453H97.7184L97.4902 106.491L94.8269 106.935L94.0068 107.809L93.973 107.839L91.3394 110.641L89.12 112.596L89.0989 112.619L87.2219 114.259L84.0472 117.096L83.5145 118.276L82.3562 120.892L82.0561 121.557L78.8856 124.594L76.8607 128.486L72.126 130.954L67.0321 128.581L64.707 125.544L65.2355 121.192L65.3411 120.323L66.8926 118.087L68.3003 116.052L71.0481 112.539L76.3323 109.312L77.2792 109.088L78.3403 108.838C78.4213 108.734 78.4961 108.626 78.5643 108.515C78.6538 108.381 78.7343 108.243 78.8053 108.101C79.9931 105.8 79.5746 102.379 78.7714 99.3455C78.1558 97.0761 77.3402 94.8542 76.3323 92.701L90.2825 90.8975C90.2825 90.8975 90.1472 93.3275 90.1472 97.1167C90.1472 98.0659 90.1473 99.0949 90.1768 100.196C90.2445 103.613 93.7785 105.094 96.446 105.724C97.1329 105.889 97.8303 106.015 98.5343 106.104C99.0501 106.176 99.3713 106.191 99.3713 106.191Z" fill="#CC818C"/>
<path d="M77.4291 108.125C77.4291 108.125 78.0641 105.82 72.9843 99.9598C67.9044 94.0999 66.9519 84.3973 66.9519 84.3973C66.9519 84.3973 65.682 79.402 66.9519 77.961C68.2219 76.52 70.3385 60.6693 70.3385 60.6693L73.8309 51.7353C73.8309 51.7353 90.8696 35.9806 83.7789 34.0593C78.9616 32.7529 73.1959 39.4812 70.0253 43.9233C68.4591 46.1061 67.447 48.5775 67.062 51.1589L57.4272 75.079C57.4272 75.079 56.4748 77.961 57.4272 82.9564C58.3797 87.9517 60.4963 96.7897 60.4963 96.7897L65.8936 109.194C65.8936 109.194 68.7341 116.917 67.261 117.859L70.5502 113.444L77.4291 108.125Z" fill="#CC818C"/>
<path d="M161.213 129.818C161.213 129.818 159.329 134.394 155.457 134.013C151.584 133.631 132.956 128.769 132.956 128.769C132.956 128.769 125.211 125.241 122.176 125.337C119.141 125.432 105.222 119.521 105.222 119.521C105.222 119.521 104.242 120.696 103.15 121.931C101.961 123.285 100.638 124.715 100.303 124.765C99.6752 124.86 89.9423 126.099 89.9423 126.099L83.349 123.335L82.721 120.844L82.4238 119.7L83.8848 118.217L85.8063 116.268L89.4106 112.523L89.4316 112.5L94.2415 107.737L94.275 107.706L97.3561 106.562L97.9505 106.341H98.0468C98.4152 106.284 99.8301 106.166 101.726 107.142C103.047 107.823 104.514 108.237 106.026 108.355C109.036 108.55 111.886 109.662 114.118 111.512L129.607 118.937L153.991 126.946C153.991 126.946 156.085 115.982 159.643 118.365C163.201 120.749 161.213 129.818 161.213 129.818Z" fill="#CC818C"/>
<path opacity="0.1" d="M103.223 121.857C102.015 123.223 100.671 124.665 100.331 124.715C99.6925 124.811 89.803 126.061 89.803 126.061L83.1036 123.273L82.4656 120.761L82.1636 121.434L78.9734 124.511L76.936 128.454L72.172 130.954L67.0465 128.55L64.707 125.473L65.2387 121.065C65.5067 120.542 66.2383 119.118 66.9061 117.918C67.2216 117.257 67.6183 116.63 68.0886 116.049C68.514 115.795 68.9606 113.068 68.9606 113.068C70.8917 108.033 77.3613 107.26 77.3613 107.26L78.395 108.137L78.8458 108.56C78.6629 108.533 78.8799 108.175 78.6459 108.233C78.2716 108.329 78.1057 108.841 77.6251 109.121C75.0091 110.66 70.9215 114.249 69.3051 115.953C68.9138 116.364 68.5097 116.768 68.0971 117.161C65.7619 119.395 66.1915 122.357 66.1915 122.357C65.6088 124.665 70.7641 126.396 70.7641 126.396C72.2018 124.234 81.9297 118.272 81.9297 118.272L88.4801 111.637C90.4878 108.475 94.4351 106.386 96.6384 105.409C97.6125 104.979 98.2505 104.763 98.2505 104.763L100.701 105.709C100.054 105.553 99.3692 105.58 98.7397 105.786C98.3781 105.888 98.0266 106.016 97.6891 106.171C97.5615 106.229 97.4339 106.29 97.3148 106.356C96.6448 106.707 96.015 107.119 95.4347 107.583L89.9306 113.018C85.7238 117.168 88.8927 123.88 95.1157 123.977H95.171C98.9736 124.769 101.7 123.176 103.223 121.857Z" fill="black"/>
<path opacity="0.1" d="M92.4386 244.191C92.4386 244.191 91.659 246.143 90.5844 248.781C86.4631 249.03 79.6575 247.74 77.0322 247.194L77.5885 244.918L92.4386 244.191Z" fill="black"/>
<path d="M78.8638 108.914L77.4978 107.658C77.4978 107.658 72.5675 108.263 69.5068 112.987C69.5068 112.987 68.0768 116.529 67.6371 116.781C67.1975 117.034 64.6704 121.984 64.6704 121.984C64.6704 121.984 61.6482 129.989 64.171 134.905C66.6938 139.82 66.8047 142.083 66.8047 142.083L68.6915 149.357L69.4727 155.735L76.2513 170.761L82.4921 178.735C82.4921 178.735 81.9073 184.62 80.6267 185.435C79.3461 186.251 79.9309 190.458 79.9309 190.458L79.1327 201.514C79.1327 201.514 76.6227 204.814 76.4648 210.174C76.3068 215.534 75.3976 217.065 75.3976 217.065C75.3976 217.065 74.9707 221.563 76.1446 223.623C77.3185 225.683 74.2749 227.834 74.2749 227.834L76.8916 235.824L75.8757 245.969C75.8757 245.969 87.9347 248.986 92.4168 247.742C96.8989 246.497 99.2467 247.359 99.2467 247.359L107.25 218.298L110.025 195.473C110.025 195.473 110.187 179.298 112.586 174.367C114.644 170.156 111.946 155.153 102.679 152.32C100.745 151.73 99.7632 149.763 98.1112 148.683C96.6343 147.722 94.2225 145.452 95.4049 141.348C97.0611 135.605 101.223 126.563 101.223 126.563L104.305 121.058C104.305 121.058 100.954 125.92 94.8201 124.675H94.7646C88.5195 124.576 85.3393 117.895 89.5611 113.768L95.0847 108.355C95.0847 108.355 98.1283 105.84 100.369 106.475L97.9149 105.534C97.9149 105.534 91.0039 107.831 88.0969 112.375L81.5232 118.979C81.5232 118.979 71.7692 124.886 70.3264 127.053C70.3264 127.053 65.1528 125.33 65.7376 123.033C65.7376 123.033 65.3107 120.081 67.6499 117.857C68.0768 117.474 68.4695 117.068 68.8623 116.659C70.9667 114.454 76.7849 108.604 78.8638 108.914Z" fill="#64743F"/>
<path opacity="0.1" d="M79.3426 147.901C79.3426 147.901 77.8782 158.142 78.9876 160.226L79.3426 147.901Z" fill="black"/>
<path opacity="0.1" d="M80.8838 152.523L82.363 157.915C82.363 157.915 82.8853 154.619 80.8838 152.523Z" fill="black"/>
<path opacity="0.1" d="M70.8691 150.982C70.8691 150.982 74.1756 165.772 77.802 170.24L70.8691 150.982Z" fill="black"/>
<path opacity="0.1" d="M94.2147 168.818C94.2147 168.818 88.4913 173.655 86.2754 173.303C86.2754 173.303 95.0786 173.644 97.8302 169.483C97.8302 169.495 96.0505 168.334 94.2147 168.818Z" fill="black"/>
<path opacity="0.1" d="M101.682 167.929C101.682 167.929 94.6099 172.87 93.208 173.322C93.208 173.322 100.85 171.225 101.682 167.929Z" fill="black"/>
<path opacity="0.1" d="M77.8024 133.265C77.8024 133.265 74.2076 136.71 72.4102 136.315C72.4102 136.315 76.8001 136.432 77.8024 133.265Z" fill="black"/>
<path opacity="0.1" d="M81.6533 138.657C81.6533 138.657 89.4978 129.042 93.2081 129.425C93.2081 129.425 84.3035 136.41 81.6533 138.657Z" fill="black"/>
<path opacity="0.1" d="M92.4383 134.806C92.4383 134.806 87.3116 137.126 87.857 137.804C88.4024 138.481 92.4383 134.806 92.4383 134.806Z" fill="black"/>
<path opacity="0.1" d="M96.2894 208.756C96.2894 208.756 79.3629 217.789 77.8018 218.231C77.8018 218.231 80.7127 220.256 83.4597 219.269C86.2068 218.283 96.2894 208.756 96.2894 208.756Z" fill="black"/>
<path opacity="0.1" d="M82.4241 227.35C82.4241 227.35 75.2156 226.649 75.4994 228.855C75.7831 231.06 82.4241 227.35 82.4241 227.35Z" fill="black"/>
<path opacity="0.1" d="M90.1274 90.8975C90.1274 90.8975 89.993 93.231 89.993 96.8699C88.4371 97.9763 86.6012 98.7468 84.6357 99.1182C82.6702 99.4896 80.6312 99.4513 78.6861 99.0065C78.0742 96.8271 77.2636 94.6935 76.2617 92.6258L90.1274 90.8975Z" fill="black"/>
<path d="M82.0393 98.6007C89.059 98.6007 94.7496 93.4274 94.7496 87.0459C94.7496 80.6644 89.059 75.4911 82.0393 75.4911C75.0197 75.4911 69.3291 80.6644 69.3291 87.0459C69.3291 93.4274 75.0197 98.6007 82.0393 98.6007Z" fill="#CC818C"/>
<path opacity="0.1" d="M85.8432 94.2323C86.2014 98.9408 87.2971 104.327 91.8232 106.695C95.0934 108.404 99.215 107.954 102.835 106.98C106.455 106.006 109.999 104.551 113.767 104.388C116.662 104.262 119.523 104.905 122.41 105.069C125.297 105.233 128.458 104.826 130.518 102.991C133.468 100.38 132.929 95.6331 130.135 92.8886C127.341 90.1442 122.971 89.1469 118.832 89.2497C113.775 89.3753 108.128 90.7723 104.129 88.0012C101.444 86.1361 100.429 82.9006 98.1698 80.6206C94.3981 76.8141 77.7182 71.3177 74.1866 77.5221C72.5304 80.4264 80.0571 82.5009 81.8017 84.6021C84.5579 87.9175 85.5145 89.8854 85.8432 94.2323Z" fill="black"/>
<path d="M85.8432 93.9143C86.2056 98.7366 87.2971 104.248 91.8232 106.667C95.0934 108.416 99.215 107.957 102.835 106.963C106.455 105.97 109.999 104.478 113.771 104.311C116.662 104.182 119.523 104.837 122.414 105.008C125.305 105.179 128.458 104.759 130.518 102.881C133.468 100.205 132.929 95.3517 130.135 92.5432C127.341 89.7348 122.971 88.7142 118.836 88.8194C113.779 88.944 108.128 90.3775 104.129 87.5379C101.444 85.6292 100.429 82.3222 98.1698 79.985C94.3981 76.0898 77.7182 70.469 74.1866 76.8182C72.5304 79.7864 80.057 81.9093 81.806 84.0633C84.5578 87.4522 85.5145 89.4621 85.8432 93.9143Z" fill="#FECC73"/>
<path opacity="0.1" d="M70.583 111.176C70.7787 109.835 71.3273 108.543 72.1921 107.386C73.0568 106.229 74.2179 105.234 75.5977 104.467" fill="black"/>
<path opacity="0.1" d="M118.489 186.406C118.452 186.775 118.357 187.138 118.206 187.481C117.682 188.963 117.051 190.409 116.318 191.809C117.386 191.722 118.265 190.93 118.717 190.017C119.112 189.077 119.33 188.08 119.361 187.07C119.4 186.754 119.41 186.436 119.389 186.119C119.361 185.825 119.161 184.7 118.645 184.9C118.23 185.066 118.497 186.108 118.489 186.406Z" fill="black"/>
<path opacity="0.1" d="M131.115 101.707C129.056 103.57 125.912 103.987 123.029 103.817C120.147 103.647 117.281 102.998 114.411 103.129C110.628 103.295 107.124 104.772 103.51 105.761C99.8957 106.75 95.7901 107.206 92.5249 105.471C88.0158 103.067 86.9232 97.5996 86.566 92.8196C86.2382 88.4067 85.2801 86.4089 82.536 83.0431C80.876 81.0067 73.9842 78.9973 74.7743 76.2615C74.5459 76.5082 74.3485 76.7778 74.186 77.0652C72.5344 80.0097 80.0398 82.1157 81.7837 84.2526C84.5278 87.6145 85.4818 89.6162 85.8095 94.0252C86.1709 98.8091 87.2593 104.277 91.7726 106.677C95.0336 108.412 99.1435 107.956 102.753 106.97C106.363 105.985 109.897 104.505 113.658 104.339C116.541 104.211 119.394 104.86 122.277 105.03C125.16 105.201 128.303 104.783 130.358 102.921C130.942 102.388 131.406 101.755 131.724 101.058C131.539 101.289 131.336 101.506 131.115 101.707Z" fill="#090909"/>
<path d="M69.668 119.881L68.1201 122.6L73.042 121.808L69.668 119.881Z" fill="#CC818C"/>
<path opacity="0.1" d="M69.6679 119.881L68.3943 122.6H68.1201L69.6679 119.881Z" fill="black"/>
<path opacity="0.1" d="M191.424 275.774C200.996 275.774 208.756 274.739 208.756 273.463C208.756 272.187 200.996 271.152 191.424 271.152C181.852 271.152 174.092 272.187 174.092 273.463C174.092 274.739 181.852 275.774 191.424 275.774Z" fill="#6C63FF"/>
<path opacity="0.1" d="M257.671 281.936C267.243 281.936 275.003 280.902 275.003 279.625C275.003 278.349 267.243 277.314 257.671 277.314C248.099 277.314 240.339 278.349 240.339 279.625C240.339 280.902 248.099 281.936 257.671 281.936Z" fill="#6C63FF"/>
<path opacity="0.1" d="M335.474 273.463C345.046 273.463 352.806 272.601 352.806 271.537C352.806 270.474 345.046 269.611 335.474 269.611C325.901 269.611 318.142 270.474 318.142 271.537C318.142 272.601 325.901 273.463 335.474 273.463Z" fill="#6C63FF"/>
<path d="M257.849 279.625C257.849 279.625 233.421 206.863 261.673 177.719C282.804 155.918 306.795 158.527 317.539 161.221C320.319 161.894 322.905 163.108 325.118 164.779C327.33 166.45 329.116 168.538 330.352 170.898C334.108 178.264 333.432 190.199 306.918 204.161C262.522 227.514 259.761 259.553 259.761 259.553L257.849 279.625Z" fill="#1F2413"/>
<path d="M313.519 171.781C313.519 171.781 242.067 192.194 258.086 279.625" stroke="white" stroke-miterlimit="10"/>
<path d="M271.922 178.714C271.922 178.714 281.232 184.871 278.275 194.12" stroke="#FDFDFF" stroke-miterlimit="10"/>
<path d="M306.586 184.106C306.586 184.106 300.333 179.091 292.721 181.857" stroke="#FCFCFF" stroke-miterlimit="10"/>
<path d="M278.085 212.145C278.085 212.145 267.68 207.258 264.989 213.378" stroke="#FEFEFE" stroke-miterlimit="10"/>
<path d="M251.894 222.66C251.894 222.66 260.217 222.051 260.367 225.703" stroke="white" stroke-miterlimit="10"/>
<path d="M257.286 279.625C257.286 279.625 285.369 226.878 293.085 228.033C296.75 228.58 298.439 231.91 299.203 235.252C300.145 239.578 299.603 244.068 297.651 248.096C293.668 256.532 282.963 272.56 257.286 279.625Z" fill="#1F2413"/>
<path d="M292.721 238.028C292.721 238.028 263.025 277.876 257.286 279.625" stroke="white" stroke-miterlimit="10"/>
<path d="M295.802 244.191H288.869" stroke="white" stroke-miterlimit="10"/>
<path d="M287.328 258.827L276.544 259.597" stroke="white" stroke-miterlimit="10"/>
<path d="M281.166 247.272L281.936 252.664" stroke="white" stroke-miterlimit="10"/>
<path d="M269.611 263.449V268.071" stroke="white" stroke-miterlimit="10"/>
<path d="M258.057 279.625C258.057 279.625 229.472 226.878 221.619 228.033C217.887 228.58 216.168 231.91 215.391 235.252C214.419 239.574 214.956 244.064 216.928 248.096C220.982 256.532 231.879 272.56 258.057 279.625Z" fill="#1F2413"/>
<path d="M221.852 238.028C221.852 238.028 251.547 277.876 257.286 279.625" stroke="white" stroke-miterlimit="10"/>
<path d="M219.541 244.191H226.474" stroke="white" stroke-miterlimit="10"/>
<path d="M227.244 258.827L238.799 259.597" stroke="white" stroke-miterlimit="10"/>
<path d="M234.176 247.272L232.636 252.664" stroke="white" stroke-miterlimit="10"/>
<path d="M245.731 263.449V268.071" stroke="white" stroke-miterlimit="10"/>
<path d="M306.496 291.941C307.253 291.384 307.804 290.631 308.077 289.782C308.278 288.922 307.875 287.895 306.973 287.581C305.96 287.23 304.877 287.865 304.058 288.507C303.239 289.15 302.296 289.886 301.221 289.748C301.773 289.293 302.186 288.717 302.419 288.074C302.652 287.432 302.697 286.746 302.551 286.083C302.507 285.807 302.378 285.548 302.18 285.335C301.62 284.79 300.599 285.025 299.924 285.455C297.783 286.822 297.186 289.46 297.178 291.837C296.959 290.977 297.141 290.084 297.136 289.221C297.132 288.358 296.865 287.353 296.049 286.897C295.546 286.644 294.978 286.515 294.402 286.523C293.439 286.494 292.368 286.579 291.709 287.218C290.886 288.011 291.104 289.344 291.817 290.208C292.529 291.071 293.608 291.627 294.6 292.233C295.4 292.662 296.082 293.251 296.593 293.955C296.654 294.052 296.703 294.155 296.741 294.261H302.773C304.124 293.644 305.376 292.863 306.496 291.941Z" fill="#1F2413"/>
<path d="M198.58 270.95C199.37 270.345 199.945 269.529 200.228 268.61C200.443 267.681 200.021 266.59 199.074 266.23C198.016 265.85 196.888 266.537 196.028 267.236C195.167 267.935 194.186 268.723 193.067 268.578C193.644 268.084 194.074 267.458 194.316 266.761C194.558 266.064 194.604 265.32 194.449 264.602C194.4 264.304 194.267 264.025 194.061 263.794C193.472 263.204 192.409 263.454 191.703 263.919C189.466 265.398 188.842 268.251 188.829 270.82C188.605 269.895 188.794 268.929 188.79 267.992C188.786 267.055 188.506 265.972 187.65 265.475C187.122 265.208 186.528 265.077 185.928 265.095C184.926 265.058 183.803 265.151 183.118 265.842C182.258 266.703 182.486 268.141 183.226 269.075C183.966 270.008 185.098 270.61 186.139 271.265C186.972 271.731 187.683 272.368 188.218 273.128C188.282 273.234 188.334 273.346 188.373 273.463H194.681C196.094 272.793 197.406 271.947 198.58 270.95Z" fill="#1F2413"/>
<path d="M234.781 291.941C235.573 291.384 236.15 290.631 236.435 289.782C236.646 288.922 236.224 287.895 235.281 287.581C234.221 287.23 233.089 287.865 232.232 288.507C231.375 289.15 230.389 289.886 229.265 289.748C229.843 289.294 230.276 288.717 230.52 288.075C230.765 287.433 230.813 286.746 230.661 286.083C230.614 285.807 230.48 285.548 230.273 285.335C229.687 284.79 228.62 285.025 227.913 285.455C225.674 286.822 225.05 289.46 225.042 291.837C224.813 290.977 225.003 290.084 224.998 289.221C224.994 288.358 224.714 287.353 223.862 286.897C223.335 286.644 222.741 286.515 222.139 286.523C221.132 286.494 220.012 286.579 219.323 287.218C218.462 288.011 218.691 289.344 219.435 290.208C220.18 291.071 221.308 291.627 222.346 292.233C223.183 292.662 223.896 293.251 224.43 293.955C224.494 294.052 224.546 294.155 224.585 294.261H230.893C232.304 293.643 233.611 292.863 234.781 291.941Z" fill="#1F2413"/>
<path d="M336.827 249.583C336.827 249.583 339.141 252.301 335.763 256.398C332.386 260.495 329.602 263.971 330.716 266.53C330.716 266.53 335.814 258.905 339.969 258.799C344.124 258.693 341.407 254.168 336.827 249.583Z" fill="#1F2413"/>
<path opacity="0.1" d="M336.762 249.583C336.967 249.845 337.127 250.131 337.239 250.434C341.335 254.71 343.513 258.702 339.578 258.804C335.916 258.895 331.522 264.725 330.467 266.197C330.502 266.31 330.543 266.421 330.59 266.53C330.59 266.53 335.745 258.91 339.948 258.804C344.151 258.698 341.394 254.165 336.762 249.583Z" fill="#1F2413"/>
<path d="M341.251 252.493C341.251 253.439 341.078 254.205 340.863 254.205C340.647 254.205 340.48 253.428 340.48 252.493C340.48 251.559 340.696 251.996 340.912 251.996C341.128 251.996 341.251 251.559 341.251 252.493Z" fill="#FFD037"/>
<path d="M342.828 254.21C341.625 254.752 340.573 255.08 340.486 254.945C340.4 254.811 341.294 254.255 342.498 253.712C343.701 253.17 343.229 253.564 343.316 253.712C343.403 253.86 344.043 253.667 342.828 254.21Z" fill="#FFD037"/>
<path d="M324.873 249.583C324.873 249.583 322.559 252.301 325.938 256.398C329.316 260.495 332.102 263.971 330.987 266.53C330.987 266.53 325.891 258.905 321.73 258.799C317.569 258.693 320.32 254.168 324.873 249.583Z" fill="#1F2413"/>
<path opacity="0.1" d="M324.589 249.583C324.398 249.845 324.247 250.132 324.141 250.434C320.321 254.71 318.288 258.702 321.957 258.804C325.38 258.895 329.501 264.725 330.466 266.197C330.434 266.31 330.394 266.422 330.347 266.53C330.347 266.53 325.538 258.91 321.611 258.804C317.684 258.698 320.293 254.165 324.589 249.583Z" fill="#1F2413"/>
<path d="M344.882 254.98C345.785 255.523 346.569 255.85 346.638 255.715C346.707 255.581 346.032 255.025 345.13 254.482C344.228 253.94 344.581 254.334 344.512 254.482C344.443 254.63 343.98 254.438 344.882 254.98Z" fill="#FFD037"/>
<path d="M321.223 265.982C321.223 265.982 327.639 265.795 329.577 264.481C331.515 263.168 339.448 261.603 339.928 263.709C340.408 265.815 349.569 274.175 342.326 274.231C335.082 274.287 325.496 273.156 323.566 272.034C321.636 270.911 321.223 265.982 321.223 265.982Z" fill="#1F2413"/>
<path opacity="0.2" d="M342.456 273.487C335.211 273.544 325.618 272.383 323.688 271.23C322.221 270.355 321.632 267.211 321.44 265.76H321.223C321.223 265.76 321.64 270.825 323.562 271.974C325.484 273.123 335.082 274.288 342.327 274.231C344.416 274.231 345.139 273.487 345.101 272.408C344.804 273.066 344.011 273.475 342.456 273.487Z" fill="black"/>
<defs>
<linearGradient id="paint0_linear" x1="130.186" y1="294.251" x2="130.186" y2="30.8008" gradientUnits="userSpaceOnUse">
<stop stop-color="#808080" stop-opacity="0.25"/>
<stop offset="0.54" stop-color="#808080" stop-opacity="0.12"/>
<stop offset="1" stop-color="#808080" stop-opacity="0.1"/>
</linearGradient>
</defs>
</svg>
