<svg width="423" height="548" viewBox="0 0 423 548" fill="none" xmlns="http://www.w3.org/2000/svg">
<path fill-rule="evenodd" clip-rule="evenodd" d="M25.0886 75.7485L25.0908 75.7485L25.0908 75.739C31.8705 75.7383 38.0037 73.0677 42.4372 68.7512C46.8697 64.4359 49.6123 58.4671 49.6136 51.8691L49.6234 51.8691L49.6234 51.8645L49.6234 51.8623L49.6136 51.8623C49.613 45.2619 46.8697 39.2906 42.4359 34.9748C38.0031 30.6595 31.8712 27.9894 25.0933 27.9882L25.0933 27.9786L25.0886 27.9786L25.0864 27.9786L25.0864 27.9882C18.3075 27.9888 12.1747 30.6595 7.74151 34.976C3.30934 39.2916 0.566708 45.2609 0.56545 51.8599L0.555666 51.8599L0.555666 51.8645L0.555666 51.8666L0.56545 51.8666C0.566066 58.4662 3.30933 64.4368 7.74278 68.7527C12.1756 73.0676 18.3065 75.7377 25.0838 75.739L25.0838 75.7485L25.0886 75.7485ZM25.0908 70.8277L25.0908 70.8182L25.0886 70.8182L25.0838 70.8182L25.0838 70.8277C19.7176 70.8268 14.8514 68.7013 11.3232 65.267C7.79405 61.8315 5.61043 57.0925 5.6101 51.8666L5.61994 51.8666L5.61994 51.8645L5.61994 51.8599L5.6101 51.8599C5.61105 46.6347 7.7944 41.8966 11.322 38.4617C14.8508 35.0256 19.7185 32.8997 25.0864 32.8994L25.0864 32.909L25.0886 32.909L25.0933 32.909L25.0933 32.8994C30.4602 32.9003 35.3273 35.0256 38.8555 38.4605C42.385 41.896 44.5686 46.6356 44.5689 51.8623L44.5591 51.8623L44.5591 51.8645L44.5591 51.8691L44.5689 51.8691C44.568 57.0934 42.3846 61.8308 38.8567 65.2654C35.3279 68.7012 30.4595 70.8274 25.0908 70.8277Z" fill="#FBEED9" fill-opacity="0.5"/>
<path fill-rule="evenodd" clip-rule="evenodd" d="M47.4603 275.134L47.4626 275.134L47.4626 275.125C53.8423 275.124 59.614 272.611 63.7853 268.55C67.9551 264.49 70.536 258.873 70.5373 252.665L70.5471 252.665L70.5471 252.66L70.5471 252.658L70.5373 252.658C70.5367 246.446 67.9555 240.828 63.7838 236.767C59.6127 232.706 53.8432 230.195 47.4651 230.193L47.4651 230.184L47.4603 230.184L47.4581 230.184L47.4581 230.193C41.0787 230.194 35.308 232.707 31.1373 236.768C26.9665 240.829 24.3865 246.446 24.3853 252.655L24.3755 252.655L24.3755 252.66L24.3755 252.662L24.3853 252.662C24.3859 258.873 26.9675 264.491 31.1385 268.551C35.3089 272.612 41.0784 275.124 47.4556 275.125L47.4556 275.134L47.4603 275.134ZM47.4626 270.214L47.4626 270.204L47.4603 270.204L47.4556 270.204L47.4556 270.214C42.4894 270.213 37.9848 268.245 34.7189 265.066C31.4522 261.886 29.4303 257.499 29.4299 252.662L29.4398 252.662L29.4398 252.66L29.4398 252.655L29.4299 252.655C29.4309 247.82 31.4515 243.434 34.7177 240.254C37.9841 237.073 42.49 235.105 47.4581 235.105L47.4581 235.114L47.4603 235.114L47.4651 235.114L47.4651 235.105C52.4322 235.106 56.9372 237.073 60.2033 240.253C63.4704 243.433 65.4923 247.82 65.4927 252.658L65.4828 252.658L65.4828 252.66L65.4828 252.665L65.4927 252.665C65.4917 257.499 63.4704 261.885 60.2049 265.064C56.9378 268.245 52.4312 270.213 47.4626 270.214Z" fill="#FBEED9" fill-opacity="0.5"/>
<path fill-rule="evenodd" clip-rule="evenodd" d="M47.4699 258.089L47.4721 258.089L47.4721 258.08C49.7327 258.079 51.7764 257.19 53.2514 255.754L53.2613 255.745C54.735 254.31 55.6472 252.322 55.6488 250.124L55.6585 250.124L55.6585 250.119L55.6585 250.117L55.6488 250.117C55.6481 247.916 54.7308 245.923 53.2499 244.481C51.7755 243.046 49.734 242.158 47.4747 242.157L47.4747 242.147L47.4699 242.147L47.4677 242.147L47.4677 242.157C45.2071 242.157 43.1606 243.05 41.6805 244.492C40.2068 245.927 39.2946 247.915 39.293 250.115L39.2832 250.115L39.2832 250.119L39.2832 250.121L39.293 250.121C39.2936 252.322 40.2106 254.314 41.6916 255.755C43.1656 257.19 45.2068 258.078 47.4652 258.08L47.4652 258.089L47.4699 258.089ZM47.4721 253.169L47.4721 253.159L47.4699 253.159L47.4652 253.159L47.4652 253.169C46.6055 253.168 45.8224 252.824 45.2524 252.27C44.6877 251.72 44.338 250.96 44.3377 250.121L44.3475 250.121L44.3475 250.119L44.3475 250.115L44.3377 250.115C44.3383 249.277 44.6912 248.514 45.2609 247.959C45.8256 247.409 46.6064 247.068 47.4677 247.068L47.4677 247.077L47.4699 247.077L47.4747 247.077L47.4747 247.068C48.3353 247.069 49.119 247.412 49.689 247.967C50.254 248.517 50.6037 249.277 50.604 250.117L50.5943 250.117L50.5943 250.119L50.5943 250.124L50.604 250.124C50.6034 250.956 50.2547 251.714 49.6906 252.268L49.6858 252.273L49.6808 252.278C49.1111 252.828 48.3296 253.168 47.4721 253.169Z" fill="#FBEED9" fill-opacity="0.5"/>
<path fill-rule="evenodd" clip-rule="evenodd" d="M219.825 516.055L219.827 516.055L219.827 516.045C223.234 516.045 226.312 514.706 228.533 512.544C230.753 510.383 232.127 507.388 232.128 504.075L232.138 504.075L232.138 504.07L232.138 504.068L232.128 504.068C232.128 500.752 230.753 497.755 228.532 495.593C226.311 493.431 223.235 492.094 219.83 492.092L219.83 492.083L219.825 492.083L219.823 492.083L219.823 492.092C216.424 492.093 213.347 493.435 211.12 495.604C208.9 497.766 207.526 500.757 207.525 504.066L207.515 504.066L207.515 504.07L207.515 504.072L207.525 504.072C207.526 507.387 208.9 510.383 211.121 512.545C213.342 514.707 216.417 516.044 219.82 516.045L219.82 516.055L219.825 516.055ZM219.827 511.134L219.827 511.124L219.825 511.124L219.82 511.124L219.82 511.134C217.829 511.133 216.018 510.34 214.702 509.059C213.385 507.778 212.57 506.013 212.57 504.072L212.579 504.072L212.579 504.07L212.579 504.066L212.57 504.066C212.57 502.118 213.385 500.352 214.7 499.07C216.011 497.794 217.823 497.004 219.823 497.004L219.823 497.013L219.825 497.013L219.83 497.013L219.83 497.004C221.824 497.004 223.635 497.797 224.951 499.078C226.268 500.36 227.083 502.126 227.084 504.068L227.074 504.068L227.074 504.07L227.074 504.075L227.084 504.075C227.083 506.014 226.269 507.777 224.953 509.058C223.636 510.34 221.823 511.134 219.827 511.134Z" fill="#FBEED9" fill-opacity="0.5"/>
<path fill-rule="evenodd" clip-rule="evenodd" d="M226.507 381.769L226.509 381.769L226.509 381.759C231.732 381.759 236.455 379.703 239.868 376.38C243.28 373.058 245.391 368.462 245.392 363.38L245.402 363.38L245.402 363.376L245.402 363.373L245.392 363.373C245.392 358.289 243.279 353.691 239.866 350.368C236.454 347.047 231.733 344.991 226.512 344.99L226.512 344.98L226.507 344.98L226.505 344.98L226.505 344.99C221.29 344.99 216.566 347.05 213.148 350.379C209.737 353.701 207.625 358.295 207.624 363.371L207.614 363.371L207.614 363.376L207.614 363.378L207.624 363.378C207.624 368.461 209.736 373.059 213.149 376.381C216.561 379.703 221.283 381.758 226.502 381.759L226.502 381.769L226.507 381.769ZM226.509 376.848L226.509 376.839L226.507 376.839L226.502 376.839L226.502 376.848C222.694 376.847 219.237 375.337 216.73 372.896C214.221 370.454 212.669 367.087 212.668 363.378L212.678 363.378L212.678 363.376L212.678 363.371L212.668 363.371C212.669 359.656 214.221 356.287 216.728 353.846C219.231 351.409 222.688 349.901 226.505 349.901L226.505 349.911L226.507 349.911L226.512 349.911L226.512 349.901C230.321 349.902 233.778 351.413 236.286 353.854C238.795 356.296 240.347 359.663 240.348 363.373L240.338 363.373L240.338 363.376L240.338 363.38L240.348 363.38C240.347 367.088 238.795 370.453 236.287 372.894C233.779 375.337 230.32 376.848 226.509 376.848Z" fill="#FBEED9" fill-opacity="0.5"/>
<path fill-rule="evenodd" clip-rule="evenodd" d="M202.645 311.677L202.647 311.677L202.647 311.667C206.923 311.667 210.788 309.984 213.58 307.266C216.371 304.549 218.099 300.788 218.1 296.627L218.11 296.627L218.11 296.623L218.11 296.62L218.1 296.62C218.099 292.458 216.371 288.694 213.579 285.976C210.788 283.259 206.924 281.577 202.649 281.576L202.649 281.567L202.645 281.567L202.642 281.567L202.642 281.576C198.374 281.577 194.508 283.262 191.71 285.987C188.92 288.705 187.192 292.464 187.191 296.618L187.181 296.618L187.181 296.623L187.181 296.625L187.191 296.625C187.192 300.778 188.922 304.539 191.717 307.263L191.712 307.268C194.503 309.984 198.367 311.666 202.64 311.667L202.64 311.677L202.645 311.677ZM202.647 306.756L202.647 306.746L202.645 306.746L202.64 306.746L202.64 306.756C199.778 306.755 197.179 305.618 195.292 303.782L195.283 303.782C193.401 301.95 192.236 299.419 192.236 296.625L192.246 296.625L192.246 296.623L192.246 296.618L192.236 296.618C192.237 293.825 193.404 291.291 195.291 289.454C197.172 287.622 199.772 286.488 202.642 286.487L202.642 286.497L202.645 286.497L202.649 286.497L202.649 286.487C205.512 286.488 208.111 287.625 209.999 289.462C211.886 291.3 213.055 293.832 213.055 296.62L213.045 296.62L213.045 296.623L213.045 296.627L213.055 296.627C213.054 299.414 211.886 301.944 210 303.78C208.112 305.618 205.511 306.756 202.647 306.756Z" fill="#FBEED9" fill-opacity="0.5"/>
<path fill-rule="evenodd" clip-rule="evenodd" d="M210.163 263.381L210.165 263.381L210.165 263.372C212.433 263.371 214.479 262.482 215.954 261.046L215.954 261.037C217.428 259.601 218.34 257.614 218.341 255.416L218.351 255.416L218.351 255.411L218.351 255.409L218.341 255.409C218.341 253.208 217.423 251.215 215.942 249.773C214.468 248.338 212.427 247.45 210.167 247.449L210.167 247.439L210.163 247.439L210.16 247.439L210.16 247.449C207.9 247.449 205.853 248.342 204.373 249.784C202.899 251.219 201.987 253.207 201.986 255.407L201.976 255.407L201.976 255.411L201.976 255.413L201.986 255.413C201.986 257.613 202.903 259.606 204.384 261.047C205.859 262.482 207.899 263.37 210.158 263.372L210.158 263.381L210.163 263.381ZM210.165 258.461L210.165 258.451L210.163 258.451L210.158 258.451L210.158 258.461C209.298 258.46 208.515 258.116 207.945 257.562C207.38 257.012 207.031 256.252 207.03 255.413L207.04 255.413L207.04 255.411L207.04 255.407L207.03 255.407C207.031 254.569 207.384 253.806 207.954 253.251C208.518 252.701 209.299 252.36 210.16 252.36L210.16 252.369L210.163 252.369L210.167 252.369L210.167 252.36C211.028 252.361 211.812 252.704 212.382 253.259C212.947 253.809 213.296 254.569 213.297 255.409L213.287 255.409L213.287 255.411L213.287 255.416L213.297 255.416C213.296 256.25 212.945 257.011 212.378 257.565L212.373 257.561C211.803 258.116 211.021 258.46 210.165 258.461Z" fill="#FBEED9" fill-opacity="0.5"/>
<path fill-rule="evenodd" clip-rule="evenodd" d="M185.85 166.01L185.852 166.01L185.852 166C191.075 166 195.798 163.943 199.211 160.621C202.623 157.299 204.734 152.702 204.735 147.621L204.745 147.621L204.745 147.616L204.745 147.614L204.735 147.614C204.735 142.539 202.62 137.941 199.204 134.614L199.209 134.609C195.797 131.287 191.075 129.232 185.855 129.23L185.855 129.221L185.85 129.221L185.848 129.221L185.848 129.23C180.633 129.231 175.909 131.291 172.491 134.62C169.08 137.942 166.968 142.535 166.967 147.612L166.957 147.612L166.957 147.616L166.957 147.618L166.967 147.618C166.967 152.702 169.079 157.3 172.492 160.622L172.502 160.622C175.914 163.943 180.632 165.999 185.845 166L185.845 166.01L185.85 166.01ZM185.852 161.089L185.852 161.079L185.85 161.079L185.845 161.079L185.845 161.089C182.033 161.088 178.575 159.579 176.068 157.141L176.073 157.136C173.564 154.694 172.012 151.328 172.011 147.618L172.021 147.618L172.021 147.616L172.021 147.612L172.011 147.612C172.012 143.896 173.564 140.528 176.071 138.087C178.574 135.65 182.031 134.142 185.848 134.142L185.848 134.151L185.85 134.151L185.855 134.151L185.855 134.142C189.664 134.143 193.121 135.653 195.629 138.095L195.639 138.095C198.141 140.531 199.69 143.897 199.691 147.614L199.681 147.614L199.681 147.616L199.681 147.621L199.691 147.621C199.69 151.328 198.138 154.693 195.63 157.135C193.122 159.577 189.663 161.089 185.852 161.089Z" fill="#FBEED9" fill-opacity="0.5"/>
<path fill-rule="evenodd" clip-rule="evenodd" d="M27.8139 60.7046L27.8161 60.7046L27.8161 60.695C30.0767 60.6944 32.1201 59.8051 33.5954 58.3694L33.6052 58.3599C35.0789 56.9249 35.9912 54.9376 35.9927 52.739L36.0025 52.739L36.0025 52.7344L36.0025 52.7323L35.9927 52.7323C35.9921 50.5309 35.0748 48.5378 33.5938 47.0963C32.1195 45.6615 30.078 44.7735 27.8187 44.7719L27.8187 44.7624L27.8139 44.7624L27.8117 44.7624L27.8117 44.7719C25.5511 44.7725 23.5045 45.6655 22.0245 47.1074C20.5508 48.5427 19.6386 50.5302 19.637 52.7298L19.6272 52.7298L19.6272 52.7344L19.6272 52.7365L19.637 52.7365C19.6376 54.9367 20.5546 56.9292 22.0356 58.3707C23.5096 59.8054 25.5508 60.6935 27.8092 60.695L27.8092 60.7046L27.8139 60.7046ZM27.8161 55.7838L27.8161 55.7743L27.8139 55.7743L27.8092 55.7743L27.8092 55.7838C26.9495 55.7832 26.1664 55.4396 25.5964 54.885C25.0317 54.3355 24.682 53.575 24.6817 52.7365L24.6915 52.7365L24.6915 52.7344L24.6915 52.7298L24.6817 52.7298C24.6823 51.8919 25.0352 51.1289 25.6049 50.574C26.1696 50.0239 26.9504 49.6834 27.8117 49.6831L27.8117 49.6927L27.8139 49.6927L27.8187 49.6927L27.8187 49.6831C28.6793 49.6838 29.4629 50.0273 30.033 50.582C30.598 51.1317 30.9477 51.8925 30.948 52.7322L30.9383 52.7322L30.9383 52.7344L30.9383 52.739L30.948 52.739C30.9474 53.571 30.5987 54.3297 30.0346 54.8837L30.0298 54.8886L30.0248 54.8932C29.4551 55.4433 28.6736 55.7835 27.8161 55.7838Z" fill="#FBEED9" fill-opacity="0.5"/>
<path fill-rule="evenodd" clip-rule="evenodd" d="M342.405 353.892C342.405 353.892 343.478 377.918 339.615 389.827C335.753 401.735 328.381 419.533 308.177 423.986C293.058 427.318 278.327 420.991 272.017 410.51C262.826 395.244 271.452 379.623 279.528 374.575C288.219 369.144 300.915 371.209 307.373 377.97C321.244 392.491 301.539 413.772 287.682 402.362C280.898 396.776 284.173 384.753 292.833 383.873C300.456 383.098 303.139 390.088 300.992 393.901C298.903 397.61 294.85 397.934 293.025 396.989C289.93 395.385 289.427 392.05 291.435 390.076C293.321 388.222 296.578 389.008 297.075 391.119C297.697 393.762 296.192 394.789 293.906 394.841" fill="#FBEED9" fill-opacity="0.5"/>
<path fill-rule="evenodd" clip-rule="evenodd" d="M378.532 281.876L378.534 281.876L378.534 281.867C384.478 281.866 389.853 279.526 393.739 275.743C397.623 271.962 400.026 266.73 400.028 260.946L400.038 260.946L400.038 260.942L400.038 260.94L400.028 260.94C400.027 255.153 397.623 249.92 393.737 246.137C389.853 242.356 384.478 240.016 378.537 240.015L378.537 240.005L378.532 240.005L378.53 240.005L378.53 240.015C372.588 240.015 367.212 242.356 363.327 246.139C359.444 249.92 357.04 255.153 357.038 260.937L357.029 260.937L357.029 260.942L357.029 260.944L357.038 260.944C357.039 266.729 359.443 271.962 363.329 275.744C367.213 279.526 372.587 281.866 378.527 281.867L378.527 281.876L378.532 281.876ZM378.534 276.956L378.534 276.946L378.532 276.946L378.527 276.946L378.527 276.956C373.998 276.955 369.889 275.159 366.909 272.259C363.928 269.357 362.083 265.355 362.083 260.944L362.093 260.944L362.093 260.942L362.093 260.937L362.083 260.937C362.084 256.526 363.928 252.526 366.908 249.624C369.888 246.722 373.999 244.926 378.53 244.926L378.53 244.935L378.532 244.935L378.537 244.935L378.537 244.926C383.067 244.927 387.177 246.722 390.157 249.623C393.138 252.525 394.983 256.527 394.983 260.94L394.973 260.94L394.973 260.942L394.973 260.946L394.983 260.946C394.982 265.356 393.138 269.356 390.158 272.257C387.177 275.16 383.067 276.955 378.534 276.956Z" fill="#FBEED9" fill-opacity="0.5"/>
<path fill-rule="evenodd" clip-rule="evenodd" d="M378.546 268.912L378.548 268.912L378.548 268.903C380.816 268.902 382.862 268.013 384.337 266.577L384.337 266.567C385.811 265.132 386.723 263.145 386.724 260.947L386.734 260.947L386.734 260.942L386.734 260.94L386.724 260.94C386.724 258.739 385.807 256.746 384.326 255.304C382.851 253.869 380.81 252.981 378.55 252.979L378.55 252.97L378.546 252.97L378.543 252.97L378.543 252.979C376.283 252.98 374.237 253.873 372.756 255.315C371.282 256.75 370.37 258.738 370.369 260.937L370.359 260.937L370.359 260.942L370.359 260.944L370.369 260.944C370.369 263.145 371.287 265.137 372.767 266.578C374.242 268.013 376.283 268.901 378.541 268.903L378.541 268.912L378.546 268.912ZM378.548 263.991L378.548 263.982L378.546 263.982L378.541 263.982L378.541 263.991C377.681 263.991 376.898 263.647 376.328 263.092C375.763 262.543 375.414 261.783 375.413 260.944L375.423 260.944L375.423 260.942L375.423 260.937L375.413 260.937C375.414 260.099 375.767 259.336 376.337 258.782C376.901 258.231 377.682 257.891 378.543 257.891L378.543 257.9L378.546 257.9L378.55 257.9L378.55 257.891C379.411 257.891 380.195 258.235 380.765 258.79C381.33 259.339 381.679 260.1 381.68 260.94L381.67 260.94L381.67 260.942L381.67 260.947L381.68 260.947C381.679 261.781 381.328 262.542 380.761 263.096L380.756 263.091C380.186 263.647 379.404 263.991 378.548 263.991Z" fill="#FBEED9" fill-opacity="0.5"/>
<path fill-rule="evenodd" clip-rule="evenodd" d="M167.654 63.8342C167.654 63.8342 164.34 88.4339 158.232 99.8635C152.125 111.293 141.372 128.097 120.026 129.111C104.053 129.871 90.2437 120.883 85.7532 109.137C79.2127 92.0286 90.8404 77.6535 99.9716 73.9279C109.798 69.9185 121.814 74.0731 126.893 82.2142C137.145 98.648 115.154 117.58 103.165 103.579C97.2949 96.7239 102.869 84.6418 111.787 85.6862C118.506 86.4731 120.753 93.8855 118.24 97.2933C115.625 100.839 111.259 100.325 109.578 99.0471C106.727 96.8804 106.828 93.404 109.23 91.7473C111.486 90.1903 114.652 91.5549 114.77 93.7867C114.917 96.5802 113.2 97.3624 110.867 97.0178" fill="#FBEED9" fill-opacity="0.5"/>
<path fill-rule="evenodd" clip-rule="evenodd" d="M117.114 269.766C111.45 235.172 121.662 209.337 126.613 195.493C129.267 188.073 133.527 174.391 137.796 165.286C143.305 153.539 151.26 136.923 154.912 126.864C160.196 112.308 165.842 96.7674 167.51 81.3097C165.589 86.6655 162.689 94.026 159.285 100.397C151.09 115.734 138.802 129.338 119.868 130.055C98.2645 130.872 79.4652 116.099 82.7479 94.4614C84.3561 83.8618 92.1611 72.9411 103.571 71.7637C111.974 70.8963 123.016 73.9738 127.85 81.723C134.345 92.1352 129.366 107.44 116.872 109.95C108.061 111.72 98.5655 104.14 99.6581 95.2925C100.056 92.0683 101.67 88.9033 104.249 86.8098C106.325 85.1246 108.962 84.1927 111.926 84.54C115.392 84.9458 118.282 87.0909 119.637 90.2241C120.673 92.6183 121.155 94.8425 118.669 98.19C116.659 100.896 109.976 101.996 108.132 97.6454C105.454 91.3324 113.961 88.4689 115.048 94.1687C115.511 96.5956 111.937 97.2842 110.877 96.4477C109.119 95.0604 111.13 93.0282 112.307 93.9082C112.871 94.3292 112.691 96.2693 113.856 95.5236C115.518 94.4608 113.008 92.1484 111.247 92.2356C108.632 92.3654 107.83 95.4481 109.103 97.1987C111.1 99.9424 115.372 99.9965 117.785 97.0094C121.723 92.1364 116.045 86.4478 110.899 85.8462C103.671 85.2362 97.3035 96.3947 103.218 103.052C106.568 106.966 111.853 107.671 115.782 106.882C126.535 104.722 131.274 91.4542 125.882 82.8107C121.574 75.9048 112.789 73.2687 104.23 73.7159C92.9954 74.3025 83.6139 89.5806 88.0713 106.381C93.6807 127.523 123.434 136.982 144.023 117.615C158.564 103.938 165.996 68.7049 167.519 60.8351C165.923 43.0191 160.695 23.0561 154.524 0.000616659L163.665 0.000617458C180.754 50.4947 173.319 78.511 169.075 97.9996C164.89 117.221 153.326 140.218 146.819 153.941C136.018 176.719 131.672 187.914 128.648 195.853C124.329 207.19 113.539 232.18 117.114 269.766Z" fill="#FBEED9" fill-opacity="0.5"/>
<path fill-rule="evenodd" clip-rule="evenodd" d="M360.77 86.7861C343.957 55.8152 345.071 28.1551 345.174 13.495C345.199 9.96795 345.114 5.14603 345.104 0.000663757L347.763 0.00066399C347.448 5.4819 347.319 9.64725 347.22 13.1978C346.884 25.2842 344.944 52.3279 360.77 86.7861Z" fill="#FBEED9" fill-opacity="0.5"/>
<path fill-rule="evenodd" clip-rule="evenodd" d="M305.215 294.483C302.821 290.766 276.205 291.383 277.386 332.332C306.786 327.84 314.667 300.45 307.628 296.945C307.974 298.284 308.291 301.842 306.966 304.627C305.464 307.782 302.081 310.018 298.411 308.252C294.796 306.513 295.142 302.29 297.475 299.229C299.599 296.442 303.49 294.735 305.215 294.483Z" fill="#FBEED9" fill-opacity="0.5"/>
<path fill-rule="evenodd" clip-rule="evenodd" d="M296.139 284.988C296.411 283.181 287.807 276.379 276.823 289.664C287.384 295.97 297.479 289.364 296.221 286.403C295.959 286.918 295.072 288.129 293.88 288.663C292.529 289.268 290.837 289.087 290.164 287.563C289.501 286.061 290.782 284.814 292.37 284.457C293.816 284.133 295.522 284.614 296.139 284.988Z" fill="#FBEED9" fill-opacity="0.5"/>
<path fill-rule="evenodd" clip-rule="evenodd" d="M307.548 212.902C305.765 213.002 300.907 222.119 315.74 229.534C319.748 218.736 311.481 210.844 308.887 212.556C309.431 212.694 310.761 213.266 311.501 214.245C312.34 215.355 312.492 216.926 311.162 217.83C309.852 218.72 308.411 217.797 307.764 216.424C307.176 215.174 307.309 213.533 307.548 212.902Z" fill="#FBEED9" fill-opacity="0.5"/>
<path fill-rule="evenodd" clip-rule="evenodd" d="M343.932 210.766C341.456 213.628 348.909 234.506 382.754 222.898C371.343 200.828 346.444 201.738 345.357 208.216C346.383 207.594 349.268 206.416 351.936 206.737C354.959 207.102 357.705 209.193 357.19 212.554C356.682 215.865 353.069 216.693 349.908 215.647C347.03 214.694 344.592 212.064 343.932 210.766Z" fill="#FBEED9" fill-opacity="0.5"/>
<path fill-rule="evenodd" clip-rule="evenodd" d="M364.889 198.31C364.133 200.958 375.665 212.687 394.629 194.866C380.08 183.518 363.734 191.533 365.041 196.183C365.53 195.462 367.088 193.817 368.971 193.238C371.105 192.582 373.596 193.163 374.306 195.561C375.006 197.924 372.853 199.551 370.413 199.793C368.192 200.013 365.737 198.981 364.889 198.31Z" fill="#FBEED9" fill-opacity="0.5"/>
<path fill-rule="evenodd" clip-rule="evenodd" d="M364.648 96.0446C361.057 97.3801 357.188 119.16 392.572 124.969C393.572 100.28 371.338 89.3322 367.163 94.4863C368.37 94.4255 371.481 94.7561 373.654 96.2956C376.118 98.0405 377.479 101.166 375.356 103.862C373.264 106.52 369.691 105.54 367.446 103.134C365.403 100.943 364.579 97.4916 364.648 96.0446Z" fill="#FBEED9" fill-opacity="0.5"/>
<path fill-rule="evenodd" clip-rule="evenodd" d="M338.989 44.47C336.46 42.3572 317.808 48.4807 327.874 77.1396C347.619 67.6855 347.008 46.6628 341.248 45.693C341.794 46.5639 342.82 49.0089 342.512 51.2579C342.163 53.8067 340.279 56.1078 337.29 55.6458C334.345 55.1904 333.637 52.1344 334.594 49.4749C335.465 47.0536 337.827 45.0167 338.989 44.47Z" fill="#FBEED9" fill-opacity="0.5"/>
<path fill-rule="evenodd" clip-rule="evenodd" d="M353.577 6.26111C350.348 7.23752 345.696 26.1478 376.426 33.1797C378.727 11.5593 359.837 0.733346 355.875 5.03035C356.938 5.04291 359.65 5.503 361.47 6.97328C363.532 8.63974 364.547 11.4578 362.528 13.7095C360.538 15.928 357.458 14.8725 355.626 12.6376C353.958 10.6026 353.433 7.5277 353.577 6.26111Z" fill="#FBEED9" fill-opacity="0.5"/>
<path fill-rule="evenodd" clip-rule="evenodd" d="M265.286 63.2858C261.461 63.6502 251.816 83.6606 284.366 98.3657C292.033 74.8121 273.56 58.5332 268.134 62.43C269.315 62.682 272.225 63.801 273.904 65.845C275.806 68.1616 276.271 71.5259 273.491 73.5806C270.752 75.605 267.573 73.7407 266.061 70.8428C264.685 68.2041 264.827 64.6637 265.286 63.2858Z" fill="#FBEED9" fill-opacity="0.5"/>
<path fill-rule="evenodd" clip-rule="evenodd" d="M271.871 54.233C270.437 55.2694 271.515 65.4868 288.095 63.76C285.358 52.5922 273.999 50.4121 272.796 53.2284C273.328 53.0537 274.762 52.8213 275.933 53.2443C277.26 53.7238 278.273 54.9556 277.67 56.4217C277.077 57.8662 275.352 57.8645 274.038 57.0625C272.841 56.3321 272.027 54.8888 271.871 54.233Z" fill="#FBEED9" fill-opacity="0.5"/>
<path fill-rule="evenodd" clip-rule="evenodd" d="M264.11 211.798C262.15 213.776 266.552 229.437 291.946 222.559C284.704 205.835 266.41 205.303 265.284 209.998C266.067 209.592 268.242 208.867 270.181 209.231C272.378 209.644 274.284 211.309 273.736 213.747C273.195 216.15 270.505 216.582 268.242 215.663C266.181 214.827 264.528 212.781 264.11 211.798Z" fill="#FBEED9" fill-opacity="0.5"/>
<path fill-rule="evenodd" clip-rule="evenodd" d="M245.814 213.194C244.629 212.737 238.668 217.221 245.987 226.362C251.916 220.541 248.996 213.011 246.789 213.361C247.098 213.61 247.783 214.369 247.96 215.22C248.161 216.184 247.775 217.246 246.634 217.443C245.511 217.636 244.863 216.617 244.867 215.539C244.872 214.557 245.465 213.533 245.814 213.194Z" fill="#FBEED9" fill-opacity="0.5"/>
<path fill-rule="evenodd" clip-rule="evenodd" d="M238.341 195.458C240.744 195.805 246.188 208.732 225.164 217.021C221.084 201.917 233.271 192.204 236.57 194.83C235.817 194.953 233.943 195.571 232.818 196.81C231.542 198.214 231.14 200.324 232.829 201.706C234.493 203.068 236.56 201.988 237.608 200.205C238.562 198.581 238.587 196.342 238.341 195.458Z" fill="#FBEED9" fill-opacity="0.5"/>
<path fill-rule="evenodd" clip-rule="evenodd" d="M233.247 186.17C234.966 183.753 227.544 167.959 201.953 179.485C212.561 195.924 231.97 193.414 232.327 188.267C231.572 188.829 229.404 189.959 227.293 189.9C224.9 189.833 222.592 188.395 222.739 185.729C222.884 183.102 225.647 182.194 228.2 182.783C230.524 183.321 232.632 185.202 233.247 186.17Z" fill="#FBEED9" fill-opacity="0.5"/>
<path fill-rule="evenodd" clip-rule="evenodd" d="M329.271 296.963C328.611 293.658 343.858 280.42 365.248 303.969C346.354 316.458 327.187 305.132 329.245 299.575C329.772 300.502 331.511 302.658 333.752 303.542C336.293 304.543 339.393 304.069 340.499 301.207C341.588 298.387 339.12 296.197 336.164 295.672C333.473 295.195 330.374 296.224 329.271 296.963Z" fill="#FBEED9" fill-opacity="0.5"/>
<path fill-rule="evenodd" clip-rule="evenodd" d="M348.133 340.012C346.218 341.614 348.796 355.917 371.999 351.855C366.983 336.375 350.738 334.415 349.333 338.505C350.065 338.206 352.064 337.737 353.759 338.219C355.68 338.765 357.235 340.403 356.538 342.53C355.85 344.625 353.418 344.792 351.481 343.79C349.718 342.877 348.421 340.922 348.133 340.012Z" fill="#FBEED9" fill-opacity="0.5"/>
<path fill-rule="evenodd" clip-rule="evenodd" d="M351.481 356.225C349.87 357.127 349.711 367.814 367.062 367.986C365.624 356.121 354.155 352.527 352.561 355.296C353.133 355.178 354.644 355.107 355.802 355.683C357.114 356.335 358.007 357.728 357.202 359.172C356.409 360.595 354.626 360.389 353.368 359.405C352.222 358.509 351.56 356.922 351.481 356.225Z" fill="#FBEED9" fill-opacity="0.5"/>
<path fill-rule="evenodd" clip-rule="evenodd" d="M309.581 432.422C307.867 428.792 283.758 426.31 279.889 463.422C306.98 462.724 317.398 438.89 311.464 434.922C311.615 436.17 311.472 439.42 309.94 441.783C308.204 444.461 304.879 446.093 301.778 444.08C298.723 442.096 299.544 438.322 302.02 435.824C304.274 433.55 307.993 432.453 309.581 432.422Z" fill="#FBEED9" fill-opacity="0.5"/>
<path fill-rule="evenodd" clip-rule="evenodd" d="M325.084 421.558C323.114 420.516 311.731 427.106 322.506 444.577C334.125 435.645 330.677 421.899 326.747 422.053C327.233 422.551 328.262 424.018 328.385 425.54C328.525 427.264 327.619 429.037 325.586 429.144C323.583 429.249 322.674 427.335 322.918 425.454C323.14 423.742 324.399 422.077 325.084 421.558Z" fill="#FBEED9" fill-opacity="0.5"/>
<path fill-rule="evenodd" clip-rule="evenodd" d="M351.936 455.633C351.698 453.463 362.301 445.737 374.773 462.102C361.858 469.147 350.124 460.796 351.77 457.318C352.058 457.945 353.058 459.432 354.455 460.124C356.039 460.908 358.068 460.769 358.946 458.981C359.81 457.219 358.341 455.67 356.462 455.172C354.751 454.718 352.69 455.215 351.936 455.633Z" fill="#FBEED9" fill-opacity="0.5"/>
<path fill-rule="evenodd" clip-rule="evenodd" d="M349.179 468.347C350.858 465.72 369.629 466.091 368.9 494.971C348.156 491.874 342.529 472.578 347.484 470.09C347.243 471.034 347.029 473.545 347.97 475.505C349.037 477.726 351.429 479.295 354.012 478.041C356.557 476.806 356.302 473.828 354.65 471.675C353.145 469.715 350.397 468.521 349.179 468.347Z" fill="#FBEED9" fill-opacity="0.5"/>
<path fill-rule="evenodd" clip-rule="evenodd" d="M332.307 514.744C330.016 512.869 313.325 518.533 322.631 544.178C340.273 535.514 339.528 516.642 334.346 515.822C334.845 516.599 335.789 518.786 335.534 520.808C335.244 523.1 333.573 525.183 330.885 524.794C328.237 524.411 327.573 521.673 328.407 519.277C329.167 517.095 331.269 515.245 332.307 514.744Z" fill="#FBEED9" fill-opacity="0.5"/>
<path fill-rule="evenodd" clip-rule="evenodd" d="M151.288 8.91564C150.099 4.66356 124.329 -2.28912 113.214 37.4095C142.82 41.427 158.59 17.3316 152.871 11.9672C152.804 13.3518 152.044 16.8626 149.937 19.1636C147.55 21.7711 143.629 22.9606 140.629 20.2235C137.674 17.5267 139.27 13.5645 142.428 11.2835C145.304 9.20708 149.554 8.66877 151.288 8.91564Z" fill="#FBEED9" fill-opacity="0.5"/>
<path fill-rule="evenodd" clip-rule="evenodd" d="M223.998 102.206C226.203 102.802 229.75 115.504 209.106 120.876C207.093 106.294 219.645 98.5911 222.417 101.419C221.698 101.449 219.873 101.815 218.672 102.846C217.312 104.015 216.685 105.942 218.099 107.425C219.492 108.886 221.554 108.11 222.746 106.561C223.832 105.151 224.122 103.06 223.998 102.206Z" fill="#FBEED9" fill-opacity="0.5"/>
<path fill-rule="evenodd" clip-rule="evenodd" d="M108.341 221.188C106.426 219.064 89.5656 222.12 94.639 248.042C112.861 242.244 114.982 224.037 110.135 222.513C110.497 223.33 111.074 225.561 110.525 227.464C109.903 229.621 107.988 231.381 105.468 230.626C102.985 229.882 102.759 227.161 103.92 224.981C104.976 222.996 107.27 221.521 108.341 221.188Z" fill="#FBEED9" fill-opacity="0.5"/>
<path fill-rule="evenodd" clip-rule="evenodd" d="M120.159 275.684C122.572 272.764 145.088 275.878 139.882 310.501C115.402 303.829 111.528 279.826 117.859 277.539C117.428 278.64 116.794 281.628 117.632 284.119C118.582 286.942 121.223 289.168 124.517 288.028C127.763 286.904 127.903 283.287 126.238 280.464C124.722 277.893 121.597 276.066 120.159 275.684Z" fill="#FBEED9" fill-opacity="0.5"/>
<path fill-rule="evenodd" clip-rule="evenodd" d="M141.521 182.658C144.363 180.13 166.127 186.553 155.553 219.998C132.406 209.766 132.341 185.469 138.957 184.149C138.358 185.173 137.263 188.032 137.701 190.619C138.197 193.55 140.458 196.142 143.892 195.504C147.276 194.876 147.982 191.323 146.779 188.285C145.684 185.519 142.882 183.249 141.521 182.658Z" fill="#FBEED9" fill-opacity="0.5"/>
<path fill-rule="evenodd" clip-rule="evenodd" d="M145.946 174.479C144.935 175.912 149.36 185.237 164.467 178.367C158.157 168.667 146.686 170.193 146.486 173.237C146.931 172.903 148.211 172.231 149.459 172.261C150.874 172.295 152.242 173.141 152.161 174.718C152.081 176.272 150.449 176.815 148.939 176.471C147.563 176.158 146.312 175.05 145.946 174.479Z" fill="#FBEED9" fill-opacity="0.5"/>
<path fill-rule="evenodd" clip-rule="evenodd" d="M112.634 137.089C111.975 133.403 90.7596 125.531 78.1226 158.228C102.82 163.915 118.118 144.768 113.722 139.791C113.552 140.956 112.623 143.865 110.654 145.647C108.423 147.666 105.012 148.368 102.7 145.823C100.422 143.314 102.095 140.089 104.951 138.405C107.551 136.872 111.188 136.746 112.634 137.089Z" fill="#FBEED9" fill-opacity="0.5"/>
<path fill-rule="evenodd" clip-rule="evenodd" d="M129.036 131.747C126.978 130.31 113.268 136.143 122.829 157.199C137.141 148.774 135.256 132.894 130.829 132.529C131.302 133.153 132.244 134.939 132.163 136.662C132.071 138.614 130.8 140.477 128.505 140.319C126.245 140.163 125.502 137.894 126.047 135.819C126.543 133.93 128.193 132.236 129.036 131.747Z" fill="#FBEED9" fill-opacity="0.5"/>
<path fill-rule="evenodd" clip-rule="evenodd" d="M177.356 76.333C175.573 76.4345 170.722 85.5552 185.561 92.959C189.56 82.1581 181.287 74.2726 178.695 75.986C179.238 76.1239 180.569 76.6949 181.31 77.6737C182.15 78.783 182.303 80.3534 180.974 81.2583C179.664 82.1498 178.223 81.2279 177.575 79.8556C176.985 78.6061 177.117 76.9646 177.356 76.333Z" fill="#FBEED9" fill-opacity="0.5"/>
<path fill-rule="evenodd" clip-rule="evenodd" d="M179.568 61.7452C177.326 62.6458 175.257 76.4486 197.679 79.54C197.888 63.9489 183.674 57.4023 181.128 60.7214C181.889 60.6635 183.857 60.8217 185.255 61.7577C186.838 62.8186 187.751 64.7681 186.457 66.5038C185.183 68.2139 182.912 67.6534 181.455 66.1719C180.129 64.8229 179.55 62.6591 179.568 61.7452Z" fill="#FBEED9" fill-opacity="0.5"/>
<path fill-rule="evenodd" clip-rule="evenodd" d="M172.616 17.9136C170.182 19.6277 171.779 36.831 199.697 34.2584C195.33 15.4237 176.274 11.5307 174.191 16.2426C175.09 15.9594 177.507 15.5973 179.467 16.332C181.689 17.165 183.365 19.2565 182.321 21.71C181.293 24.1273 178.393 24.0898 176.199 22.7148C174.202 21.4627 172.864 19.0194 172.616 17.9136Z" fill="#FBEED9" fill-opacity="0.5"/>
<path fill-rule="evenodd" clip-rule="evenodd" d="M227.433 73.8883C226.17 70.5765 205.085 66.8212 199.13 99.2899C223.062 100.435 233.881 80.0986 228.921 76.2143C228.969 77.3245 228.62 80.1804 227.107 82.1642C225.393 84.4123 222.35 85.6352 219.754 83.659C217.196 81.7118 218.179 78.4373 220.533 76.3961C222.676 74.538 226.03 73.8121 227.433 73.8883Z" fill="#FBEED9" fill-opacity="0.5"/>
<path fill-rule="evenodd" clip-rule="evenodd" d="M354.53 545.787C337.525 531.57 338.768 497.05 343.504 439.744C344.152 431.908 346.442 416.565 347.143 406.574C348.13 392.512 346.665 377.625 344.97 363.652C344.553 369.092 343.526 379.207 341.338 387.987C337.152 404.788 328.566 420.86 310.358 425.968C289.584 431.796 267.699 421.833 265.566 400.06C264.522 389.394 269.415 376.972 280.204 373.17C288.15 370.369 299.627 370.784 306.225 377.182C315.091 385.778 314.021 401.798 302.507 407.146C294.387 410.918 283.304 405.771 282.189 396.926C281.783 393.703 282.572 390.254 284.561 387.62C286.163 385.5 288.494 383.981 291.457 383.627C294.922 383.214 298.255 384.623 300.342 387.349C301.936 389.433 302.951 391.48 301.36 395.309C300.074 398.405 293.856 401.03 290.995 397.236C286.843 391.731 294.399 386.968 296.856 392.249C297.902 394.497 294.601 395.999 293.366 395.433C291.318 394.496 292.771 392.054 294.131 392.634C294.781 392.912 295.084 394.837 296.032 393.842C297.383 392.423 294.378 390.763 292.69 391.258C290.182 391.993 290.162 395.173 291.829 396.576C294.442 398.775 298.603 397.832 300.212 394.369C302.837 388.72 295.925 384.52 290.781 385.135C283.613 386.227 280.174 398.545 287.553 403.631C291.769 406.65 297.073 406.103 300.694 404.421C310.603 399.818 311.942 385.832 304.582 378.696C298.702 372.995 289.524 372.483 281.323 374.911C270.56 378.099 265.207 395.119 273.666 410.392C284.31 429.612 315.524 431.863 330.753 408.261C343.494 391.273 341.14 350.468 340.783 345.14C338.472 337.794 335.484 330.533 332.264 324.486C317.673 297.079 293.262 274.919 263.862 233.553C234.462 192.186 227 156.959 227.859 126.852C228.718 96.7443 233.654 67.4821 243.962 42.8109C252.733 21.8195 264.769 4.65424 268.165 6.45645e-05L283.012 6.58624e-05C253.624 33.3789 235.18 89.3023 238.167 130.615C242.244 187.006 253.27 205.973 280.601 243.372C329.631 310.462 322.751 290.875 342.111 335.51C350.76 355.451 351.158 399.812 349.517 414.455C348.657 422.123 347.195 428.416 346.041 440.09C343.832 462.426 334.143 529.909 354.53 545.787Z" fill="#FBEED9" fill-opacity="0.5"/>
<path fill-rule="evenodd" clip-rule="evenodd" d="M299.51 0.000385857C247.231 57.3864 233.086 140.663 284.291 188.828C315.81 218.475 361.357 203.994 369.944 171.63C376.768 145.911 362.406 122.523 345.208 121.625C332.105 120.941 318.657 124.976 312.062 135.548C303.808 148.78 311.063 169.09 327.524 172.397C333.538 173.604 341.628 172.525 346.758 166.534C355.811 156.343 346.063 139.261 334.999 140.195C327.121 141.116 318.429 149.824 324.457 157.284C328.152 161.857 334.692 161.774 337.747 157.574C339.697 154.893 338.47 150.174 334.465 149.976C331.77 149.843 327.929 153.382 330.472 155.009C332.255 156.151 331.981 153.181 332.843 152.536C334.645 151.189 337.723 154.3 335.033 156.424C333.41 157.704 327.938 156.65 328.647 152.935C330.311 144.209 343.334 148.593 339.235 158.257C336.411 164.917 326.182 163.234 323.104 159.091C319.299 153.967 320.036 150.562 321.622 146.897C323.696 142.1 328.121 138.817 333.426 138.195C337.964 137.663 342 139.09 345.179 141.67C349.127 144.875 351.597 149.72 352.207 154.655C353.879 168.2 339.343 179.804 325.855 177.094C306.728 173.252 299.107 149.822 309.05 133.883C316.45 122.02 333.352 117.309 346.217 118.637C363.683 120.439 375.632 137.157 378.094 153.383C383.119 186.507 354.34 209.122 321.269 207.87C292.284 206.774 273.473 185.948 260.928 162.47C237.888 119.352 249.402 43.1884 293.346 0.000385318L299.51 0.000385857Z" fill="#FBEED9" fill-opacity="0.5"/>
<path fill-rule="evenodd" clip-rule="evenodd" d="M406.105 461.998L406.107 461.998L406.107 461.988C411.33 461.988 416.053 459.932 419.466 456.609C422.878 453.287 424.989 448.691 424.99 443.609L425 443.609L425 443.605L425 443.602L424.99 443.602C424.99 438.518 422.877 433.92 419.464 430.597C416.052 427.276 411.331 425.22 406.11 425.219L406.11 425.209L406.105 425.209L406.103 425.209L406.103 425.219C400.888 425.219 396.164 427.279 392.746 430.608C389.335 433.93 387.223 438.524 387.222 443.6L387.212 443.6L387.212 443.605L387.212 443.607L387.222 443.607C387.222 448.69 389.334 453.288 392.747 456.61C396.159 459.932 400.88 461.987 406.1 461.988L406.1 461.998L406.105 461.998ZM406.107 457.077L406.107 457.068L406.105 457.068L406.1 457.068L406.1 457.077C402.292 457.076 398.835 455.566 396.328 453.125C393.819 450.683 392.266 447.316 392.266 443.607L392.276 443.607L392.276 443.605L392.276 443.6L392.266 443.6C392.267 439.885 393.819 436.516 396.326 434.075C398.829 431.638 402.286 430.13 406.103 430.13L406.103 430.14L406.105 430.14L406.11 430.14L406.11 430.13C409.919 430.131 413.376 431.642 415.884 434.083C418.393 436.525 419.945 439.892 419.946 443.602L419.936 443.602L419.936 443.605L419.936 443.609L419.946 443.609C419.945 447.317 418.393 450.682 415.885 453.123C413.377 455.566 409.918 457.077 406.107 457.077Z" fill="#FBEED9" fill-opacity="0.5"/>
</svg>
