<svg width="425" height="589" viewBox="0 0 425 589" fill="none" xmlns="http://www.w3.org/2000/svg">
<path fill-rule="evenodd" clip-rule="evenodd" d="M399.911 513.251L399.909 513.251L399.909 513.261C393.129 513.262 386.996 515.932 382.563 520.249C378.13 524.564 375.388 530.533 375.386 537.131L375.377 537.131L375.377 537.136L375.377 537.138L375.386 537.138C375.387 543.738 378.13 549.709 382.564 554.025C386.997 558.34 393.129 561.011 399.907 561.012L399.907 561.021L399.911 561.021L399.914 561.021L399.914 561.012C406.692 561.011 412.825 558.34 417.258 554.024C421.691 549.708 424.433 543.739 424.435 537.14L424.444 537.14L424.444 537.136L424.444 537.133L424.435 537.133C424.434 530.534 421.691 524.563 417.257 520.247C412.824 515.932 406.693 513.262 399.916 513.261L399.916 513.251L399.911 513.251ZM399.909 518.172L399.909 518.182L399.911 518.182L399.916 518.182L399.916 518.172C405.282 518.173 410.149 520.299 413.677 523.733C417.206 527.169 419.39 531.908 419.39 537.133L419.38 537.133L419.38 537.136L419.38 537.14L419.39 537.14C419.389 542.365 417.206 547.103 413.678 550.538C410.149 553.974 405.281 556.1 399.914 556.101L399.914 556.091L399.911 556.091L399.907 556.091L399.907 556.101C394.54 556.1 389.673 553.974 386.145 550.54C382.615 547.104 380.431 542.364 380.431 537.138L380.441 537.138L380.441 537.136L380.441 537.131L380.431 537.131C380.432 531.907 382.615 527.169 386.143 523.735C389.672 520.299 394.54 518.173 399.909 518.172Z" fill="#FBEED9" fill-opacity="0.5"/>
<path fill-rule="evenodd" clip-rule="evenodd" d="M377.54 313.866L377.537 313.866L377.537 313.875C371.158 313.876 365.386 316.389 361.215 320.45C357.045 324.51 354.464 330.127 354.463 336.335L354.453 336.335L354.453 336.34L354.453 336.342L354.463 336.342C354.463 342.554 357.045 348.172 361.216 352.233C365.387 356.294 371.157 358.805 377.535 358.807L377.535 358.816L377.54 358.816L377.542 358.816L377.542 358.807C383.921 358.806 389.692 356.293 393.863 352.232C398.033 348.171 400.613 342.554 400.615 336.345L400.625 336.345L400.625 336.34L400.625 336.338L400.615 336.338C400.614 330.127 398.033 324.509 393.861 320.449C389.691 316.388 383.922 313.876 377.544 313.875L377.544 313.866L377.54 313.866ZM377.537 318.786L377.537 318.796L377.54 318.796L377.544 318.796L377.544 318.786C382.511 318.787 387.015 320.755 390.281 323.934C393.548 327.114 395.57 331.501 395.57 336.338L395.56 336.338L395.56 336.34L395.56 336.345L395.57 336.345C395.569 341.18 393.548 345.566 390.282 348.746C387.016 351.927 382.51 353.895 377.542 353.895L377.542 353.886L377.54 353.886L377.535 353.886L377.535 353.895C372.568 353.894 368.063 351.927 364.797 348.747C361.53 345.567 359.508 341.18 359.507 336.342L359.517 336.342L359.517 336.34L359.517 336.335L359.507 336.335C359.508 331.501 361.53 327.115 364.795 323.936C368.062 320.755 372.569 318.787 377.537 318.786Z" fill="#FBEED9" fill-opacity="0.5"/>
<path fill-rule="evenodd" clip-rule="evenodd" d="M377.53 330.911L377.528 330.911L377.528 330.92C375.267 330.921 373.224 331.81 371.749 333.246L371.739 333.255C370.265 334.69 369.353 336.678 369.351 338.876L369.341 338.876L369.341 338.881L369.341 338.883L369.351 338.883C369.352 341.084 370.269 343.077 371.75 344.519C373.224 345.954 375.266 346.842 377.525 346.843L377.525 346.853L377.53 346.853L377.532 346.853L377.532 346.843C379.793 346.843 381.839 345.95 383.319 344.508C384.793 343.073 385.705 341.085 385.707 338.885L385.717 338.885L385.717 338.881L385.717 338.879L385.707 338.879C385.706 336.678 384.789 334.686 383.308 333.245C381.834 331.81 379.793 330.922 377.535 330.92L377.535 330.911L377.53 330.911ZM377.528 335.831L377.528 335.841L377.53 335.841L377.535 335.841L377.535 335.831C378.394 335.832 379.178 336.176 379.748 336.73C380.312 337.28 380.662 338.04 380.662 338.879L380.653 338.879L380.653 338.881L380.653 338.885L380.662 338.885C380.662 339.723 380.309 340.486 379.739 341.041C379.174 341.591 378.394 341.932 377.532 341.932L377.532 341.923L377.53 341.923L377.525 341.923L377.525 341.932C376.665 341.931 375.881 341.588 375.311 341.033C374.746 340.483 374.396 339.723 374.396 338.883L374.406 338.883L374.406 338.881L374.406 338.876L374.396 338.876C374.397 338.044 374.745 337.286 375.309 336.732L375.314 336.727L375.319 336.722C375.889 336.172 376.67 335.832 377.528 335.831Z" fill="#FBEED9" fill-opacity="0.5"/>
<path fill-rule="evenodd" clip-rule="evenodd" d="M399.786 18.3931L399.784 18.3931L399.784 18.4026C397.325 18.4032 395.097 19.3724 393.485 20.938L393.48 20.943L393.475 20.9476C391.868 22.517 390.873 24.6829 390.872 27.0744L390.862 27.0744L390.862 27.0791L390.862 27.0812L390.872 27.0812C390.872 29.4801 391.872 31.6522 393.486 33.2232C395.093 34.7876 397.319 35.7558 399.781 35.7574L399.781 35.7669L399.786 35.7669L399.788 35.7669L399.788 35.7574C402.251 35.7567 404.482 34.7836 406.095 33.2124C407.702 31.6473 408.696 29.4804 408.698 27.0837L408.708 27.0837L408.708 27.0791L408.708 27.0769L408.698 27.0769C408.697 24.6814 407.7 22.5117 406.089 20.9414L406.094 20.9365C404.487 19.3721 402.258 18.4042 399.791 18.4026L399.791 18.3931L399.786 18.3931ZM399.784 23.3139L399.784 23.3234L399.786 23.3234L399.791 23.3234L399.791 23.3139C400.847 23.3145 401.81 23.7378 402.513 24.4222L402.523 24.4222C403.221 25.1014 403.653 26.0406 403.653 27.0769L403.643 27.0769L403.643 27.0791L403.643 27.0837L403.653 27.0837C403.653 28.1194 403.217 29.0614 402.515 29.7458C401.817 30.4252 400.852 30.8458 399.788 30.8461L399.788 30.8366L399.786 30.8366L399.781 30.8366L399.781 30.8461C398.717 30.8455 397.75 30.4218 397.047 29.7374C396.349 29.0583 395.917 28.1184 395.916 27.0812L395.926 27.0812L395.926 27.0791L395.926 27.0744L395.916 27.0744C395.917 26.0397 396.348 25.102 397.045 24.4238L397.055 24.4142C397.753 23.7348 398.718 23.3142 399.784 23.3139Z" fill="#FBEED9" fill-opacity="0.5"/>
<path fill-rule="evenodd" clip-rule="evenodd" d="M233.123 11.4751L233.12 11.4751L233.12 11.4847C229.714 11.4853 226.636 12.8235 224.415 14.9861C222.194 17.1471 220.821 20.1414 220.819 23.4549L220.81 23.4549L220.81 23.4595L220.81 23.4616L220.819 23.4616C220.82 26.7782 222.194 29.7746 224.416 31.9372C226.637 34.0988 229.713 35.4358 233.118 35.4374L233.118 35.447L233.123 35.447L233.125 35.447L233.125 35.4374C236.523 35.4368 239.601 34.0951 241.828 31.9261C244.048 29.7641 245.421 26.7723 245.423 23.4641L245.433 23.4641L245.433 23.4595L245.433 23.4573L245.423 23.4573C245.422 20.1423 244.047 17.1465 241.826 14.9846C239.606 12.8232 236.531 11.4862 233.127 11.4847L233.127 11.4751L233.123 11.4751ZM233.12 16.3959L233.12 16.4054L233.123 16.4054L233.127 16.4054L233.127 16.3959C235.119 16.3965 236.93 17.1893 238.246 18.4703C239.563 19.7522 240.378 21.5163 240.378 23.4573L240.368 23.4573L240.368 23.4595L240.368 23.4641L240.378 23.4641C240.378 25.4116 239.563 27.1782 238.247 28.4595C236.937 29.7358 235.125 30.5259 233.125 30.5262L233.125 30.5166L233.123 30.5166L233.118 30.5166L233.118 30.5262C231.124 30.5256 229.313 29.7327 227.997 28.4514C226.68 27.1696 225.864 25.4042 225.864 23.4616L225.874 23.4616L225.874 23.4595L225.874 23.4549L225.864 23.4549C225.865 21.5154 226.679 19.7528 227.995 18.4718C229.312 17.19 231.125 16.3962 233.12 16.3959Z" fill="#FBEED9" fill-opacity="0.5"/>
<path fill-rule="evenodd" clip-rule="evenodd" d="M205.175 72.9453L205.173 72.9453L205.173 72.9549C201.766 72.9555 198.688 74.2938 196.467 76.4563C194.247 78.6173 192.873 81.6116 192.872 84.9251L192.862 84.9251L192.862 84.9297L192.862 84.9319L192.872 84.9319C192.872 88.2484 194.247 91.2448 196.468 93.4074C198.689 95.569 201.765 96.9061 205.17 96.9076L205.17 96.9172L205.175 96.9172L205.177 96.9172L205.177 96.9076C208.576 96.907 211.653 95.5653 213.88 93.3963C216.1 91.2343 217.474 88.2426 217.475 84.9343L217.485 84.9343L217.485 84.9297L217.485 84.9275L217.475 84.9275C217.474 81.6125 216.1 78.6167 213.879 76.4548C211.658 74.2935 208.583 72.9564 205.18 72.9549L205.18 72.9453L205.175 72.9453ZM205.173 77.8661L205.173 77.8756L205.175 77.8756L205.18 77.8756L205.18 77.8661C207.171 77.8667 208.982 78.6596 210.298 79.9405C211.615 81.2224 212.43 82.9865 212.43 84.9275L212.421 84.9275L212.421 84.9297L212.421 84.9343L212.43 84.9343C212.43 86.8818 211.615 88.6484 210.3 89.9297C208.989 91.206 207.177 91.9961 205.177 91.9964L205.177 91.9868L205.175 91.9868L205.17 91.9868L205.17 91.9964C203.176 91.9958 201.365 91.2029 200.049 89.9216C198.732 88.6398 197.917 86.8744 197.916 84.9319L197.926 84.9319L197.926 84.9297L197.926 84.9251L197.916 84.9251C197.917 82.9856 198.731 81.223 200.047 79.942C201.364 78.6602 203.177 77.8664 205.173 77.8661Z" fill="#FBEED9" fill-opacity="0.5"/>
<path fill-rule="evenodd" clip-rule="evenodd" d="M198.493 207.231L198.491 207.231L198.491 207.241C193.268 207.241 188.545 209.297 185.132 212.62C181.72 215.942 179.609 220.538 179.608 225.62L179.598 225.62L179.598 225.624L179.598 225.627L179.608 225.627C179.608 230.711 181.721 235.309 185.134 238.632C188.546 241.953 193.267 244.009 198.488 244.01L198.488 244.02L198.493 244.02L198.495 244.02L198.495 244.01C203.71 244.01 208.434 241.95 211.852 238.621C215.263 235.299 217.375 230.705 217.376 225.629L217.386 225.629L217.386 225.624L217.386 225.622L217.376 225.622C217.376 220.539 215.264 215.941 211.851 212.619C208.439 209.297 203.717 207.242 198.498 207.241L198.498 207.231L198.493 207.231ZM198.491 212.152L198.491 212.161L198.493 212.161L198.498 212.161L198.498 212.152C202.306 212.153 205.763 213.663 208.27 216.104C210.779 218.546 212.331 221.913 212.332 225.622L212.322 225.622L212.322 225.624L212.322 225.629L212.332 225.629C212.331 229.344 210.779 232.713 208.272 235.154C205.769 237.591 202.312 239.099 198.495 239.099L198.495 239.089L198.493 239.089L198.488 239.089L198.488 239.099C194.679 239.098 191.222 237.587 188.714 235.146C186.205 232.704 184.653 229.337 184.652 225.627L184.662 225.627L184.662 225.624L184.662 225.62L184.652 225.62C184.653 221.912 186.205 218.547 188.713 216.106C191.221 213.663 194.68 212.152 198.491 212.152Z" fill="#FBEED9" fill-opacity="0.5"/>
<path fill-rule="evenodd" clip-rule="evenodd" d="M222.355 277.323L222.353 277.323L222.353 277.333C218.077 277.333 214.212 279.016 211.42 281.734C208.629 284.451 206.901 288.212 206.9 292.373L206.89 292.373L206.89 292.377L206.89 292.38L206.9 292.38C206.901 296.542 208.629 300.306 211.421 303.024C214.212 305.741 218.076 307.423 222.351 307.424L222.351 307.433L222.355 307.433L222.358 307.433L222.358 307.424C226.626 307.423 230.492 305.738 233.29 303.013C236.08 300.295 237.808 296.536 237.809 292.382L237.819 292.382L237.819 292.377L237.819 292.375L237.809 292.375C237.808 288.222 236.078 284.461 233.283 281.737L233.288 281.732C230.497 279.016 226.633 277.334 222.36 277.333L222.36 277.323L222.355 277.323ZM222.353 282.244L222.353 282.254L222.355 282.254L222.36 282.254L222.36 282.244C225.222 282.245 227.821 283.382 229.708 285.218L229.717 285.218C231.599 287.05 232.764 289.581 232.764 292.375L232.754 292.375L232.754 292.377L232.754 292.382L232.764 292.382C232.763 295.175 231.596 297.709 229.709 299.546C227.828 301.378 225.228 302.512 222.358 302.513L222.358 302.503L222.355 302.503L222.351 302.503L222.351 302.513C219.488 302.512 216.889 301.375 215.001 299.538C213.114 297.7 211.945 295.168 211.945 292.38L211.955 292.38L211.955 292.377L211.955 292.373L211.945 292.373C211.946 289.586 213.114 287.056 215 285.22C216.888 283.382 219.489 282.244 222.353 282.244Z" fill="#FBEED9" fill-opacity="0.5"/>
<path fill-rule="evenodd" clip-rule="evenodd" d="M214.837 325.619L214.835 325.619L214.835 325.628C212.567 325.629 210.521 326.518 209.046 327.954L209.046 327.963C207.572 329.399 206.66 331.386 206.659 333.584L206.649 333.584L206.649 333.589L206.649 333.591L206.659 333.591C206.659 335.792 207.577 337.785 209.058 339.227C210.532 340.662 212.573 341.55 214.833 341.551L214.833 341.561L214.837 341.561L214.84 341.561L214.84 341.551C217.1 341.551 219.147 340.658 220.627 339.216C222.101 337.781 223.013 335.793 223.014 333.593L223.024 333.593L223.024 333.589L223.024 333.587L223.014 333.587C223.014 331.387 222.097 329.394 220.616 327.953C219.141 326.518 217.101 325.63 214.842 325.628L214.842 325.619L214.837 325.619ZM214.835 330.539L214.835 330.549L214.837 330.549L214.842 330.549L214.842 330.539C215.702 330.54 216.485 330.884 217.055 331.438C217.62 331.988 217.969 332.748 217.97 333.587L217.96 333.587L217.96 333.589L217.96 333.593L217.97 333.593C217.969 334.431 217.616 335.194 217.046 335.749C216.482 336.299 215.701 336.64 214.84 336.64L214.84 336.631L214.837 336.631L214.833 336.631L214.833 336.64C213.972 336.639 213.188 336.296 212.618 335.741C212.053 335.191 211.704 334.431 211.703 333.591L211.713 333.591L211.713 333.589L211.713 333.584L211.703 333.584C211.704 332.75 212.055 331.989 212.622 331.435L212.627 331.439C213.197 330.884 213.979 330.54 214.835 330.539Z" fill="#FBEED9" fill-opacity="0.5"/>
<path fill-rule="evenodd" clip-rule="evenodd" d="M239.15 422.99L239.148 422.99L239.148 423C233.925 423 229.202 425.057 225.789 428.379C222.377 431.701 220.266 436.298 220.265 441.379L220.255 441.379L220.255 441.384L220.255 441.386L220.265 441.386C220.265 446.461 222.38 451.059 225.796 454.386L225.791 454.391C229.203 457.713 233.925 459.768 239.145 459.77L239.145 459.779L239.15 459.779L239.152 459.779L239.152 459.77C244.367 459.769 249.091 457.709 252.509 454.38C255.92 451.058 258.032 446.465 258.033 441.388L258.043 441.388L258.043 441.384L258.043 441.382L258.033 441.382C258.033 436.298 255.921 431.7 252.508 428.378L252.498 428.378C249.086 425.057 244.368 423.001 239.155 423L239.155 422.99L239.15 422.99ZM239.148 427.911L239.148 427.921L239.15 427.921L239.155 427.921L239.155 427.911C242.967 427.912 246.425 429.421 248.932 431.859L248.927 431.864C251.436 434.306 252.988 437.672 252.989 441.382L252.979 441.382L252.979 441.384L252.979 441.388L252.989 441.388C252.988 445.104 251.436 448.472 248.929 450.913C246.426 453.35 242.969 454.858 239.152 454.858L239.152 454.849L239.15 454.849L239.145 454.849L239.145 454.858C235.336 454.857 231.879 453.347 229.371 450.905L229.361 450.905C226.859 448.469 225.31 445.103 225.309 441.386L225.319 441.386L225.319 441.384L225.319 441.379L225.309 441.379C225.31 437.672 226.862 434.307 229.37 431.865C231.878 429.423 235.337 427.911 239.148 427.911Z" fill="#FBEED9" fill-opacity="0.5"/>
<path fill-rule="evenodd" clip-rule="evenodd" d="M397.186 528.295L397.184 528.295L397.184 528.305C394.923 528.306 392.88 529.195 391.405 530.631L391.395 530.64C389.921 532.075 389.009 534.062 389.007 536.261L388.997 536.261L388.997 536.266L388.997 536.268L389.007 536.268C389.008 538.469 389.925 540.462 391.406 541.904C392.881 543.338 394.922 544.227 397.181 544.228L397.181 544.238L397.186 544.238L397.188 544.238L397.188 544.228C399.449 544.227 401.495 543.334 402.976 541.893C404.449 540.457 405.361 538.47 405.363 536.27L405.373 536.27L405.373 536.266L405.373 536.263L405.363 536.263C405.362 534.063 404.445 532.071 402.964 530.629C401.49 529.195 399.449 528.307 397.191 528.305L397.191 528.295L397.186 528.295ZM397.184 533.216L397.184 533.226L397.186 533.226L397.191 533.226L397.191 533.216C398.05 533.217 398.834 533.56 399.404 534.115C399.968 534.664 400.318 535.425 400.318 536.263L400.309 536.263L400.309 536.266L400.309 536.27L400.318 536.27C400.318 537.108 399.965 537.871 399.395 538.426C398.83 538.976 398.05 539.317 397.188 539.317L397.188 539.307L397.186 539.307L397.181 539.307L397.181 539.317C396.321 539.316 395.537 538.973 394.967 538.418C394.402 537.868 394.052 537.107 394.052 536.268L394.062 536.268L394.062 536.266L394.062 536.261L394.052 536.261C394.053 535.429 394.401 534.67 394.965 534.116L394.97 534.111L394.975 534.107C395.545 533.557 396.326 533.217 397.184 533.216Z" fill="#FBEED9" fill-opacity="0.5"/>
<path fill-rule="evenodd" clip-rule="evenodd" d="M82.5949 235.108C82.5949 235.108 81.5219 211.082 85.3847 199.173C89.2475 187.265 96.6192 169.467 116.823 165.014C131.942 161.682 146.673 168.009 152.983 178.49C162.174 193.756 153.548 209.377 145.472 214.425C136.781 219.856 124.085 217.791 117.627 211.03C103.756 196.509 123.461 175.228 137.318 186.638C144.102 192.224 140.827 204.247 132.167 205.127C124.544 205.902 121.861 198.912 124.008 195.099C126.097 191.39 130.15 191.066 131.975 192.011C135.07 193.615 135.573 196.95 133.565 198.924C131.679 200.778 128.422 199.992 127.925 197.881C127.303 195.238 128.808 194.211 131.094 194.159" fill="#FBEED9" fill-opacity="0.5"/>
<path fill-rule="evenodd" clip-rule="evenodd" d="M46.4679 307.124L46.4657 307.124L46.4657 307.133C40.5224 307.134 35.1467 309.474 31.2614 313.257C27.3775 317.038 24.9735 322.27 24.9723 328.054L24.9624 328.054L24.9624 328.058L24.9624 328.06L24.9723 328.06C24.9729 333.847 27.3771 339.08 31.2627 342.863C35.1473 346.644 40.5218 348.984 46.4632 348.985L46.4632 348.995L46.4679 348.995L46.4701 348.995L46.4701 348.985C52.4124 348.985 57.7878 346.644 61.6727 342.861C65.5564 339.08 67.9603 333.847 67.9616 328.063L67.9714 328.063L67.9714 328.058L67.9714 328.056L67.9616 328.056C67.961 322.271 65.5567 317.038 61.6712 313.256C57.7865 309.474 52.4127 307.134 46.4727 307.133L46.4727 307.124L46.4679 307.124ZM46.4657 312.044L46.4657 312.054L46.4679 312.054L46.4727 312.054L46.4727 312.044C51.0017 312.045 55.111 313.841 58.0907 316.741C61.0717 319.643 62.9166 323.645 62.9169 328.056L62.9072 328.056L62.9072 328.058L62.9072 328.063L62.9169 328.063C62.916 332.474 61.0717 336.474 58.0923 339.376C55.1117 342.278 51.0011 344.074 46.4701 344.074L46.4701 344.065L46.4679 344.065L46.4632 344.065L46.4632 344.074C41.9328 344.073 37.8232 342.278 34.8432 339.377C31.8619 336.475 30.0172 332.473 30.0169 328.06L30.0268 328.06L30.0268 328.058L30.0268 328.054L30.0169 328.054C30.0179 323.644 31.8622 319.644 34.8419 316.743C37.8229 313.84 41.9335 312.045 46.4657 312.044Z" fill="#FBEED9" fill-opacity="0.5"/>
<path fill-rule="evenodd" clip-rule="evenodd" d="M46.4544 320.088L46.4522 320.088L46.4522 320.097C44.1843 320.098 42.1378 320.987 40.6631 322.423L40.6631 322.433C39.1894 323.868 38.2772 325.855 38.2756 328.053L38.2658 328.053L38.2658 328.058L38.2658 328.06L38.2756 328.06C38.2762 330.261 39.1929 332.254 40.6745 333.696C42.1488 335.131 44.1904 336.019 46.4497 336.021L46.4497 336.03L46.4544 336.03L46.4566 336.03L46.4566 336.021C48.7166 336.02 50.7635 335.127 52.2438 333.685C53.7175 332.25 54.6297 330.262 54.6313 328.063L54.6411 328.063L54.6411 328.058L54.6411 328.056L54.6313 328.056C54.6307 325.855 53.7134 323.863 52.2327 322.422C50.7584 320.987 48.7175 320.099 46.4591 320.097L46.4591 320.088L46.4544 320.088ZM46.4522 325.009L46.4522 325.018L46.4544 325.018L46.4591 325.018L46.4591 325.009C47.3188 325.009 48.1022 325.353 48.6719 325.908C49.2366 326.457 49.5863 327.217 49.5866 328.056L49.5768 328.056L49.5768 328.058L49.5768 328.063L49.5866 328.063C49.586 328.901 49.2331 329.664 48.6634 330.218C48.0987 330.769 47.3179 331.109 46.4566 331.109L46.4566 331.1L46.4544 331.1L46.4497 331.1L46.4497 331.109C45.5891 331.109 44.8053 330.765 44.2353 330.21C43.6703 329.661 43.3206 328.9 43.3203 328.06L43.3301 328.06L43.3301 328.058L43.3301 328.053L43.3203 328.053C43.3209 327.219 43.6719 326.458 44.2388 325.904L44.2435 325.909C44.8142 325.353 45.596 325.009 46.4522 325.009Z" fill="#FBEED9" fill-opacity="0.5"/>
<path fill-rule="evenodd" clip-rule="evenodd" d="M257.346 525.166C257.346 525.166 260.66 500.566 266.768 489.137C272.875 477.707 283.628 460.903 304.974 459.889C320.947 459.129 334.756 468.117 339.247 479.863C345.787 496.971 334.16 511.347 325.028 515.072C315.202 519.082 303.186 514.927 298.107 506.786C287.855 490.352 309.846 471.42 321.835 485.421C327.705 492.276 322.131 504.358 313.213 503.314C306.494 502.527 304.247 495.114 306.76 491.707C309.375 488.161 313.741 488.675 315.422 489.953C318.273 492.12 318.172 495.596 315.77 497.253C313.514 498.81 310.348 497.445 310.23 495.213C310.083 492.42 311.8 491.638 314.133 491.982" fill="#FBEED9" fill-opacity="0.5"/>
<path fill-rule="evenodd" clip-rule="evenodd" d="M307.886 319.234C313.55 353.828 303.338 379.663 298.387 393.507C295.733 400.927 291.473 414.609 287.204 423.714C281.695 435.461 273.74 452.077 270.088 462.136C264.804 476.692 259.158 492.233 257.49 507.69C259.411 502.335 262.311 494.974 265.715 488.603C273.91 473.266 286.198 459.662 305.132 458.945C326.735 458.128 345.535 472.901 342.252 494.539C340.644 505.138 332.839 516.059 321.429 517.236C313.026 518.104 301.984 515.026 297.15 507.277C290.655 496.865 295.634 481.56 308.128 479.05C316.939 477.28 326.434 484.86 325.342 493.708C324.944 496.932 323.33 500.097 320.751 502.19C318.675 503.875 316.038 504.807 313.074 504.46C309.608 504.054 306.718 501.909 305.363 498.776C304.327 496.382 303.845 494.157 306.331 490.81C308.341 488.104 315.024 487.004 316.868 491.355C319.546 497.668 311.039 500.531 309.952 494.831C309.489 492.404 313.063 491.716 314.123 492.552C315.881 493.94 313.87 495.972 312.693 495.092C312.129 494.671 312.309 492.731 311.144 493.476C309.482 494.539 311.992 496.852 313.753 496.764C316.368 496.635 317.17 493.552 315.897 491.801C313.9 489.058 309.628 489.003 307.215 491.991C303.277 496.864 308.955 502.552 314.101 503.154C321.329 503.764 327.697 492.605 321.782 485.948C318.432 482.034 313.147 481.329 309.218 482.118C298.465 484.278 293.726 497.546 299.118 506.189C303.426 513.095 312.211 515.731 320.77 515.284C332.005 514.697 341.386 499.419 336.929 482.619C331.319 461.477 301.566 452.018 280.977 471.385C266.436 485.062 259.004 520.295 257.481 528.165C259.077 545.981 264.305 565.944 270.476 588.999L261.335 588.999C244.246 538.505 251.681 510.489 255.925 491C260.11 471.779 271.674 448.782 278.181 435.059C288.982 412.281 293.328 401.086 296.352 393.147C300.671 381.81 311.461 356.82 307.886 319.234Z" fill="#FBEED9" fill-opacity="0.5"/>
<path fill-rule="evenodd" clip-rule="evenodd" d="M64.2295 502.214C81.0433 533.185 79.9285 560.845 79.8264 575.505C79.8011 579.032 79.8864 583.854 79.8965 588.999L77.2372 588.999C77.5516 583.518 77.6815 579.353 77.7798 575.802C78.1162 563.716 80.056 536.672 64.2295 502.214Z" fill="#FBEED9" fill-opacity="0.5"/>
<path fill-rule="evenodd" clip-rule="evenodd" d="M119.785 294.517C122.179 298.234 148.795 297.617 147.614 256.668C118.214 261.16 110.333 288.55 117.372 292.055C117.026 290.716 116.709 287.158 118.034 284.373C119.536 281.218 122.919 278.982 126.589 280.748C130.204 282.487 129.858 286.71 127.525 289.771C125.401 292.558 121.51 294.265 119.785 294.517Z" fill="#FBEED9" fill-opacity="0.5"/>
<path fill-rule="evenodd" clip-rule="evenodd" d="M128.861 304.012C128.589 305.819 137.193 312.621 148.177 299.336C137.616 293.03 127.521 299.636 128.779 302.597C129.041 302.082 129.928 300.871 131.12 300.337C132.471 299.732 134.163 299.913 134.836 301.437C135.499 302.939 134.218 304.186 132.63 304.543C131.184 304.867 129.478 304.386 128.861 304.012Z" fill="#FBEED9" fill-opacity="0.5"/>
<path fill-rule="evenodd" clip-rule="evenodd" d="M117.452 376.098C119.235 375.998 124.093 366.881 109.26 359.466C105.252 370.264 113.519 378.156 116.113 376.444C115.569 376.306 114.239 375.734 113.499 374.755C112.66 373.645 112.508 372.074 113.838 371.17C115.148 370.28 116.589 371.203 117.236 372.576C117.824 373.826 117.691 375.467 117.452 376.098Z" fill="#FBEED9" fill-opacity="0.5"/>
<path fill-rule="evenodd" clip-rule="evenodd" d="M81.0681 378.234C83.5442 375.372 76.0906 354.494 42.2458 366.102C53.6568 388.172 78.5558 387.262 79.6433 380.784C78.6174 381.406 75.7317 382.584 73.064 382.263C70.0408 381.898 67.2945 379.807 67.81 376.446C68.318 373.135 71.9309 372.307 75.0919 373.353C77.9697 374.306 80.4081 376.936 81.0681 378.234Z" fill="#FBEED9" fill-opacity="0.5"/>
<path fill-rule="evenodd" clip-rule="evenodd" d="M60.111 390.69C60.8668 388.042 49.3355 376.313 30.3711 394.134C44.9197 405.482 61.2661 397.467 59.9594 392.817C59.4696 393.538 57.9117 395.183 56.0288 395.762C53.8949 396.418 51.404 395.837 50.6936 393.439C49.9938 391.076 52.1473 389.449 54.5871 389.207C56.8084 388.987 59.2627 390.019 60.111 390.69Z" fill="#FBEED9" fill-opacity="0.5"/>
<path fill-rule="evenodd" clip-rule="evenodd" d="M60.3525 492.955C63.9426 491.62 67.8124 469.84 32.428 464.031C31.4275 488.72 53.6621 499.668 57.8372 494.514C56.6299 494.574 53.5194 494.244 51.3456 492.704C48.8823 490.96 47.5208 487.834 49.6442 485.138C51.7365 482.48 55.3089 483.46 57.5536 485.866C59.597 488.057 60.4211 491.508 60.3525 492.955Z" fill="#FBEED9" fill-opacity="0.5"/>
<path fill-rule="evenodd" clip-rule="evenodd" d="M86.0113 544.53C88.5398 546.643 107.192 540.519 97.126 511.86C77.3815 521.315 77.9923 542.337 83.7524 543.307C83.2062 542.436 82.1802 539.991 82.4879 537.742C82.8368 535.193 84.7215 532.892 87.7102 533.354C90.6548 533.81 91.3629 536.866 90.406 539.525C89.5346 541.946 87.1726 543.983 86.0113 544.53Z" fill="#FBEED9" fill-opacity="0.5"/>
<path fill-rule="evenodd" clip-rule="evenodd" d="M71.423 582.739C74.6518 581.762 79.3042 562.852 48.5736 555.82C46.2727 577.441 65.1625 588.267 69.125 583.97C68.0616 583.957 65.3497 583.497 63.53 582.027C61.468 580.36 60.4527 577.542 62.4723 575.291C64.4623 573.072 67.5422 574.128 69.3742 576.362C71.042 578.397 71.5666 581.472 71.423 582.739Z" fill="#FBEED9" fill-opacity="0.5"/>
<path fill-rule="evenodd" clip-rule="evenodd" d="M159.714 525.714C163.539 525.35 173.184 505.339 140.634 490.634C132.967 514.188 151.44 530.467 156.866 526.57C155.685 526.318 152.775 525.199 151.096 523.155C149.194 520.838 148.729 517.474 151.509 515.419C154.248 513.395 157.427 515.259 158.939 518.157C160.315 520.796 160.173 524.336 159.714 525.714Z" fill="#FBEED9" fill-opacity="0.5"/>
<path fill-rule="evenodd" clip-rule="evenodd" d="M153.129 534.767C154.563 533.731 153.485 523.513 136.905 525.24C139.642 536.408 151.001 538.588 152.204 535.772C151.672 535.946 150.238 536.179 149.067 535.756C147.74 535.276 146.727 534.044 147.33 532.578C147.923 531.134 149.648 531.136 150.962 531.938C152.159 532.668 152.973 534.111 153.129 534.767Z" fill="#FBEED9" fill-opacity="0.5"/>
<path fill-rule="evenodd" clip-rule="evenodd" d="M160.89 377.202C162.85 375.224 158.448 359.563 133.054 366.441C140.296 383.165 158.59 383.697 159.716 379.002C158.933 379.408 156.758 380.133 154.819 379.769C152.622 379.356 150.716 377.691 151.264 375.253C151.805 372.85 154.495 372.418 156.758 373.337C158.819 374.173 160.472 376.219 160.89 377.202Z" fill="#FBEED9" fill-opacity="0.5"/>
<path fill-rule="evenodd" clip-rule="evenodd" d="M179.186 375.806C180.371 376.263 186.332 371.779 179.013 362.638C173.084 368.459 176.004 375.989 178.211 375.639C177.902 375.39 177.217 374.631 177.04 373.78C176.839 372.816 177.225 371.754 178.366 371.557C179.489 371.364 180.137 372.383 180.133 373.461C180.128 374.443 179.535 375.467 179.186 375.806Z" fill="#FBEED9" fill-opacity="0.5"/>
<path fill-rule="evenodd" clip-rule="evenodd" d="M186.659 393.542C184.256 393.195 178.812 380.268 199.836 371.979C203.916 387.083 191.729 396.796 188.43 394.17C189.183 394.047 191.057 393.429 192.182 392.19C193.458 390.786 193.86 388.676 192.171 387.294C190.507 385.932 188.44 387.012 187.392 388.795C186.438 390.419 186.413 392.658 186.659 393.542Z" fill="#FBEED9" fill-opacity="0.5"/>
<path fill-rule="evenodd" clip-rule="evenodd" d="M191.753 402.83C190.034 405.247 197.456 421.041 223.047 409.515C212.439 393.076 193.03 395.586 192.673 400.733C193.428 400.171 195.596 399.041 197.707 399.1C200.1 399.167 202.408 400.605 202.261 403.271C202.116 405.898 199.353 406.806 196.8 406.217C194.476 405.679 192.368 403.798 191.753 402.83Z" fill="#FBEED9" fill-opacity="0.5"/>
<path fill-rule="evenodd" clip-rule="evenodd" d="M95.7289 292.037C96.389 295.342 81.1418 308.58 59.7523 285.031C78.6464 272.542 97.8127 283.868 95.7551 289.425C95.2284 288.498 93.4894 286.342 91.2475 285.458C88.7067 284.457 85.6071 284.931 84.5013 287.793C83.4119 290.613 85.8803 292.803 88.8358 293.328C91.5267 293.805 94.6263 292.776 95.7289 292.037Z" fill="#FBEED9" fill-opacity="0.5"/>
<path fill-rule="evenodd" clip-rule="evenodd" d="M76.867 248.988C78.7819 247.386 76.2043 233.083 53.0015 237.145C58.0168 252.625 74.2623 254.585 75.6675 250.495C74.9349 250.794 72.9363 251.263 71.241 250.781C69.3198 250.235 67.7648 248.597 68.4623 246.47C69.1495 244.375 71.5819 244.208 73.5188 245.21C75.2822 246.123 76.5792 248.078 76.867 248.988Z" fill="#FBEED9" fill-opacity="0.5"/>
<path fill-rule="evenodd" clip-rule="evenodd" d="M73.5193 232.775C75.1304 231.873 75.2886 221.186 57.9377 221.014C59.3757 232.879 70.8447 236.473 72.4389 233.704C71.867 233.822 70.3557 233.893 69.198 233.317C67.8861 232.665 66.9933 231.272 67.7982 229.828C68.5913 228.405 70.3737 228.611 71.6325 229.595C72.7784 230.491 73.4398 232.078 73.5193 232.775Z" fill="#FBEED9" fill-opacity="0.5"/>
<path fill-rule="evenodd" clip-rule="evenodd" d="M115.419 156.578C117.133 160.208 141.242 162.69 145.111 125.578C118.02 126.276 107.602 150.11 113.536 154.078C113.385 152.83 113.528 149.58 115.06 147.217C116.796 144.539 120.121 142.907 123.222 144.92C126.277 146.904 125.456 150.678 122.98 153.176C120.726 155.45 117.007 156.547 115.419 156.578Z" fill="#FBEED9" fill-opacity="0.5"/>
<path fill-rule="evenodd" clip-rule="evenodd" d="M99.9162 167.442C101.886 168.484 113.269 161.894 102.494 144.423C90.8747 153.355 94.3231 167.101 98.2529 166.947C97.7674 166.449 96.7382 164.982 96.6147 163.46C96.4749 161.736 97.3812 159.963 99.4143 159.856C101.417 159.751 102.326 161.665 102.082 163.546C101.86 165.258 100.601 166.923 99.9162 167.442Z" fill="#FBEED9" fill-opacity="0.5"/>
<path fill-rule="evenodd" clip-rule="evenodd" d="M73.0639 133.367C73.3017 135.537 62.6992 143.263 50.2273 126.898C63.1425 119.853 74.8755 128.204 73.2297 131.682C72.9424 131.055 71.9422 129.568 70.5446 128.876C68.9607 128.092 66.9318 128.231 66.0544 130.019C65.19 131.781 66.6594 133.33 68.5383 133.828C70.249 134.282 72.3096 133.785 73.0639 133.367Z" fill="#FBEED9" fill-opacity="0.5"/>
<path fill-rule="evenodd" clip-rule="evenodd" d="M75.8208 120.653C74.1419 123.28 55.3714 122.909 56.0998 94.0293C76.8437 97.1261 82.4714 116.422 77.5163 118.91C77.757 117.966 77.9712 115.455 77.0298 113.495C75.9627 111.274 73.5712 109.705 70.9881 110.959C68.4431 112.194 68.6977 115.172 70.3505 117.325C71.8555 119.285 74.6035 120.479 75.8208 120.653Z" fill="#FBEED9" fill-opacity="0.5"/>
<path fill-rule="evenodd" clip-rule="evenodd" d="M92.6934 74.2563C94.9836 76.1311 111.675 70.4672 102.369 44.8218C84.7272 53.4861 85.4721 72.3582 90.6535 73.178C90.1549 72.4009 89.2109 70.2145 89.4661 68.1922C89.7556 65.9004 91.4265 63.8174 94.1145 64.2058C96.763 64.5886 97.4273 67.3265 96.5929 69.7231C95.833 71.9051 93.7311 73.7551 92.6934 74.2563Z" fill="#FBEED9" fill-opacity="0.5"/>
<path fill-rule="evenodd" clip-rule="evenodd" d="M68.6642 28.4023C67.3432 32.2809 43.1242 37.4567 34.884 0.156657C62.5028 -2.11366 75.8594 20.9676 70.2876 25.6544C70.2966 24.3691 69.774 21.0814 67.9424 18.8478C65.8665 16.3167 62.2976 15.0234 59.3792 17.4108C56.5039 19.763 57.7769 23.5097 60.5831 25.7761C63.1382 27.8395 67.046 28.5459 68.6642 28.4023Z" fill="#FBEED9" fill-opacity="0.5"/>
<path fill-rule="evenodd" clip-rule="evenodd" d="M273.712 580.084C274.901 584.336 300.671 591.289 311.786 551.591C282.18 547.573 266.41 571.668 272.129 577.033C272.196 575.648 272.956 572.137 275.063 569.836C277.45 567.229 281.371 566.039 284.371 568.776C287.326 571.473 285.73 575.435 282.572 577.716C279.696 579.793 275.446 580.331 273.712 580.084Z" fill="#FBEED9" fill-opacity="0.5"/>
<path fill-rule="evenodd" clip-rule="evenodd" d="M201.002 486.794C198.797 486.198 195.25 473.496 215.894 468.124C217.907 482.706 205.355 490.409 202.583 487.581C203.302 487.551 205.127 487.185 206.328 486.154C207.688 484.985 208.315 483.058 206.901 481.575C205.508 480.114 203.446 480.89 202.254 482.439C201.168 483.849 200.878 485.94 201.002 486.794Z" fill="#FBEED9" fill-opacity="0.5"/>
<path fill-rule="evenodd" clip-rule="evenodd" d="M316.659 367.812C318.574 369.936 335.434 366.88 330.361 340.958C312.139 346.756 310.018 364.963 314.865 366.487C314.503 365.67 313.926 363.439 314.475 361.536C315.097 359.379 317.012 357.619 319.532 358.374C322.015 359.118 322.241 361.839 321.08 364.019C320.024 366.004 317.73 367.479 316.659 367.812Z" fill="#FBEED9" fill-opacity="0.5"/>
<path fill-rule="evenodd" clip-rule="evenodd" d="M304.841 313.316C302.428 316.236 279.912 313.122 285.118 278.499C309.598 285.171 313.472 309.174 307.141 311.461C307.572 310.36 308.206 307.372 307.368 304.881C306.418 302.058 303.777 299.832 300.483 300.972C297.237 302.096 297.097 305.713 298.762 308.536C300.278 311.107 303.403 312.934 304.841 313.316Z" fill="#FBEED9" fill-opacity="0.5"/>
<path fill-rule="evenodd" clip-rule="evenodd" d="M283.479 406.342C280.637 408.87 258.873 402.447 269.447 369.002C292.594 379.234 292.659 403.531 286.043 404.851C286.642 403.827 287.737 400.968 287.299 398.381C286.803 395.45 284.542 392.858 281.108 393.496C277.724 394.124 277.018 397.677 278.221 400.715C279.316 403.481 282.118 405.751 283.479 406.342Z" fill="#FBEED9" fill-opacity="0.5"/>
<path fill-rule="evenodd" clip-rule="evenodd" d="M279.054 414.521C280.065 413.088 275.64 403.763 260.533 410.633C266.843 420.333 278.314 418.807 278.514 415.763C278.069 416.097 276.789 416.769 275.541 416.739C274.126 416.705 272.758 415.859 272.839 414.282C272.919 412.728 274.551 412.185 276.061 412.529C277.437 412.842 278.688 413.95 279.054 414.521Z" fill="#FBEED9" fill-opacity="0.5"/>
<path fill-rule="evenodd" clip-rule="evenodd" d="M312.366 451.911C313.025 455.597 334.24 463.469 346.877 430.772C322.18 425.085 306.882 444.232 311.278 449.209C311.448 448.044 312.377 445.135 314.346 443.353C316.577 441.334 319.988 440.632 322.3 443.177C324.578 445.686 322.905 448.911 320.049 450.595C317.449 452.128 313.812 452.254 312.366 451.911Z" fill="#FBEED9" fill-opacity="0.5"/>
<path fill-rule="evenodd" clip-rule="evenodd" d="M295.964 457.253C298.022 458.69 311.732 452.857 302.171 431.801C287.859 440.226 289.744 456.106 294.171 456.471C293.698 455.847 292.756 454.061 292.837 452.338C292.929 450.386 294.2 448.523 296.495 448.681C298.755 448.837 299.498 451.106 298.953 453.181C298.457 455.07 296.807 456.764 295.964 457.253Z" fill="#FBEED9" fill-opacity="0.5"/>
<path fill-rule="evenodd" clip-rule="evenodd" d="M247.644 512.667C249.427 512.566 254.278 503.445 239.439 496.041C235.44 506.842 243.713 514.727 246.305 513.014C245.762 512.876 244.431 512.305 243.69 511.326C242.85 510.217 242.697 508.647 244.026 507.742C245.336 506.85 246.777 507.772 247.425 509.144C248.015 510.394 247.883 512.035 247.644 512.667Z" fill="#FBEED9" fill-opacity="0.5"/>
<path fill-rule="evenodd" clip-rule="evenodd" d="M245.432 527.255C247.674 526.354 249.743 512.551 227.321 509.46C227.112 525.051 241.326 531.598 243.872 528.279C243.111 528.336 241.143 528.178 239.745 527.242C238.162 526.181 237.249 524.232 238.543 522.496C239.817 520.786 242.088 521.347 243.545 522.828C244.871 524.177 245.45 526.341 245.432 527.255Z" fill="#FBEED9" fill-opacity="0.5"/>
<path fill-rule="evenodd" clip-rule="evenodd" d="M252.384 571.086C254.818 569.372 253.221 552.169 225.303 554.742C229.67 573.576 248.726 577.469 250.809 572.757C249.91 573.041 247.493 573.403 245.533 572.668C243.311 571.835 241.635 569.743 242.679 567.29C243.707 564.873 246.607 564.91 248.801 566.285C250.798 567.537 252.136 569.981 252.384 571.086Z" fill="#FBEED9" fill-opacity="0.5"/>
<path fill-rule="evenodd" clip-rule="evenodd" d="M197.567 515.112C198.83 518.424 219.915 522.179 225.87 489.71C201.938 488.565 191.119 508.901 196.079 512.786C196.031 511.676 196.38 508.82 197.893 506.836C199.607 504.588 202.65 503.365 205.246 505.341C207.804 507.288 206.821 510.563 204.467 512.604C202.324 514.462 198.97 515.188 197.567 515.112Z" fill="#FBEED9" fill-opacity="0.5"/>
<path fill-rule="evenodd" clip-rule="evenodd" d="M70.4699 43.2129C87.4749 57.4295 86.2321 91.9502 81.4961 149.256C80.8484 157.092 78.5575 172.435 77.8565 182.426C76.8696 196.488 78.3349 211.375 80.0298 225.348C80.447 219.908 81.4744 209.793 83.6621 201.013C87.8484 184.212 96.4341 168.14 114.642 163.032C135.416 157.204 157.301 167.167 159.434 188.94C160.478 199.606 155.585 212.028 144.796 215.83C136.85 218.631 125.373 218.216 118.775 211.818C109.909 203.222 110.979 187.202 122.493 181.854C130.613 178.082 141.696 183.229 142.811 192.074C143.217 195.297 142.428 198.746 140.439 201.38C138.837 203.5 136.506 205.019 133.543 205.373C130.078 205.786 126.745 204.377 124.658 201.651C123.064 199.567 122.049 197.52 123.64 193.691C124.926 190.595 131.144 187.97 134.005 191.764C138.157 197.269 130.601 202.032 128.144 196.751C127.098 194.503 130.399 193.001 131.634 193.567C133.682 194.504 132.229 196.946 130.869 196.366C130.219 196.088 129.916 194.163 128.968 195.158C127.617 196.577 130.622 198.237 132.31 197.742C134.818 197.007 134.838 193.827 133.171 192.424C130.558 190.225 126.397 191.168 124.788 194.631C122.163 200.28 129.075 204.48 134.219 203.865C141.387 202.773 144.826 190.455 137.447 185.369C133.231 182.35 127.927 182.897 124.306 184.579C114.397 189.182 113.058 203.168 120.418 210.304C126.298 216.005 135.476 216.517 143.677 214.089C154.44 210.901 159.793 193.881 151.334 178.608C140.69 159.388 109.476 157.137 94.2469 180.739C81.5058 197.727 83.8602 238.532 84.2166 243.86C86.5279 251.206 89.5165 258.467 92.7361 264.514C107.327 291.921 131.738 314.081 161.138 355.447C190.538 396.814 198 432.041 197.141 462.149C196.282 492.256 191.346 521.518 181.038 546.189C172.267 567.181 160.231 584.346 156.835 589L141.988 589C171.376 555.621 189.82 499.698 186.833 458.385C182.756 401.994 171.73 383.027 144.399 345.628C95.3687 278.538 102.249 298.125 82.8891 253.49C74.2398 233.549 73.8416 189.188 75.4834 174.545C76.3434 166.877 77.8046 160.584 78.959 148.91C81.1679 126.574 90.8567 59.0909 70.4699 43.2129Z" fill="#FBEED9" fill-opacity="0.5"/>
<path fill-rule="evenodd" clip-rule="evenodd" d="M125.49 589C177.769 531.614 191.914 448.337 140.709 400.172C109.19 370.525 63.6427 385.006 55.0557 417.37C48.2322 443.089 62.594 466.477 79.7916 467.375C92.8954 468.059 106.343 464.024 112.938 453.452C121.192 440.22 113.937 419.91 97.4757 416.603C91.462 415.396 83.3716 416.475 78.2424 422.466C69.189 432.657 78.9368 449.739 90.0012 448.805C97.8793 447.884 106.571 439.176 100.543 431.716C96.8479 427.143 90.3085 427.226 87.2526 431.426C85.303 434.107 86.5303 438.826 90.5348 439.024C93.2303 439.157 97.0714 435.618 94.5282 433.991C92.7448 432.849 93.0194 435.819 92.1572 436.464C90.3553 437.811 87.2766 434.7 89.9673 432.576C91.5903 431.296 97.0619 432.35 96.3531 436.065C94.6888 444.791 81.6664 440.407 85.7647 430.743C88.5886 424.083 98.8183 425.766 101.896 429.909C105.701 435.033 104.964 438.438 103.378 442.103C101.304 446.9 96.8788 450.183 91.5737 450.805C87.0357 451.337 82.9996 449.91 79.8207 447.33C75.8734 444.125 73.403 439.28 72.7934 434.345C71.1206 420.8 85.6572 409.196 99.1454 411.906C118.272 415.748 125.893 439.178 115.95 455.117C108.55 466.98 91.6476 471.691 78.7832 470.363C61.3166 468.561 49.3682 451.843 46.9063 435.617C41.8815 402.493 70.6602 379.878 103.731 381.13C132.716 382.226 151.527 403.052 164.072 426.53C187.112 469.648 175.598 545.812 131.654 589L125.49 589Z" fill="#FBEED9" fill-opacity="0.5"/>
<path fill-rule="evenodd" clip-rule="evenodd" d="M18.8951 127.002L18.8929 127.002L18.8929 127.012C13.6703 127.012 8.94698 129.068 5.53429 132.391C2.12224 135.713 0.0110662 140.309 0.00980892 145.391L-3.32794e-05 145.391L-3.32798e-05 145.395L-3.328e-05 145.398L0.00980892 145.398C0.0104487 150.482 2.12285 155.08 5.53585 158.403C8.94791 161.724 13.6694 163.78 18.8903 163.781L18.8903 163.791L18.8951 163.791L18.8973 163.791L18.8973 163.781C24.1123 163.781 28.8357 161.721 32.2543 158.392C35.6655 155.07 37.7772 150.476 37.7785 145.4L37.7883 145.4L37.7883 145.395L37.7883 145.393L37.7785 145.393C37.7779 140.31 35.6658 135.712 32.2528 132.39C28.8407 129.068 24.1195 127.013 18.8998 127.012L18.8998 127.002L18.8951 127.002ZM18.8929 131.923L18.8929 131.932L18.8951 131.932L18.8998 131.932L18.8998 131.923C22.7082 131.924 26.1649 133.434 28.6723 135.875C31.181 138.317 32.7335 141.684 32.7338 145.393L32.7241 145.393L32.7241 145.395L32.7241 145.4L32.7338 145.4C32.7329 149.115 31.1807 152.484 28.6739 154.925C26.1715 157.362 22.7142 158.87 18.8973 158.87L18.8973 158.86L18.8951 158.86L18.8903 158.86L18.8903 158.87C15.0807 158.869 11.6238 157.358 9.11633 154.917C6.60728 152.475 5.05479 149.108 5.05446 145.398L5.06424 145.398L5.06424 145.395L5.06424 145.391L5.05446 145.391C5.05543 141.683 6.60725 138.318 9.11471 135.877C11.6231 133.434 15.0817 131.923 18.8929 131.923Z" fill="#FBEED9" fill-opacity="0.5"/>
</svg>
