<svg width="115" height="13" viewBox="0 0 115 13" fill="none" xmlns="http://www.w3.org/2000/svg">
<path d="M96.1756 6.18246C95.9121 6.27418 95.6396 6.35201 95.3626 6.42149C97.3473 6.68832 99.1777 7.19972 99.8771 8.51994C100.686 10.0319 99.1822 11.8219 96.5843 12.186C94.1817 12.5223 91.6883 11.3216 92.3242 9.79568C92.7148 8.8618 95.0765 9.25648 94.6859 10.1931C95.2036 10.8908 95.9848 10.9464 97.0294 10.3543C97.6607 9.968 97.8242 9.55387 97.5245 9.11473C97.202 8.22254 95.9621 8.02242 94.6723 7.84454C92.6966 7.57216 90.6165 7.48322 88.5999 7.35537C84.4896 7.09689 80.3612 6.96903 76.2282 6.92734C67.9304 6.84118 59.6371 7.11634 51.353 7.41929C43.0597 7.72503 34.762 8.05856 26.4506 8.11137C18.2695 8.16418 10.0866 8.00575 1.92736 8.45879C0.35864 8.54495 0.368178 7.04686 1.92736 6.95792C10.5594 6.47986 19.2187 6.68832 27.8721 6.60215C36.6695 6.51599 45.4487 6.12688 54.2279 5.81837C62.9799 5.50985 71.7545 5.27638 80.5201 5.50429C81.4012 5.52653 82.2823 5.5571 83.168 5.59046C83.1816 5.59046 83.1952 5.58767 83.2134 5.58767C86.3881 5.62381 89.9852 5.71552 93.0963 5.29306C94.7495 5.06792 96.5798 4.50927 96.2528 3.33081C96.0529 2.62484 94.9538 2.19959 93.8229 2.16068C92.7783 2.12733 90.8708 2.56925 93.1281 3.37806C94.486 3.86445 93.2552 5.15965 91.8927 4.67047C89.6854 3.88113 88.7452 2.09953 91.1251 1.09895C93.2643 0.198426 96.6025 0.729288 98.0195 2.01337C99.6999 3.53926 98.6508 5.31251 96.1756 6.18246Z" fill="#0F0F0F"/>
<path d="M104.101 5.32557C104.924 5.32279 105.741 5.31445 106.559 5.29221C108.135 5.25052 108.13 6.74863 106.559 6.79032C106.036 6.80422 105.509 6.81256 104.983 6.81812C105.582 6.90428 106.177 6.96265 106.745 6.97932C108.707 7.03213 110.206 6.47347 111.591 5.74804C110.069 5.35614 108.066 5.32001 106.595 5.27832C105.832 5.25608 104.946 5.24497 104.101 5.32557ZM114.511 6.14272C112.558 7.2795 110.433 8.39126 107.612 8.48298C104.96 8.56636 101.849 7.96045 99.6915 7.02657C99.2645 6.84313 99.1192 6.57909 99.1601 6.32616C99.0147 6.13716 98.9875 5.91202 99.1646 5.67577C100.286 4.19157 103.234 3.7552 105.682 3.76632C108.516 3.77466 111.872 3.91085 114.207 4.97815C114.847 5.20328 115.202 5.74248 114.511 6.14272Z" fill="#0F0F0F"/>
</svg>
