<svg width="116" height="13" viewBox="0 0 116 13" fill="none" xmlns="http://www.w3.org/2000/svg">
<path d="M113.923 8.45879C105.765 8.00575 97.5808 8.16417 89.4011 8.11136C81.0883 8.05856 72.7919 7.72224 64.4964 7.41929C56.2149 7.11634 47.9199 6.84396 39.6203 6.92734C35.49 6.96903 31.3602 7.09689 27.2504 7.35537C25.2302 7.48322 23.1655 7.58606 21.1767 7.84454C20.1988 7.97239 19.0044 8.15027 18.468 8.7395C17.9893 9.31484 18.1065 9.85126 18.8204 10.3543C19.8664 10.9463 20.648 10.8908 21.1653 10.1931C20.7747 9.25925 23.1355 8.85902 23.5261 9.79567C24.0711 11.102 22.3253 12.2304 20.1598 12.2471C17.8925 12.2666 15.9759 11.0047 15.7747 9.67894C15.5299 8.06967 17.4016 6.89399 19.8169 6.49376C20.0158 6.4604 20.2206 6.43538 20.4218 6.40481C20.1689 6.34089 19.9186 6.26862 19.6743 6.18246C17.2013 5.31251 16.1517 3.53926 17.833 2.01337C19.2492 0.729288 22.5855 0.198427 24.7261 1.09895C27.1028 2.09953 26.1644 3.88112 23.9589 4.67047C22.5969 5.15965 21.3633 3.86445 22.7231 3.37805C25.3628 2.43028 21.094 1.52698 19.7528 2.93613C18.5025 4.24801 21.0817 5.06514 22.7536 5.29305C25.8597 5.71552 29.4735 5.6238 32.6373 5.58767C32.6564 5.58767 32.6732 5.59045 32.6923 5.59045C50.0186 4.95119 67.3195 6.24639 84.6272 6.5549C94.3924 6.73 104.18 6.41871 113.923 6.95791C115.48 7.04686 115.494 8.54495 113.923 8.45879Z" fill="#0F0F0F"/>
<path d="M4.24574 5.74516C5.6287 6.47337 7.12294 7.04315 9.10632 6.97922C9.67677 6.95977 10.2667 6.9014 10.8558 6.81802C10.3344 6.81246 9.81301 6.80412 9.29117 6.79022C7.72154 6.74853 7.71336 5.25043 9.29117 5.29212C10.1614 5.31436 11.0316 5.32548 11.9018 5.32548C9.50644 4.96416 6.19551 5.21708 4.24574 5.74516ZM16.1615 7.02647C13.9833 7.96591 10.9076 8.55236 8.2384 8.48288C5.42206 8.40505 3.27971 7.27384 1.33811 6.14262C0.649579 5.74239 1.00475 5.20318 1.64423 4.97805C3.97869 3.91076 7.33731 3.77179 10.1682 3.76623C12.6198 3.75789 15.562 4.1887 16.6852 5.67568C16.8623 5.90915 16.8346 6.13428 16.6924 6.32328C16.7319 6.57899 16.5879 6.84303 16.1615 7.02647Z" fill="#0F0F0F"/>
</svg>
