<svg width="17" height="18" viewBox="0 0 17 18" fill="none" xmlns="http://www.w3.org/2000/svg">
<path d="M4.48205 14.6936L4.75926 14.8322C5.91446 15.5253 7.20818 15.8487 8.50196 15.8487C12.568 15.8487 15.8948 12.5219 15.8948 8.45585C15.8948 6.51525 15.1093 4.62081 13.7232 3.23463C12.337 1.84845 10.4887 1.06299 8.50196 1.06299C4.43588 1.06299 1.10903 4.38977 1.15526 8.50209C1.15526 9.8882 1.57111 11.2282 2.26417 12.3833L2.44897 12.6606L1.70975 15.3867L4.48205 14.6936Z" fill="#00E676"/>
<path d="M14.5085 2.49509C12.9375 0.877931 10.7659 0 8.548 0C3.8351 0 0.0462348 3.83504 0.0924033 8.50177C0.0924033 9.98036 0.508251 11.4128 1.20138 12.7065L0 17.096L4.48193 15.9409C5.72947 16.634 7.11559 16.9574 8.50183 16.9574C13.1686 16.9574 16.9574 13.1223 16.9574 8.45567C16.9574 6.19155 16.0795 4.06608 14.5086 2.49509H14.5085ZM8.548 15.5251C7.30046 15.5251 6.05292 15.2017 4.99018 14.5548L4.71297 14.4162L2.03307 15.1092L2.72613 12.4756L2.54132 12.1983C0.508251 8.91775 1.47859 4.57433 4.80537 2.54126C8.13216 0.508252 12.4293 1.47859 14.4623 4.80537C16.4954 8.13216 15.525 12.4293 12.1983 14.4623C11.1355 15.1554 9.84178 15.525 8.548 15.525V15.5251ZM12.6141 10.3963L12.1058 10.1653C12.1058 10.1653 11.3666 9.84185 10.9045 9.61081C10.8583 9.61081 10.8121 9.56457 10.7659 9.56457C10.6272 9.56457 10.5348 9.61081 10.4424 9.65704C10.4424 9.65704 10.3963 9.70321 9.74938 10.4425C9.70314 10.5349 9.61074 10.5811 9.51834 10.5811H9.4721C9.42593 10.5811 9.33353 10.5349 9.2873 10.4887L9.05625 10.3963C8.548 10.1653 8.08599 9.88802 7.71631 9.5184C7.6239 9.426 7.48527 9.3336 7.39286 9.24119C7.06942 8.91775 6.74597 8.54807 6.515 8.13222L6.46876 8.03982C6.42259 7.99358 6.42259 7.94741 6.37636 7.85501C6.37636 7.76261 6.37636 7.67021 6.42259 7.62397C6.42259 7.62397 6.6074 7.39293 6.74597 7.25436C6.83844 7.16189 6.88461 7.02332 6.97701 6.93091C7.06942 6.79227 7.11565 6.60747 7.06942 6.46883C7.02325 6.23779 6.46876 4.99024 6.33019 4.71303C6.23772 4.5744 6.14538 4.52823 6.00675 4.48199H5.4985C5.40603 4.48199 5.31369 4.52823 5.22122 4.52823L5.17498 4.5744C5.08258 4.62063 4.99018 4.71303 4.89777 4.7592C4.80537 4.85167 4.75914 4.94401 4.66673 5.03648C4.34329 5.45233 4.15848 5.96058 4.15848 6.46883C4.15848 6.83844 4.25088 7.20812 4.38952 7.53157L4.43576 7.67021C4.85161 8.54807 5.40603 9.3336 6.14538 10.0267L6.33019 10.2115C6.46876 10.3501 6.6074 10.4425 6.6998 10.5811C7.67014 11.4128 8.77905 12.0135 10.0266 12.3369C10.1652 12.3831 10.35 12.3831 10.4887 12.4293H10.9507C11.1817 12.4293 11.4589 12.3369 11.6438 12.2445C11.7824 12.1521 11.8748 12.1521 11.9672 12.0597L12.0597 11.9673C12.1521 11.8749 12.2445 11.8287 12.3369 11.7363C12.4293 11.6439 12.5217 11.5515 12.5679 11.459C12.6603 11.2742 12.7065 11.0432 12.7527 10.8122V10.4887C12.7527 10.4887 12.7065 10.4425 12.6141 10.3963Z" fill="white"/>
</svg>